<svg width="98" height="34" viewBox="0 0 98 34" fill="none" xmlns="http://www.w3.org/2000/svg">
<path fill-rule="evenodd" clip-rule="evenodd" d="M4.833 1.18365C2.79821 1.18365 1.14183 2.90065 1.14183 5.01123V28.874C1.14183 30.9846 2.79821 32.7016 4.833 32.7016H92.7186C94.7534 32.7016 96.4086 30.9846 96.4086 28.874V5.01123C96.4086 2.90065 94.7534 1.18365 92.7186 1.18365H4.833ZM92.7183 33.8854H4.83272C2.16779 33.8854 0 31.6375 0 28.874V5.01131C0 2.2479 2.16779 0 4.83272 0H92.7183C95.3827 0 97.5499 2.2479 97.5499 5.01131V28.874C97.5499 31.6375 95.3827 33.8854 92.7183 33.8854ZM31.2029 8.48222C30.9395 7.68649 30.8078 7.25601 30.8078 7.19144H30.7706C30.7706 7.25144 30.6343 7.68192 30.3611 8.48222H31.2029ZM32.2718 9.78914H31.531C31.531 9.68804 31.4605 9.3991 31.321 8.92427H30.2515C30.1068 9.39192 30.0344 9.68021 30.0344 9.78914H29.3379C29.3379 9.72913 29.5179 9.23604 29.8785 8.30856C30.2378 7.38173 30.4185 6.87103 30.4185 6.77711H31.2929C31.2929 6.86516 31.456 7.36803 31.782 8.28703C32.1081 9.20539 32.2718 9.7063 32.2718 9.78914ZM33.966 9.78913H34.4729C34.4533 9.31897 34.444 8.79403 34.444 8.21367C34.444 7.63852 34.4533 7.15988 34.4729 6.7771H33.9597C33.9793 7.21661 33.9886 7.64569 33.9886 8.06369C33.9886 8.33626 34.0048 8.64535 34.0377 8.98901H34.0071C33.9539 8.77317 33.7476 8.36234 33.3881 7.7559C33.0505 7.18531 32.8818 6.85926 32.8818 6.7771H32.2726C32.2934 7.17227 32.3032 7.65091 32.3032 8.21367C32.3032 8.78621 32.2934 9.31114 32.2726 9.78913H32.7766C32.7575 9.24202 32.7482 8.77773 32.7482 8.39691C32.7482 8.12368 32.7309 7.8185 32.6974 7.48071H32.7297C32.7847 7.71481 33.0089 8.15041 33.4019 8.78751C33.7782 9.392 33.966 9.72588 33.966 9.78913ZM36.8587 8.27188C36.8587 7.97988 36.7837 7.73418 36.6349 7.53415C36.4855 7.33412 36.2577 7.23379 35.951 7.23379C35.8935 7.23379 35.8146 7.24022 35.7148 7.25437C35.7278 7.55859 35.7346 7.87633 35.7346 8.20821C35.7346 8.57161 35.7413 8.93244 35.7548 9.2894C35.8411 9.30934 35.9285 9.31899 36.0147 9.31899C36.3017 9.31899 36.5137 9.21801 36.6518 9.01476C36.7899 8.81152 36.8587 8.56389 36.8587 8.27188ZM37.4054 8.17413C37.4054 8.60635 37.2836 8.98261 37.0412 9.30549C36.7988 9.62773 36.4583 9.78917 36.0214 9.78917C35.8235 9.78917 35.5518 9.78016 35.205 9.76151C35.2225 9.30292 35.231 8.78451 35.231 8.20822C35.231 7.65444 35.2225 7.18234 35.205 6.79129H35.5551C35.6126 6.79129 35.6978 6.78871 35.8116 6.78421C35.9244 6.77971 35.9988 6.77713 36.0332 6.77713C36.5147 6.77713 36.8636 6.91413 37.0801 7.18813C37.2966 7.46213 37.4054 7.79015 37.4054 8.17413ZM39.023 7.21207C39.3791 7.21207 39.5575 7.36527 39.5575 7.67036C39.5575 8.00987 39.3361 8.17929 38.8935 8.17929C38.8405 8.17929 38.7757 8.178 38.6992 8.17475C38.6992 7.7924 38.6916 7.48211 38.6763 7.24453C38.7769 7.2231 38.8923 7.21207 39.023 7.21207ZM39.7223 9.78917H40.3404C40.1609 9.25946 40.0184 8.89529 39.913 8.69666C39.8071 8.49737 39.6835 8.37663 39.5434 8.33378V8.29938C39.9077 8.14878 40.0902 7.88263 40.0902 7.50028C40.0902 7.01797 39.7706 6.77713 39.1313 6.77713C39.0189 6.77713 38.8959 6.77908 38.7628 6.78363C38.6304 6.78882 38.5427 6.79077 38.5009 6.79077H38.14C38.1577 7.18545 38.1671 7.66192 38.1671 8.22083C38.1671 8.80247 38.1577 9.32568 38.14 9.78917H38.7204C38.7081 9.3867 38.7016 8.98877 38.7016 8.59409C38.7752 8.59214 38.8529 8.59149 38.9329 8.59149C39.1254 8.59149 39.2644 8.65576 39.3509 8.78234C39.4374 8.91022 39.561 9.24583 39.7223 9.78917ZM42.6389 8.28782C42.6389 7.98122 42.5564 7.73234 42.392 7.54118C42.2277 7.35064 42.025 7.25506 41.784 7.25506C41.5598 7.25506 41.3695 7.35126 41.2129 7.54366C41.055 7.73606 40.9771 7.97874 40.9771 8.27231C40.9771 8.57767 41.0596 8.82593 41.2246 9.01771C41.3903 9.20887 41.593 9.30508 41.8327 9.30508C42.0568 9.30508 42.2472 9.20825 42.4044 9.01523C42.5609 8.82221 42.6389 8.58015 42.6389 8.28782ZM43.2746 8.22388C43.2746 8.67447 43.1304 9.04811 42.8413 9.34478C42.5522 9.64145 42.1949 9.78917 41.77 9.78917C41.364 9.78917 41.0248 9.65324 40.7513 9.38078C40.4778 9.10893 40.3408 8.76261 40.3408 8.34304C40.3408 7.89245 40.4856 7.51882 40.7741 7.22214C41.0632 6.92547 41.4205 6.77713 41.8453 6.77713C42.2514 6.77713 42.5911 6.91306 42.8647 7.1849C43.1382 7.45613 43.2746 7.80245 43.2746 8.22388ZM44.0076 9.78913H44.741C44.7184 9.32027 44.7067 8.79534 44.7067 8.21367C44.7067 7.64504 44.7184 7.1664 44.741 6.7771H44.0076C44.0295 7.17227 44.0412 7.65091 44.0412 8.21367C44.0412 8.78621 44.0295 9.31114 44.0076 9.78913ZM47.1295 8.2719C47.1295 7.9799 47.0545 7.7342 46.9057 7.53417C46.7563 7.33414 46.5285 7.2338 46.2218 7.2338C46.1643 7.2338 46.0854 7.24023 45.9856 7.25438C45.9986 7.55861 46.0059 7.87634 46.0059 8.20823C46.0059 8.57162 46.0127 8.93245 46.0256 9.28942C46.1119 9.30936 46.1993 9.31901 46.2855 9.31901C46.5725 9.31901 46.785 9.21803 46.9226 9.01478C47.0607 8.81153 47.1295 8.56391 47.1295 8.2719ZM47.6755 8.1741C47.6755 8.60632 47.5537 8.98258 47.3113 9.30546C47.0689 9.6277 46.7283 9.78914 46.2914 9.78914C46.0941 9.78914 45.8224 9.78013 45.4751 9.76148C45.4926 9.30289 45.501 8.78448 45.501 8.20819C45.501 7.65441 45.4926 7.18231 45.4751 6.79126H45.8252C45.8827 6.79126 45.9678 6.78868 46.0817 6.78418C46.1945 6.77968 46.2689 6.77711 46.3033 6.77711C46.7847 6.77711 47.1337 6.9141 47.3507 7.1881C47.5667 7.4621 47.6755 7.79012 47.6755 8.1741ZM49.8776 7.19142C49.8776 7.25599 50.0094 7.68647 50.2735 8.4822H49.4308C49.7041 7.68191 49.8404 7.25143 49.8404 7.19142H49.8776ZM50.6019 9.78918H51.3426H51.3429H51.9936C51.9766 9.3166 51.9681 8.93555 51.9681 8.64733C51.9994 8.64993 52.0504 8.65123 52.1228 8.65123C52.5218 8.65123 52.8574 8.56424 53.1316 8.38897C53.4059 8.21435 53.543 7.94301 53.543 7.57624C53.543 7.3075 53.4424 7.10756 53.2394 6.97513C53.0376 6.84336 52.7895 6.77714 52.4963 6.77714C52.3775 6.77714 52.2365 6.77974 52.0745 6.78364C51.9126 6.78883 51.8029 6.79078 51.7455 6.79078H51.3426C51.3628 7.1913 51.3726 7.66842 51.3726 8.22084C51.3726 8.82161 51.3629 9.34297 51.3428 9.78556C51.3384 9.69262 51.1753 9.19291 50.853 8.28707C50.5269 7.36807 50.3638 6.8652 50.3638 6.77714H49.4892C49.4892 6.87107 49.3091 7.38177 48.9491 8.3086C48.5884 9.23608 48.409 9.72917 48.409 9.78918H49.105C49.105 9.68025 49.1774 9.39196 49.3222 8.92431H50.3912C50.5321 9.39914 50.6019 9.68808 50.6019 9.78918ZM52.9452 7.70285C52.9452 7.37438 52.7258 7.21015 52.287 7.21015C52.1773 7.21015 52.0618 7.22183 51.9397 7.24455C51.9567 7.53472 51.9651 7.86319 51.9651 8.22995C52.0043 8.2332 52.0487 8.2345 52.0996 8.2345C52.6631 8.2345 52.9452 8.05728 52.9452 7.70285ZM55.2209 7.21015C55.6596 7.21015 55.879 7.37438 55.879 7.70285C55.879 8.05728 55.5969 8.2345 55.0335 8.2345C54.9825 8.2345 54.9381 8.2332 54.899 8.22995C54.899 7.86319 54.8905 7.53472 54.8735 7.24455C54.9949 7.22183 55.1112 7.21015 55.2209 7.21015ZM56.0648 8.38896C56.339 8.21434 56.4761 7.943 56.4761 7.57623C56.4761 7.30749 56.3749 7.10755 56.1725 6.97512C55.9708 6.84335 55.7227 6.77713 55.4295 6.77713C55.31 6.77713 55.1696 6.77973 55.0077 6.78363C54.8458 6.78882 54.7361 6.79077 54.6786 6.79077H54.2758C54.2954 7.19129 54.3058 7.66841 54.3058 8.22083C54.3058 8.82324 54.2954 9.3458 54.2758 9.78917H54.9267C54.9098 9.31659 54.9013 8.93554 54.9013 8.64732C54.932 8.64992 54.9835 8.65122 55.056 8.65122C55.455 8.65122 55.7906 8.56423 56.0648 8.38896ZM59.5079 8.2878C59.5079 7.98119 59.4254 7.73231 59.261 7.54115C59.0966 7.35061 58.8939 7.25503 58.6529 7.25503C58.4281 7.25503 58.2378 7.35123 58.0812 7.54363C57.924 7.73603 57.8454 7.97871 57.8454 8.27228C57.8454 8.57764 57.9286 8.8259 58.0936 9.01768C58.2586 9.20885 58.4613 9.30505 58.701 9.30505C58.9258 9.30505 59.1155 9.20822 59.2727 9.0152C59.4293 8.82218 59.5079 8.58012 59.5079 8.2878ZM60.1436 8.22384C60.1436 8.67444 59.9994 9.04807 59.7103 9.34474C59.4212 9.64142 59.0639 9.78913 58.6383 9.78913C58.233 9.78913 57.8932 9.65321 57.6197 9.38074C57.3462 9.10889 57.2098 8.76257 57.2098 8.34301C57.2098 7.89241 57.354 7.51878 57.6431 7.22211C57.9315 6.92544 58.2888 6.7771 58.7143 6.7771C59.1197 6.7771 59.4601 6.91302 59.733 7.18487C60.0072 7.45609 60.1436 7.80242 60.1436 8.22384ZM62.5717 9.78913H63.078C63.0589 9.31897 63.0491 8.79403 63.0491 8.21367C63.0491 7.63852 63.0589 7.15988 63.078 6.7771H62.5653C62.5844 7.21661 62.5942 7.64569 62.5942 8.06369C62.5942 8.33626 62.6104 8.64535 62.6433 8.98901H62.6121C62.5595 8.77317 62.3526 8.36234 61.9931 7.7559C61.6556 7.18531 61.4868 6.85926 61.4868 6.7771H60.8776C60.8984 7.17227 60.9088 7.65091 60.9088 8.21367C60.9088 8.78621 60.8984 9.31114 60.8776 9.78913H61.3822C61.3631 9.24202 61.3539 8.77773 61.3539 8.39691C61.3539 8.12368 61.3365 7.8185 61.3024 7.48071H61.3348C61.3897 7.71481 61.614 8.15041 62.0076 8.78751C62.3838 9.392 62.5717 9.72588 62.5717 9.78913ZM38.8739 18.8281C38.8739 20.1366 38.4833 21.1796 37.702 21.956C36.8149 22.8808 35.6602 23.3433 34.2383 23.3433C32.8773 23.3433 31.7203 22.8746 30.7683 21.936C29.8147 20.9986 29.339 19.8357 29.339 18.4484C29.339 17.0612 29.8147 15.8988 30.7683 14.9608C31.7203 14.0229 32.8773 13.5542 34.2383 13.5542C34.9139 13.5542 35.5591 13.6843 36.1744 13.9464C36.7885 14.2078 37.2809 14.5578 37.6491 14.9934L36.8195 15.8183C36.1962 15.0767 35.3356 14.7051 34.2383 14.7051C33.2456 14.7051 32.3879 15.0522 31.6634 15.7464C30.939 16.4395 30.577 17.3409 30.577 18.4484C30.577 19.5565 30.939 20.4574 31.6634 21.151C32.3879 21.8447 33.2456 22.1918 34.2383 22.1918C35.2919 22.1918 36.1698 21.8424 36.8724 21.1448C37.3291 20.6909 37.5922 20.0578 37.6623 19.2465H34.2383V18.1213H38.8084C38.8521 18.3656 38.8739 18.6014 38.8739 18.8281ZM42.9071 22.2524C42.3392 22.2524 41.8483 22.0423 41.4335 21.6227C41.0181 21.203 40.8113 20.6469 40.8113 19.9549C40.8113 19.2623 41.0181 18.7067 41.4335 18.2859C41.8483 17.8663 42.3392 17.6568 42.9071 17.6568C43.4745 17.6568 43.9659 17.8663 44.3807 18.2859C44.7955 18.7067 45.0029 19.2623 45.0029 19.9549C45.0029 20.6469 44.7955 21.203 44.3807 21.6227C43.9659 22.0423 43.4745 22.2524 42.9071 22.2524ZM42.9074 16.5662C41.9463 16.5662 41.1567 16.889 40.5368 17.5335C39.9168 18.1785 39.6066 18.9855 39.6066 19.955C39.6066 20.9245 39.9168 21.731 40.5368 22.376C41.1567 23.021 41.9463 23.3433 42.9074 23.3433C43.8679 23.3433 44.6581 23.021 45.2786 22.376C45.898 21.731 46.2077 20.9245 46.2077 19.955C46.2077 18.9855 45.898 18.1785 45.2786 17.5335C44.6581 16.889 43.8679 16.5662 42.9074 16.5662ZM48.0348 21.6226C48.4497 22.0423 48.9405 22.2524 49.5084 22.2524C50.0758 22.2524 50.5672 22.0423 50.982 21.6226C51.3968 21.203 51.6042 20.6469 51.6042 19.9548C51.6042 19.2622 51.3968 18.7067 50.982 18.2859C50.5672 17.8663 50.0758 17.6567 49.5084 17.6567C48.9405 17.6567 48.4497 17.8663 48.0348 18.2859C47.6195 18.7067 47.4126 19.2622 47.4126 19.9548C47.4126 20.6469 47.6195 21.203 48.0348 21.6226ZM47.1381 17.5335C47.758 16.889 48.5477 16.5662 49.5087 16.5662C50.4692 16.5662 51.2594 16.889 51.8799 17.5335C52.4993 18.1785 52.809 18.9855 52.809 19.955C52.809 20.9246 52.4993 21.731 51.8799 22.376C51.2594 23.0211 50.4692 23.3433 49.5087 23.3433C48.5477 23.3433 47.758 23.0211 47.1381 22.376C46.5181 21.731 46.2079 20.9246 46.2079 19.955C46.2079 18.9855 46.5181 18.1785 47.1381 17.5335ZM58.3523 20.9862C57.9456 21.4109 57.4511 21.6233 56.87 21.6233C56.297 21.6233 55.8055 21.4086 55.3946 20.9799C54.9827 20.5505 54.7773 19.9829 54.7773 19.2752C54.7773 18.5682 54.9827 18 55.3946 17.5706C55.8055 17.1419 56.297 16.9278 56.87 16.9278C57.4511 16.9278 57.9456 17.1395 58.3523 17.5643C58.7596 17.989 58.9626 18.5589 58.9626 19.2752C58.9626 19.9916 58.7596 20.5621 58.3523 20.9862ZM54.871 25.0255C55.3632 25.4102 55.9981 25.6023 56.7765 25.6023C57.7151 25.6023 58.5116 25.3125 59.1641 24.7338C59.8166 24.1541 60.1437 23.3075 60.1437 22.1931V16.025H58.9628V16.9277H58.9089C58.6942 16.6088 58.3904 16.3438 57.9972 16.1315C57.6033 15.9197 57.1603 15.8132 56.6688 15.8132C55.8191 15.8132 55.0858 16.1448 54.4684 16.8079C53.8516 17.471 53.5426 18.2938 53.5426 19.2751C53.5426 20.257 53.8516 21.0793 54.4684 21.7424C55.0858 22.406 55.8191 22.7376 56.6688 22.7376C57.1603 22.7376 57.6033 22.6311 57.9972 22.4188C58.3904 22.207 58.6942 21.9414 58.9089 21.6232H58.9628V22.2463C58.9628 22.9366 58.7685 23.4823 58.3793 23.8844C57.9902 24.2871 57.4559 24.4879 56.7765 24.4879C56.3463 24.4879 55.9642 24.3687 55.6294 24.1297C55.2941 23.8914 55.0636 23.5945 54.9383 23.2416L53.8112 23.7056C54.026 24.2003 54.3789 24.6407 54.871 25.0255ZM60.8776 23.3433H62.3445V20.0455C62.3637 20.9826 62.6819 21.7622 63.2998 22.3823C63.9363 23.0233 64.7641 23.3433 65.7821 23.3433C66.5152 23.3433 67.1343 23.1762 67.6382 22.8432C68.1421 22.5102 68.505 22.0968 68.7246 21.6036L67.5974 21.1619C67.2765 21.889 66.6616 22.2526 65.7546 22.2526C65.1949 22.2526 64.7072 22.0663 64.2896 21.6942C63.8727 21.3227 63.6454 20.8158 63.6094 20.1753H68.9315L68.9447 19.955C68.9447 18.9249 68.6442 18.1026 68.0437 17.4882C67.4432 16.8737 66.6436 16.5662 65.6442 16.5662C64.682 16.5662 63.8907 16.8998 63.2722 17.5658C62.6726 18.2119 62.3634 18.9786 62.3445 19.868V13.5542H60.8776V23.3433ZM67.0675 18.15C67.3926 18.479 67.5696 18.8245 67.5972 19.1886H63.6914C63.8197 18.7214 64.0561 18.3493 64.3998 18.0719C64.7436 17.7949 65.1491 17.6567 65.6164 17.6567C66.2583 17.6567 66.7418 17.821 67.0675 18.15ZM73.7651 18.1753H75.6958C76.1804 18.1753 76.5693 17.9969 76.8619 17.6415C77.1545 17.2866 77.3011 16.8948 77.3011 16.466C77.3011 16.0378 77.1545 15.646 76.8619 15.2905C76.5693 14.9345 76.1804 14.7574 75.6958 14.7574H73.7651V18.1753ZM73.7654 23.343H72.6119V13.5539H75.671C76.4318 13.5539 77.0898 13.8301 77.646 14.3811C78.2017 14.9328 78.4796 15.6282 78.4796 16.4661C78.4796 17.3046 78.2017 18 77.646 18.5511C77.0898 19.1027 76.4318 19.3783 75.671 19.3783H73.7654V23.343ZM80.6803 23.3433H79.2134V13.5542H80.6803V23.3433ZM84.0782 22.2522C84.5895 22.2522 85.0538 22.0682 85.4712 21.7001C85.8886 21.3326 86.0965 20.8976 86.0965 20.3959C85.7472 20.1184 85.2223 19.9802 84.5226 19.9802C83.9208 19.9802 83.4682 20.1059 83.1629 20.3562C82.8582 20.6082 82.7056 20.9016 82.7056 21.2397C82.7056 21.5511 82.8442 21.7975 83.123 21.9798C83.4007 22.1611 83.7195 22.2522 84.0782 22.2522ZM83.8756 23.3431C83.1759 23.3431 82.5906 23.1477 82.1197 22.7587C81.6483 22.369 81.4129 21.8542 81.4129 21.2138C81.4129 20.5211 81.6912 19.9781 82.2477 19.5845C82.8037 19.1909 83.4899 18.9938 84.3065 18.9938C85.0333 18.9938 85.6304 19.1235 86.0959 19.3834V19.2011C86.0959 18.7339 85.9303 18.3595 85.5987 18.0786C85.2664 17.7972 84.8584 17.6567 84.374 17.6567C84.0154 17.6567 83.6895 17.7389 83.3984 17.9031C83.1066 18.0673 82.907 18.2927 82.799 18.5781L81.6683 18.1109C81.8209 17.7304 82.1215 17.3775 82.5706 17.0525C83.0185 16.728 83.6109 16.566 84.347 16.566C85.1907 16.566 85.8898 16.8044 86.4464 17.2801C87.0023 17.7564 87.2806 18.4269 87.2806 19.2922V23.1353H86.0959V22.2524H86.0431C85.5493 22.9789 84.8267 23.3431 83.8756 23.3431ZM88.4673 25.6023H89.7474L93.8831 15.8132H92.536L90.6231 20.6948H90.596L88.629 15.8132H87.2819L90.0036 22.1778L88.4673 25.6023ZM6.60761 17.9816L6.60764 16.4257V16.4256V16.4256V16.4256C6.60772 13.8325 6.6078 11.2398 6.60585 8.64665C6.60526 8.26442 6.67915 7.91602 6.94599 7.62757C7.05037 7.51539 7.12485 7.48512 7.2527 7.61689C9.11417 9.5398 10.9799 11.4584 12.8456 13.377L13.4679 14.0168L14.0645 14.6302C15.2084 15.8065 16.3523 16.9827 17.5009 18.1537C17.6317 18.2872 17.6428 18.3573 17.5044 18.4967C14.2074 21.8145 10.9133 25.1359 7.62685 28.4661C7.42629 28.6691 7.28495 28.6478 7.0926 28.4976C6.74132 28.224 6.60585 27.8566 6.60585 27.4192C6.60624 26.1909 6.60507 24.9626 6.60389 23.7344L6.60389 23.7332C6.60331 23.119 6.60272 22.5047 6.60233 21.8905C6.60155 21.022 6.60181 20.1532 6.60207 19.2844L6.60233 17.9816H6.60761ZM8.65946 7.69811C8.49112 7.60172 8.31641 7.5278 8.06824 7.53017C8.08988 7.55726 8.10655 7.57891 8.12043 7.59695C8.14291 7.62617 8.15809 7.64589 8.17526 7.66381C9.06634 8.59091 9.95759 9.51787 10.8488 10.4449C13.2661 12.959 15.6834 15.4732 18.0977 17.9903C18.2307 18.1292 18.2921 18.0707 18.391 17.9684L18.4865 17.8707L18.4871 17.8701L18.4874 17.8698C19.3768 16.9607 20.2659 16.0518 21.1632 15.1501C21.3107 15.0017 21.3141 14.9408 21.1232 14.8314C17.8468 12.9603 14.5726 11.0849 11.2982 9.20941L11.2965 9.20844L11.2958 9.20802L8.65946 7.69811ZM8.80253 28.6144L10.3626 26.9276L10.3639 26.9263C12.8167 24.2744 15.2694 21.6227 17.7159 18.9639C17.9002 18.7643 17.9863 18.7912 18.1511 18.9749C18.9041 19.814 19.669 20.6422 20.4368 21.4661C20.572 21.6113 20.5829 21.6705 20.3997 21.778C17.3671 23.554 14.3363 25.3343 11.3056 27.1145L8.95654 28.4942C8.91604 28.518 8.87765 28.5513 8.84672 28.5781C8.8293 28.5932 8.81424 28.6063 8.80253 28.6144ZM25.2621 18.7245C25.501 18.5439 25.6589 18.3028 25.6714 17.9596C25.6567 17.5332 25.3832 17.2724 25.0328 17.0703C24.7378 16.9008 24.4426 16.7316 24.1475 16.5623C23.3074 16.0806 22.4672 15.5988 21.6301 15.1122C21.4902 15.0309 21.4104 15.0437 21.2978 15.1593C20.346 16.1409 19.3892 17.1185 18.4278 18.0903C18.305 18.2146 18.3078 18.2825 18.4284 18.4062C19.2533 19.256 20.0743 20.1116 20.8878 20.9736C21.0152 21.1089 21.107 21.113 21.2615 21.0247C21.9866 20.6096 22.7142 20.1988 23.4416 19.788C23.8605 19.5515 24.2793 19.315 24.6976 19.0777L24.7135 19.0687C24.9013 18.9619 25.0903 18.8545 25.2621 18.7245Z" fill="white"/>
</svg>
