<svg width="98" height="34" viewBox="0 0 98 34" fill="none" xmlns="http://www.w3.org/2000/svg">
  <path fill-rule="evenodd" clip-rule="evenodd" d="M 1.142 4.583 C 1.142 2.711 2.608 1.186 4.41 1.186 L 93.589 1.186 C 95.391 1.186 96.858 2.711 96.858 4.583 L 96.858 29.422 C 96.858 31.291 95.391 32.813 93.589 32.813 L 4.41 32.813 C 2.608 32.813 1.142 31.291 1.142 29.422 L 1.142 4.583 Z M 4.41 34 L 93.589 34 C 96.021 34 98 31.946 98 29.422 L 98 4.583 C 98 2.056 96.021 0 93.589 0 L 4.41 0 C 1.979 0 0 2.056 0 4.583 L 0 29.422 C 0 31.946 1.979 34 4.41 34 Z M 84.726 9.989 C 84.766 9.566 85.025 8.98 85.637 8.98 C 86.299 8.98 86.461 9.608 86.452 9.989 L 84.726 9.989 Z M 47.631 11.84 C 47.318 11.84 47.066 11.653 47.066 11.246 C 47.066 10.618 47.736 10.465 48.438 10.474 L 48.438 11.042 C 48.438 11.118 48.438 11.195 48.413 11.271 C 48.316 11.569 48.034 11.84 47.631 11.84 Z M 65.166 10.43 C 65.166 9.744 65.449 9.023 66.15 9.023 C 66.828 9.023 67.102 9.769 67.102 10.414 C 67.102 11.255 66.707 11.832 66.142 11.832 C 65.546 11.832 65.166 11.229 65.166 10.43 Z M 58.576 9.989 C 58.617 9.566 58.875 8.98 59.487 8.98 C 60.149 8.98 60.31 9.608 60.302 9.989 L 58.576 9.989 Z M 51.471 9.845 C 51.575 9.387 51.947 9.081 52.349 9.081 C 53.011 9.081 53.341 9.676 53.341 10.406 C 53.341 11.246 52.962 11.764 52.341 11.764 C 51.914 11.764 51.567 11.458 51.462 11.033 C 51.446 10.957 51.437 10.872 51.437 10.788 L 51.437 10.117 C 51.437 10.015 51.454 9.922 51.471 9.845 Z M 82.28 22.578 L 87.363 22.578 C 87.403 22.354 87.424 22.084 87.424 21.767 C 87.424 20.766 87.199 19.923 86.749 19.238 C 86.187 18.381 85.357 17.953 84.256 17.953 C 83.139 17.953 82.25 18.381 81.589 19.238 C 80.962 20.046 80.647 21.05 80.647 22.263 C 80.647 23.494 80.987 24.477 81.661 25.208 C 82.335 25.939 83.263 26.304 84.442 26.304 C 85.428 26.304 86.282 26.142 87.001 25.809 L 86.734 24.57 C 86.117 24.826 85.434 24.952 84.679 24.952 C 83.999 24.952 83.445 24.765 83.018 24.39 C 82.545 23.972 82.3 23.369 82.28 22.578 Z M 80.371 12.493 L 80.371 10.015 C 80.371 9.905 80.379 9.795 80.412 9.702 C 80.524 9.387 80.798 9.116 81.185 9.116 C 81.734 9.116 81.943 9.574 81.943 10.168 L 81.943 12.493 L 82.935 12.493 L 82.935 10.057 C 82.935 8.733 82.234 8.267 81.565 8.267 C 81.314 8.267 81.08 8.335 80.878 8.454 C 80.678 8.564 80.508 8.726 80.387 8.921 L 80.371 8.921 L 80.371 6.468 L 79.38 6.468 L 79.38 12.493 L 80.371 12.493 Z M 79.581 19.656 C 79.767 19.656 79.947 19.67 80.113 19.7 L 80.113 18.002 C 79.991 17.981 79.848 17.973 79.693 17.973 C 79.254 17.973 78.845 18.112 78.468 18.401 C 78.08 18.718 77.798 19.143 77.621 19.67 L 77.575 19.67 L 77.511 18.133 L 76.038 18.133 C 76.068 18.895 76.083 19.738 76.083 20.657 L 76.083 26.157 L 77.776 26.157 L 77.776 21.948 C 77.776 21.304 77.917 20.783 78.2 20.365 C 78.526 19.892 78.984 19.656 79.581 19.656 Z M 76.321 8.36 L 75.764 8.36 L 75.764 9.141 L 76.321 9.141 L 76.321 11.084 C 76.321 11.628 76.418 12.009 76.636 12.247 C 76.821 12.459 77.12 12.586 77.491 12.586 C 77.797 12.586 78.063 12.535 78.209 12.476 L 78.193 11.686 C 78.08 11.721 77.982 11.73 77.805 11.73 C 77.426 11.73 77.297 11.475 77.297 10.965 L 77.297 9.141 L 78.241 9.141 L 78.241 8.36 L 77.297 8.36 L 77.297 7.299 L 76.321 7.589 L 76.321 8.36 Z M 71.225 26.338 C 72.382 26.338 73.312 25.931 74.016 25.12 C 74.685 24.324 75.017 23.317 75.017 22.08 C 75.017 20.882 74.693 19.899 74.046 19.144 C 73.366 18.359 72.469 17.972 71.346 17.972 C 70.185 17.972 69.265 18.363 68.578 19.158 C 67.894 19.949 67.551 20.969 67.551 22.211 C 67.551 23.398 67.883 24.387 68.546 25.166 C 69.209 25.948 70.104 26.338 71.225 26.338 Z M 64.142 10.457 C 64.142 11.789 65.006 12.586 66.11 12.586 C 67.11 12.586 68.126 11.908 68.126 10.388 C 68.126 9.133 67.343 8.267 66.175 8.267 C 64.99 8.267 64.142 9.099 64.142 10.457 Z M 65.196 19.469 L 67.066 19.469 L 67.066 18.133 L 65.196 18.133 L 65.196 16.137 L 63.535 16.665 L 63.535 18.133 L 62.422 18.133 L 62.422 19.469 L 63.535 19.469 L 63.535 23.516 C 63.535 24.529 63.723 25.251 64.102 25.677 C 64.478 26.11 65.004 26.321 65.67 26.321 C 66.214 26.321 66.651 26.255 66.987 26.123 L 66.939 24.772 C 66.739 24.826 66.49 24.85 66.187 24.85 C 65.528 24.85 65.196 24.359 65.196 23.369 L 65.196 19.469 Z M 58.213 26.32 C 59.443 26.32 60.402 25.997 61.094 25.347 C 61.717 24.756 62.031 23.983 62.031 23.036 C 62.031 22.267 61.816 21.624 61.389 21.107 C 60.958 20.588 60.291 20.134 59.378 19.751 C 58.638 19.445 58.126 19.159 57.843 18.896 C 57.519 18.607 57.356 18.241 57.356 17.805 C 57.356 17.41 57.498 17.073 57.78 16.795 C 58.117 16.494 58.585 16.334 59.182 16.334 C 59.938 16.334 60.615 16.506 61.211 16.847 L 61.638 15.393 C 61 15.044 60.199 14.866 59.238 14.866 C 58.159 14.866 57.294 15.159 56.641 15.741 C 55.986 16.324 55.663 17.073 55.663 17.987 C 55.663 19.385 56.59 20.447 58.438 21.171 C 59.119 21.437 59.6 21.721 59.897 22.029 C 60.188 22.339 60.334 22.719 60.334 23.165 C 60.334 23.677 60.156 24.081 59.802 24.382 C 59.446 24.683 58.952 24.835 58.31 24.835 C 57.423 24.835 56.609 24.603 55.867 24.143 L 55.473 25.628 C 56.161 26.088 57.073 26.32 58.213 26.32 Z M 51.325 11.874 C 51.607 12.383 52.059 12.587 52.567 12.587 C 53.454 12.587 54.349 11.849 54.349 10.363 C 54.357 9.108 53.672 8.267 52.712 8.267 C 52.124 8.267 51.696 8.53 51.454 8.929 L 51.438 8.929 L 51.438 6.468 L 50.447 6.468 L 50.447 11.331 C 50.447 11.755 50.431 12.212 50.414 12.493 L 51.261 12.493 L 51.309 11.874 L 51.325 11.874 Z M 49.054 26.338 C 49.991 26.338 50.773 25.986 51.404 25.284 C 52.111 24.491 52.462 23.417 52.462 22.047 C 52.462 20.828 52.163 19.841 51.56 19.093 C 50.959 18.343 50.209 17.972 49.309 17.972 C 48.159 17.972 47.304 18.45 46.735 19.404 L 46.707 19.404 L 46.609 18.133 L 45.123 18.133 C 45.163 19.034 45.185 19.912 45.185 20.77 L 45.185 29.411 L 46.879 29.411 L 46.879 25.198 C 47.32 25.96 48.045 26.338 49.054 26.338 Z M 44.791 12.493 L 43.8 12.493 L 43.8 6.469 L 44.791 6.469 L 44.791 12.493 Z M 40.68 26.338 C 41.615 26.338 42.399 25.986 43.03 25.284 C 43.736 24.491 44.088 23.417 44.088 22.047 C 44.088 20.828 43.786 19.841 43.187 19.093 C 42.582 18.343 41.834 17.972 40.935 17.972 C 39.783 17.972 38.926 18.45 38.36 19.404 L 38.33 19.404 L 38.236 18.133 L 36.746 18.133 C 36.789 19.034 36.811 19.912 36.811 20.77 L 36.811 29.411 L 38.504 29.411 L 38.504 25.198 C 38.944 25.96 39.668 26.338 40.68 26.338 Z M 38.726 9.795 C 37.275 9.786 36.396 10.32 36.396 11.355 C 36.396 11.984 36.839 12.586 37.629 12.586 C 38.144 12.586 38.557 12.358 38.79 12.035 L 38.814 12.035 L 38.886 12.493 L 39.782 12.493 C 39.734 12.239 39.718 11.874 39.718 11.501 L 39.718 10.015 C 39.718 9.108 39.355 8.267 38.096 8.267 C 37.476 8.267 36.967 8.446 36.678 8.633 L 36.871 9.311 C 37.138 9.133 37.54 9.005 37.927 9.005 C 38.621 9.005 38.726 9.455 38.726 9.726 L 38.726 9.795 Z M 33.379 12.493 L 34.355 12.493 L 35.855 8.36 L 34.815 8.36 L 34.186 10.457 C 34.081 10.829 33.992 11.152 33.92 11.492 L 33.896 11.492 C 33.823 11.152 33.743 10.821 33.629 10.457 L 32.993 8.36 L 31.92 8.36 L 33.379 12.493 Z M 32.983 22.89 L 33.971 26.157 L 35.775 26.157 L 32.355 15.031 L 30.251 15.031 L 26.85 26.157 L 28.605 26.157 L 29.547 22.89 L 32.983 22.89 Z M 20.263 27.563 C 21.22 27.563 21.999 26.747 21.999 25.738 L 21.999 8.323 C 21.999 7.315 21.22 6.496 20.263 6.496 L 12.815 6.496 C 11.857 6.496 11.077 7.315 11.077 8.323 L 11.077 25.738 C 11.077 26.747 11.857 27.563 12.815 27.563 L 20.263 27.563 Z M 29.87 6.773 L 28.604 6.773 L 26.863 12.493 L 27.886 12.493 L 28.354 10.872 L 30.071 10.872 L 30.564 12.493 L 31.636 12.493 L 29.87 6.773 Z M 42.243 12.493 L 41.252 12.493 L 41.252 8.36 L 42.243 8.36 L 42.243 12.493 Z M 42.308 7.207 C 42.3 6.885 42.09 6.638 41.752 6.638 C 41.421 6.638 41.195 6.885 41.195 7.207 C 41.195 7.511 41.412 7.766 41.743 7.766 C 42.09 7.766 42.308 7.511 42.308 7.207 Z M 46.56 9.311 C 46.825 9.133 47.228 9.005 47.615 9.005 C 48.308 9.005 48.413 9.455 48.413 9.726 L 48.413 9.795 C 46.962 9.786 46.083 10.32 46.083 11.355 C 46.083 11.984 46.527 12.586 47.318 12.586 C 47.833 12.586 48.244 12.358 48.479 12.035 L 48.503 12.035 L 48.575 12.493 L 49.469 12.493 C 49.421 12.239 49.405 11.874 49.405 11.501 L 49.405 10.015 C 49.405 9.108 49.043 8.267 47.784 8.267 C 47.163 8.267 46.656 8.446 46.366 8.633 L 46.56 9.311 Z M 56.471 12.493 L 55.48 12.493 L 55.48 6.468 L 56.471 6.468 L 56.471 12.493 Z M 61.238 10.279 C 61.238 9.371 60.818 8.267 59.544 8.267 C 58.287 8.267 57.626 9.344 57.626 10.491 C 57.626 11.755 58.375 12.578 59.649 12.578 C 60.214 12.578 60.681 12.467 61.02 12.315 L 60.874 11.602 C 60.568 11.713 60.246 11.789 59.786 11.789 C 59.149 11.789 58.6 11.466 58.576 10.72 L 61.206 10.72 C 61.222 10.627 61.238 10.474 61.238 10.279 Z M 70.006 8.98 L 69.958 8.36 L 69.096 8.36 C 69.112 8.717 69.128 9.116 69.128 9.591 L 69.128 12.493 L 70.12 12.493 L 70.12 10.057 C 70.12 9.939 70.135 9.812 70.168 9.726 C 70.273 9.413 70.547 9.116 70.941 9.116 C 71.482 9.116 71.692 9.566 71.692 10.159 L 71.692 12.493 L 72.684 12.493 L 72.684 10.04 C 72.684 8.733 71.974 8.267 71.289 8.267 C 70.635 8.267 70.208 8.658 70.031 8.98 L 70.006 8.98 Z M 87.388 10.279 C 87.388 9.371 86.967 8.267 85.694 8.267 C 84.436 8.267 83.776 9.344 83.776 10.491 C 83.776 11.755 84.525 12.578 85.798 12.578 C 86.364 12.578 86.831 12.467 87.169 12.315 L 87.024 11.602 C 86.718 11.713 86.395 11.789 85.936 11.789 C 85.299 11.789 84.75 11.466 84.726 10.72 L 87.355 10.72 C 87.372 10.627 87.388 10.474 87.388 10.279 Z M 29.259 7.812 C 29.326 8.091 29.399 8.397 29.483 8.674 L 29.91 10.083 L 28.515 10.083 L 28.934 8.674 C 28.992 8.453 29.049 8.207 29.106 7.97 C 29.135 7.844 29.164 7.721 29.192 7.606 L 29.209 7.606 C 29.225 7.672 29.242 7.741 29.259 7.812 Z M 38.75 11.042 C 38.75 11.118 38.75 11.195 38.726 11.271 C 38.629 11.569 38.347 11.84 37.944 11.84 C 37.629 11.84 37.38 11.653 37.38 11.246 C 37.38 10.618 38.048 10.465 38.75 10.474 L 38.75 11.042 Z M 82.782 19.919 C 83.128 19.437 83.577 19.189 84.13 19.189 C 84.735 19.189 85.186 19.44 85.481 19.933 C 85.71 20.321 85.817 20.776 85.808 21.302 L 82.28 21.302 C 82.331 20.766 82.499 20.302 82.782 19.919 Z M 31.226 16.518 L 31.256 16.518 C 31.517 17.615 31.696 18.315 31.792 18.614 L 32.683 21.519 L 29.844 21.519 L 30.723 18.614 C 30.954 17.688 31.119 16.99 31.226 16.518 Z M 47.624 19.823 C 47.966 19.532 48.34 19.387 48.761 19.387 C 49.376 19.387 49.868 19.656 50.237 20.182 C 50.57 20.687 50.74 21.332 50.74 22.11 C 50.74 22.961 50.56 23.643 50.204 24.16 C 49.848 24.678 49.352 24.935 48.711 24.935 C 48.169 24.935 47.727 24.733 47.388 24.336 C 47.046 23.933 46.879 23.44 46.879 22.856 L 46.879 21.52 C 46.879 21.376 46.904 21.196 46.956 20.975 C 47.061 20.502 47.284 20.119 47.624 19.823 Z M 69.733 20.23 C 70.087 19.593 70.605 19.276 71.283 19.276 C 71.943 19.276 72.448 19.593 72.808 20.23 C 73.11 20.755 73.26 21.387 73.26 22.122 C 73.26 22.856 73.104 23.494 72.787 24.026 C 72.424 24.678 71.915 25 71.271 25 C 70.608 25 70.096 24.682 69.733 24.046 C 69.427 23.52 69.277 22.89 69.277 22.153 C 69.277 21.394 69.427 20.755 69.733 20.23 Z M 39.248 19.823 C 39.589 19.532 39.966 19.387 40.383 19.387 C 41.001 19.387 41.492 19.656 41.86 20.182 C 42.195 20.687 42.36 21.332 42.36 22.11 C 42.36 22.961 42.184 23.643 41.829 24.16 C 41.473 24.678 40.973 24.935 40.336 24.935 C 39.794 24.935 39.352 24.733 39.012 24.336 C 38.67 23.933 38.504 23.44 38.504 22.856 L 38.504 21.52 C 38.504 21.376 38.53 21.196 38.581 20.975 C 38.686 20.502 38.907 20.119 39.248 19.823 Z M 20.944 23.891 L 12.134 23.891 L 12.134 10.175 L 20.944 10.175 L 20.944 23.891 Z M 15.642 25.648 C 15.642 25.126 16.044 24.7 16.539 24.7 C 17.034 24.7 17.436 25.126 17.436 25.648 C 17.436 26.168 17.034 26.592 16.539 26.592 C 16.044 26.592 15.642 26.168 15.642 25.648 Z M 17.401 8.777 L 15.675 8.777 C 15.565 8.777 15.471 8.678 15.471 8.564 C 15.471 8.444 15.565 8.347 15.675 8.347 L 17.401 8.347 C 17.514 8.347 17.606 8.444 17.606 8.564 C 17.606 8.678 17.514 8.777 17.401 8.777 Z" fill="white"></path>
</svg>