<svg width="31" height="31" viewBox="0 0 31 31" fill="none" xmlns="http://www.w3.org/2000/svg">
<path fill-rule="evenodd" clip-rule="evenodd" d="M0.611328 30.821H6.97128V10.2734H0.611328V30.821Z" fill="white"/>
<path fill-rule="evenodd" clip-rule="evenodd" d="M3.76174 7.58303C5.83854 7.58303 7.52268 5.88521 7.52268 3.79151C7.52268 1.69781 5.83854 0 3.76174 0C1.68413 0 0 1.69781 0 3.79151C0 5.88521 1.68413 7.58303 3.76174 7.58303Z" fill="white"/>
<path fill-rule="evenodd" clip-rule="evenodd" d="M17.1399 20.0343C17.1399 17.1448 18.4692 15.4245 21.0143 15.4245C23.3542 15.4245 24.4775 17.0757 24.4775 20.0343V30.8199H30.8069V17.8095C30.8069 12.3065 27.6881 9.64551 23.3309 9.64551C18.9737 9.64551 17.1399 13.0403 17.1399 13.0403V10.2723H11.0391V30.8199H17.1399V20.0343Z" fill="white"/>
</svg>
