<svg width="102" height="28" viewBox="0 0 102 28" fill="none" xmlns="http://www.w3.org/2000/svg">
<path d="M20.4938 16.1711C19.6283 17.1943 18.8865 18.1005 18.1119 18.9785C17.0702 20.1581 15.7997 20.8036 14.1625 20.5866C12.9488 20.4245 11.9753 19.8566 11.2136 18.9377C10.4987 18.0766 9.82937 17.1774 9.04346 16.174C9.01931 16.5249 8.99514 16.7208 8.99514 16.9181C8.9923 19.0546 9.03636 21.194 8.97099 23.3291C8.94825 24.0831 8.77913 24.8836 8.46647 25.5672C7.90511 26.7919 6.75823 27.2696 5.47065 27.3852C4.88656 27.4374 4.27688 27.4402 3.7013 27.3387C1.35212 26.9201 0.152653 25.5249 0.144126 23.1488C0.12423 17.1605 0.127072 11.1708 0.144126 5.18258C0.14981 3.07985 1.13041 1.52677 2.88698 0.90807C4.42752 0.365477 6.6687 0.492317 8.08276 2.12855C10.0354 4.39053 12.0549 6.59614 14.046 8.82429C14.279 9.08502 14.5121 9.34434 14.7949 9.66144C16.2616 7.99701 17.687 6.37628 19.1167 4.75837C19.9722 3.79016 20.8008 2.79235 21.7018 1.86642C23.1315 0.399301 24.925 0.328834 26.7014 0.951759C28.5006 1.58173 29.3107 3.07844 29.3377 4.91621C29.386 8.22674 29.3519 11.5387 29.3533 14.8506C29.3533 17.5509 29.3533 20.2526 29.3533 22.9529C29.3533 25.8265 27.7702 27.388 24.8781 27.4007C23.6914 27.4063 22.5516 27.2809 21.6648 26.3973C20.7922 25.5277 20.5421 24.4157 20.5379 23.2361C20.5307 21.0756 20.5364 18.9151 20.535 16.7546C20.535 16.6193 20.5165 16.4826 20.4938 16.1726V16.1711Z" fill="#FAFAFA"/>
<path d="M52.8939 0.550077C55.1948 0.50216 56.7722 1.49151 57.723 3.51813C59.9443 8.25208 62.194 12.9719 64.4153 17.7059C65.042 19.0405 65.7185 20.3667 66.1846 21.7577C66.7289 23.3799 66.5158 24.94 65.2367 26.2493C63.7743 27.7446 60.0722 28.1758 58.4677 25.6207C57.7557 24.4876 57.0508 23.3418 56.2422 22.2778C54.4842 19.9622 51.7129 19.8875 49.8412 22.1086C49.1179 22.9683 48.5266 23.9408 47.8985 24.8752C47.1538 25.9829 46.3608 27.0329 44.9396 27.3204C43.2911 27.653 41.7647 27.3753 40.5411 26.1802C39.3473 25.0147 39.0972 23.5236 39.6287 22.0199C40.1887 20.4358 40.9419 18.9151 41.6653 17.393C43.689 13.1368 45.7412 8.89333 47.782 4.6456C48.0662 4.05368 48.3149 3.44062 48.6489 2.8783C49.6096 1.26602 51.0393 0.466927 52.8925 0.551487L52.8939 0.550077Z" fill="#FAFAFA"/>
<path d="M89.1961 20.7373C87.8645 22.2565 86.5869 23.7011 85.3263 25.1612C84.4665 26.1562 83.537 27.0173 82.194 27.3442C79.7553 27.9375 77.0011 26.0941 76.7026 23.6264C76.5094 22.0296 76.9002 20.6118 78.0158 19.4026C79.6288 17.6551 81.2177 15.8863 82.8719 14.0669C82.6985 13.847 82.5422 13.6244 82.3603 13.4228C80.8667 11.757 79.3531 10.1067 77.8751 8.42674C76.6458 7.0301 76.1114 5.415 76.7126 3.6026C77.7273 0.544345 81.7989 -0.497152 84.1368 1.73946C85.4442 2.98954 86.5869 4.40874 87.8005 5.75465C88.2553 6.25919 88.703 6.77078 89.2032 7.33592C90.3231 6.07457 91.3804 4.81885 92.5089 3.62937C93.3459 2.74713 94.1801 1.80711 95.1863 1.15036C96.7723 0.114499 98.7066 0.396365 100.183 1.62671C101.722 2.90921 102.21 4.64973 101.638 6.48468C101.182 7.94898 100.052 8.90451 99.1045 9.99815C97.9192 11.3652 96.6942 12.6998 95.4507 14.088C96.8917 15.6862 98.283 17.2759 99.7298 18.8163C100.864 20.0227 101.709 21.3137 101.647 23.0486C101.582 24.8737 100.685 26.1576 99.0832 26.9581C97.4517 27.7727 95.8145 27.6684 94.453 26.4704C93.2578 25.4177 92.2388 24.1662 91.1602 22.988C90.5107 22.2791 89.8953 21.5406 89.1961 20.7387V20.7373Z" fill="#FAFAFA"/>
</svg>
