<svg width="103" height="77" viewBox="0 0 103 77" fill="none" xmlns="http://www.w3.org/2000/svg">
<path d="M9.14446 61.7568H4.43555V63.6461H9.14446V61.7568Z" fill="white"/>
<path d="M9.14446 57.9812H4.43555V59.8705H9.14446V57.9812Z" fill="white"/>
<path d="M9.14446 54.2046H4.43555V56.0939H9.14446V54.2046Z" fill="white"/>
<path d="M9.14446 65.5349H4.43555V67.4216H9.14446V65.5349Z" fill="white"/>
<path d="M21.1447 41.2119L18.4084 55.9901H24.5923L21.8561 41.2119H21.1447Z" fill="white"/>
<path d="M38.3254 49.2326C38.3254 50.744 39.5554 51.9714 41.0643 51.9714C42.5731 51.9714 43.8005 50.744 43.8005 49.2326V46.4963H41.0643C39.5528 46.4963 38.3254 47.7237 38.3254 49.2326Z" fill="white"/>
<path d="M9.14446 35.3196H4.43555V37.2089H9.14446V35.3196Z" fill="white"/>
<path d="M9.14446 31.5437H4.43555V33.433H9.14446V31.5437Z" fill="white"/>
<path d="M9.14446 46.6499H4.43555V48.5392H9.14446V46.6499Z" fill="white"/>
<path d="M9.14446 50.4287H4.43555V52.318H9.14446V50.4287Z" fill="white"/>
<path d="M9.14446 39.0984H4.43555V40.9877H9.14446V39.0984Z" fill="white"/>
<path d="M9.14446 42.874H4.43555V44.7633H9.14446V42.874Z" fill="white"/>
<path d="M96.5211 34.7256C96.5211 34.7256 90.6447 29.9541 89.9933 29.5163C87.6636 27.9528 84.8726 27.0407 81.8706 27.0407C78.3917 27.0407 75.1916 28.2681 72.6795 30.3086L65.0024 25.2531V18.5193L57.3071 13.3909H53.8881C47.1961 13.3909 41.7523 18.8347 41.7523 25.5267V37.0996H41.067C37.9633 37.0996 35.1307 38.2723 32.9834 40.1928L31.5475 32.7946L23.8522 27.6635H19.1589L18.4188 31.4734L12.7066 27.6635H0.875732V71.305L8.43292 75.5396H18.9869V66.1765H102.88V46.7676C102.88 41.7746 100.357 37.3602 96.5211 34.7256ZM10.648 69.2515H2.9266V29.7144H10.648V69.2515ZM20.7251 29.5685H22.2756L23.2085 34.3816H19.7896L20.7225 29.5685H20.7251ZM15.0572 58.7523L19.4247 36.2683H23.5786L27.9461 58.7523H15.0598H15.0572ZM55.251 22.7852H53.8881C52.3767 22.7852 51.1493 24.0126 51.1493 25.5241V49.2354C51.1493 54.7991 46.6254 59.323 41.0644 59.323C35.5033 59.323 30.9794 54.7991 30.9794 49.2354C30.9794 43.6718 35.5033 39.1531 41.0644 39.1531H41.9139V41.8815H41.0644C37.0095 41.8815 33.7078 45.1806 33.7078 49.2354C33.7078 53.2902 37.0095 56.5919 41.0644 56.5919C45.1192 56.5919 48.4183 53.2928 48.4183 49.2354V25.5241C48.4183 22.509 50.8705 20.0568 53.8881 20.0568H55.251V22.7852ZM55.251 18.1675H53.8881C49.8307 18.1675 46.5316 21.4666 46.5316 25.5215V49.2328C46.5316 52.2505 44.0794 54.7026 41.0644 54.7026C38.0493 54.7026 35.5971 52.2505 35.5971 49.2328C35.5971 46.2151 38.0493 43.7656 41.0644 43.7656H43.8006V25.5215C43.8006 19.9604 48.3245 15.4365 53.8881 15.4365H55.251V18.1649V18.1675ZM63.7151 58.6089H56.369V54.8538H63.7151V58.6089ZM63.7151 53.0948H56.369V51.3931H63.7151V53.0948ZM63.7151 49.6315H56.369V42.9265H63.7151V49.6315ZM63.7151 41.1648H56.369V39.4632H63.7151V41.1648ZM63.7151 37.7016H56.369V33.7562C57.5625 34.1288 58.8029 34.3191 60.0564 34.3191C61.3098 34.3191 62.5346 34.1314 63.7151 33.7614V37.7016ZM60.059 32.8337C58.8029 32.8337 57.5625 32.6409 56.369 32.2604L57.5521 29.4564H58.9436L58.4746 30.9757C58.4746 30.9757 58.9123 31.2258 60.0407 31.2258C61.1691 31.2258 61.5391 30.9861 61.5391 30.9861L61.1378 29.459H62.5294L63.7125 32.2682C62.532 32.6461 61.302 32.8363 60.0564 32.8363L60.059 32.8337ZM89.7952 58.6089H87.0668V50.8719C87.0668 48.0054 84.7345 45.6731 81.8706 45.6731C79.0067 45.6731 76.6691 48.0054 76.6691 50.8719V58.6089H73.9407V50.8719C73.9407 46.4992 77.4978 42.9447 81.8706 42.9447C86.2433 42.9447 89.7952 46.5018 89.7952 50.8719V58.6089ZM81.8706 38.327C85.7456 38.327 89.0525 41.1831 89.6858 44.9434C87.8303 42.4965 84.956 41.058 81.8706 41.058C78.7852 41.058 75.9082 42.4991 74.0502 44.946C74.6808 41.1831 77.993 38.327 81.8706 38.327ZM74.0502 40.3257C74.6808 36.5628 77.993 33.7093 81.8706 33.7093C85.7482 33.7093 89.0525 36.5654 89.6858 40.3257C87.8303 37.8788 84.956 36.4377 81.8706 36.4377C78.7852 36.4377 75.9082 37.8788 74.0502 40.3257ZM94.4129 58.6089H91.6819V41.6365C91.6819 36.224 87.2805 31.82 81.8706 31.82C76.4607 31.82 72.0514 36.2214 72.0514 41.6365V58.6089H69.323V41.6365C69.323 34.7178 74.9518 29.0916 81.8706 29.0916C88.7893 29.0916 94.4129 34.7178 94.4129 41.6365V58.6089Z" fill="white"/>
<path d="M15.4167 3.82211L15.4192 3.81731L15.4216 3.8125L15.4167 3.82211Z" fill="white"/>
<path d="M4.68022 16.0705H5.5949V17.1025H4.68022V16.0705ZM7.75521 13.5063H8.33633V14.1839H7.75521V13.5063ZM0.969376 4.01292L0.789567 3.80444H0.766113L1.13355 4.224V12.7819C1.38632 14.1969 1.85279 15.195 2.73359 16.3051C3.05151 16.6517 3.36162 16.9644 3.74208 17.2823C4.42744 17.7618 4.9382 18.1006 5.81119 18.4002C6.50697 18.6582 7.33826 18.7911 8.13828 18.7937C7.34087 18.7885 6.50958 18.6556 5.8164 18.4002L5.21964 18.1657L7.06725 16.279V15.763H5.91021V14.5096H8.29464V15.0256L9.91553 13.3656V13.2718H7.44771V14.1865H5.54017V15.7657H4.2789V17.2198C3.99486 17.0373 3.62742 16.7012 3.63785 16.7142C3.30429 16.4302 3.16096 16.2373 2.90037 15.9324C2.64238 15.6328 2.41567 15.2627 2.23064 14.963C1.93357 14.3506 1.70946 14.0197 1.48014 12.8288V4.21097L14.9398 4.22139V8.19283L14.3743 8.80782L15.1795 7.98435V4.22139L15.4114 3.82008L15.2707 4.01292H0.969376Z" fill="white"/>
<path d="M12.2791 7.08813C12.2374 7.09595 12.2217 7.06989 12.1774 7.05165C12.1462 7.02559 12.0941 6.78063 12.0915 6.73112C12.0758 6.70767 12.0602 6.69724 12.055 6.69203C11.9612 6.62167 11.81 6.49398 11.8048 6.39496H11.7892C11.7866 6.34284 11.7292 6.25684 11.8283 6.25163C11.8465 6.27769 11.8856 6.28551 11.8856 6.30114L11.9351 6.31678C11.9351 6.34544 12.0237 6.42623 12.0602 6.44968C12.1566 6.44447 12.1853 6.58779 12.253 6.63731C12.2582 6.65815 12.2765 6.68161 12.2921 6.69724C12.3703 6.765 12.2791 7.04644 12.4823 7.09074H12.2843L12.2791 7.08813ZM12.1592 9.37614C12.1305 9.39177 12.1149 9.40741 12.0941 9.42565C12.055 9.40741 11.9924 9.4048 11.9481 9.4048C11.8387 9.28493 11.7475 9.08948 11.7475 8.90707L12.1879 8.81586L12.3156 8.84713C12.3885 9.01652 12.2843 9.25626 12.1592 9.37874M11.7162 9.8869C11.6797 9.89993 11.6797 9.94684 11.6224 9.96508C11.2966 9.78787 11.0308 9.49601 10.8849 9.13639V9.03476L11.3175 8.89925L11.354 8.90707C11.4035 8.96179 11.4426 9.00088 11.4999 9.03476C11.5129 9.24063 11.6224 9.41001 11.737 9.57419C11.737 9.69145 11.7475 9.78787 11.7162 9.8895M10.3898 9.92599C10.2074 9.80872 10.0302 9.62631 9.97023 9.4465L10.3377 9.2276C10.395 9.21978 10.4471 9.25366 10.4862 9.28232L10.7129 9.69667C10.8484 9.8895 11.0777 9.98332 11.3305 10.0745L11.4504 10.2309L11.4791 10.3768C11.1507 10.1736 10.6816 10.27 10.3924 9.92338M9.76957 10.0876L9.45425 9.69667C9.48031 9.65497 9.53243 9.61328 9.59237 9.59764C9.68357 9.59764 9.75133 9.67842 9.81387 9.74357L9.95198 10.0876C9.92332 10.1553 9.8269 10.0719 9.76957 10.0876ZM9.19887 10.0563C9.15718 10.0146 9.14154 9.9755 9.09985 9.95986C9.079 9.94423 9.06858 9.91035 9.05033 9.87126C9.05033 9.85302 9.05033 9.82696 9.06597 9.8009C9.07639 9.8009 9.0816 9.8009 9.09724 9.7983L9.24838 9.81133L9.44122 10.1423C9.37086 10.2022 9.26923 10.1058 9.19627 10.0563M9.32396 6.40798C9.66533 6.40798 10.1318 6.3715 10.3533 6.65555C10.4237 6.7676 10.5305 6.8562 10.5696 6.97868C10.3377 7.00995 10.0693 7.03341 9.81387 6.95262C9.6497 6.95262 9.57412 6.85881 9.47249 6.80669L9.3005 6.43926C9.3005 6.43926 9.3005 6.40538 9.32656 6.41059M10.468 6.41841C10.6842 6.49919 10.8145 6.76239 11.109 6.76239C11.2445 6.8119 11.2237 6.91353 11.2758 7.01517C11.2159 7.12201 11.1247 7.09856 11.0204 7.08292C10.7077 6.96565 10.6139 6.65034 10.4445 6.41841H10.4706H10.468ZM11.2862 6.55392L11.7162 6.52525C11.7162 6.52525 11.7423 6.52525 11.7475 6.53828C11.7892 6.56434 11.7944 6.56173 11.7944 6.59301C11.7918 6.60343 11.7657 6.61906 11.7631 6.62428C11.7318 6.64252 11.724 6.65034 11.7136 6.65555C11.6589 6.65815 11.625 6.66858 11.5651 6.67379C11.5677 6.68942 11.5651 6.71809 11.5494 6.71809C11.5468 6.71809 11.5338 6.74936 11.5286 6.76239C11.5312 6.77542 11.539 6.81972 11.5416 6.83014C11.526 6.83014 11.6094 6.9422 11.6146 6.95523C11.6667 6.98129 11.7006 6.94481 11.7553 6.96826L11.7735 6.96044C11.8074 6.97086 11.8778 6.98911 11.9221 6.9865C11.9273 6.99953 11.9221 7.05425 11.9351 7.05425C11.9351 7.06207 11.9377 7.0725 11.9351 7.08031C11.9351 7.09334 11.9221 7.09595 11.9012 7.09595C11.8152 7.09595 11.6015 7.09595 11.5937 7.09595C11.5833 7.06728 11.5781 7.09595 11.5703 7.06728C11.5546 7.06728 11.4947 7.05686 11.4791 7.05947L11.4582 7.04383C11.3905 6.97868 11.4061 6.80409 11.3409 6.73633H11.3253V6.7233L11.3175 6.71027H11.3019L11.2497 6.59822L11.2758 6.58258C11.2654 6.55392 11.2888 6.58258 11.2784 6.55392M8.993 6.5487C8.92525 6.5487 8.92004 6.49137 8.88616 6.44447L8.9018 6.43665L8.99561 6.50962C8.99561 6.50962 8.99561 6.53567 8.9904 6.55131M8.53697 6.50701C8.50048 6.47574 8.51612 6.41841 8.5083 6.3689L8.53697 6.36108H8.58127C8.6386 6.3689 8.65684 6.43404 8.7298 6.44186C8.76368 6.47053 8.77411 6.5044 8.79495 6.55913C8.7298 6.62167 8.61514 6.5487 8.53697 6.50701ZM7.91154 6.79627C7.70828 6.66337 7.49199 6.44447 7.44769 6.28029C7.72131 6.29072 7.85421 6.58258 8.08875 6.72851C8.26595 6.71288 8.42752 6.72591 8.60993 6.765C8.66987 6.80409 8.72199 6.82233 8.77411 6.8562C8.52654 6.95784 8.18256 6.90572 7.91415 6.79627M6.25157 6.43665C6.24114 6.42101 6.24114 6.40277 6.24114 6.38714L6.65288 6.31417L6.99947 6.35065L7.52587 6.96565C6.99686 7.03862 6.60076 6.78063 6.25157 6.43665ZM6.14994 6.55913C6.12388 6.58779 6.06915 6.60343 6.00661 6.60343L5.8268 6.4575C5.81638 6.43144 5.81377 6.40017 5.8268 6.3689C5.83462 6.3689 5.84244 6.3689 5.85807 6.36108L6.1317 6.43404C6.16036 6.4601 6.16297 6.51483 6.14733 6.55913M5.58706 6.85099C5.49845 6.79366 5.38379 6.73894 5.34731 6.60343L5.56881 6.40538C5.58445 6.40538 5.60009 6.4158 5.61833 6.43404C5.64439 6.44968 5.64439 6.49137 5.64439 6.53046L6.05612 6.94741L5.59227 6.84839L5.58706 6.85099ZM5.39161 7.10637C5.18053 7.10637 5.00333 7.31745 4.80007 7.23146C4.66456 7.10898 4.62026 6.99432 4.51863 6.90572L4.84437 6.72591C5.08932 6.71027 5.21962 6.87705 5.39161 6.99692C5.39943 7.00995 5.42028 7.03862 5.42028 7.06989C5.42028 7.08813 5.39943 7.08292 5.39161 7.10637ZM13.9234 7.75786L13.7019 7.61192L13.6003 7.26794L12.5892 6.97087C12.5892 6.97087 12.5605 6.95002 12.5579 6.93438L12.5058 6.6347C12.524 6.60343 12.5501 6.5487 12.6152 6.53307C12.8211 6.51743 12.9749 6.62167 13.2042 6.63731C13.3241 6.68942 13.47 6.70767 13.5508 6.6347C13.5664 6.60343 13.582 6.58258 13.5977 6.56173L13.582 6.29072C13.4752 6.18387 13.3658 6.01188 13.1573 6.02752C12.941 6.0171 12.7325 5.99364 12.5319 5.97279C12.4745 5.88419 12.326 5.91546 12.2374 5.8425C11.5442 5.82686 10.8953 5.82165 10.2022 5.7122C9.95199 5.61318 9.66273 5.63142 9.42298 5.535C8.464 5.28744 7.51805 5.28744 6.54083 5.14411C6.28805 5.03987 6.0014 5.01642 5.73038 5.01121C5.49324 4.99818 5.42028 5.23011 5.21441 5.21708C4.87564 5.09981 4.52384 4.85746 4.15119 4.96691C3.8046 5.26919 3.33553 4.92261 2.93943 4.94085C2.89774 4.94085 2.85604 4.98515 2.84041 5.03205C3.0567 5.28222 3.43977 5.31871 3.78115 5.41513C3.92969 5.40731 4.01829 5.48549 4.11731 5.54803C4.13295 5.57409 4.12513 5.61057 4.09647 5.62881L3.38244 5.90765L3.16354 6.30635C2.9681 6.39496 2.80914 6.57476 2.73878 6.82233C2.75181 6.88487 2.76484 6.91614 2.7909 6.94481C2.86647 7.02559 3.0124 6.97608 3.11403 6.92396C3.26257 6.77803 3.45541 6.64512 3.63522 6.51222C3.72903 6.45489 3.81763 6.41841 3.92969 6.38714C3.95053 6.38714 3.98702 6.39756 4.00265 6.4158L3.98702 6.53046L3.67952 6.90311C3.67952 6.97608 3.76291 7.03601 3.82805 7.06728H4.12513C4.21894 7.09595 4.17725 7.21061 4.22416 7.28618C4.22416 7.36697 4.15119 7.41127 4.09647 7.46078C3.87496 7.46078 3.71339 7.57544 3.53358 7.66404C3.11142 7.90639 2.56418 7.90639 2.28013 8.27122C2.24365 8.38067 2.20456 8.47448 2.25407 8.56569C2.3114 8.63084 2.45473 8.63084 2.51467 8.57351C2.65799 8.50836 2.73617 8.42758 2.86126 8.34158L3.15833 8.32074C3.15833 8.3937 2.99937 8.45103 2.99416 8.59175C2.94725 8.75332 2.7935 8.77417 2.72054 8.92271C2.71272 8.93834 2.69187 8.95398 2.69187 8.95398C2.67623 9.05561 2.67623 9.1833 2.78568 9.24063C2.91598 9.34226 3.09318 9.2719 3.17397 9.21457C3.22348 9.16506 3.27039 9.14681 3.33032 9.12597C3.37202 9.1416 3.34596 9.1859 3.34335 9.22239L3.09579 9.39698C3.07494 9.42826 3.08797 9.48819 3.11142 9.51686C3.34856 9.58982 3.60394 9.39698 3.85411 9.34747C4.04956 9.26929 4.29452 9.1859 4.51081 9.25626C4.47432 9.37874 4.32318 9.4022 4.25021 9.45171C4.11471 9.48819 3.96356 9.47256 3.92708 9.61849C3.91666 9.70448 3.94272 9.79308 4.02089 9.83217C4.16422 9.92077 4.36748 9.93641 4.49257 10.0276C4.77922 10.1605 5.08411 10.0094 5.3004 9.90514C5.39682 9.73836 5.6053 9.72272 5.70432 9.59243H5.75384C5.77468 9.60806 5.75384 9.63673 5.74602 9.66539C5.64699 9.76181 5.54276 9.86866 5.41246 9.95726C5.37598 9.99374 5.37598 10.0276 5.35773 10.0589C5.35773 10.124 5.41507 10.1736 5.48282 10.197C5.8268 10.2856 6.17339 10.2595 6.39489 10.0354C6.66852 10.0354 6.99165 10.1579 7.23921 10.0094L7.32 9.81133L7.73173 9.59243C7.8047 9.59243 7.86203 9.65236 7.8907 9.70969C7.8933 9.73836 7.90112 9.76181 7.90112 9.76181L7.6275 10.0094C7.39036 10.0667 7.17146 10.1501 7.04377 10.3534C7.0125 10.4446 6.99426 10.5149 7.04116 10.5723C7.32521 10.64 7.64053 10.5644 7.96366 10.5879C8.32589 10.5201 8.37019 10.2074 8.67247 10.0354L8.76629 10.0511L9.01385 10.3299L9.48813 10.4472C9.72527 10.6739 9.96241 10.8954 10.3611 10.8928C10.3924 10.9188 10.4132 10.9241 10.4497 10.9319C10.6165 11.1221 10.7546 11.3931 11.0178 11.526C11.2393 11.5808 11.4243 11.5182 11.5755 11.6537L12.6804 10.5227C12.584 10.5019 12.6022 10.455 12.425 10.4107C12.3025 10.3429 12.1957 10.2413 12.1748 10.1058C12.1748 10.025 12.1722 9.9755 12.1957 9.90775C12.2217 9.85042 12.3312 9.82957 12.352 9.73575L12.4224 9.51686C12.4797 9.4491 12.6257 9.39698 12.7143 9.43086C12.8732 9.52467 13.014 9.52467 13.1755 9.50383C13.2615 9.46734 13.3188 9.43086 13.3918 9.39438C13.5221 9.25366 13.298 9.00609 13.4648 8.8784L13.9104 8.68035L13.9834 8.53442C13.8531 8.28425 14.1137 7.99499 13.9104 7.75004" fill="white"/>
<path d="M12.7741 10.5381C12.7403 10.5381 12.7142 10.5329 12.6934 10.5303L11.5884 11.6613C11.6093 11.6795 11.6328 11.7003 11.651 11.729L9.91805 13.6131V13.3681L8.29456 15.0255V15.2913L7.06716 16.5917V16.279L5.22217 18.1657L5.81893 18.4002C6.5121 18.6582 7.34079 18.7911 8.1382 18.7937C8.61769 18.7963 9.08155 18.7546 9.5011 18.666C9.5428 18.6582 9.60794 18.6451 9.67049 18.6347C10.5435 18.4445 11.1663 18.1526 11.8907 17.7409C11.9924 17.6471 12.1279 17.6054 12.2295 17.5142C11.6249 17.3291 10.9682 17.7487 10.3194 17.4725C10.0327 17.436 9.72261 17.5142 9.39947 17.5871C8.65678 17.5663 8.02354 17.3891 7.16098 17.5767C6.91341 17.5402 6.61894 17.4855 6.43914 17.3448C6.43914 17.3448 6.43914 17.3213 6.44695 17.2953C6.48865 17.2249 6.54337 17.165 6.62937 17.165C6.817 17.2223 7.00462 17.3344 7.24437 17.3682C8.11996 16.9773 8.94343 17.5454 9.83205 17.2223C10.7546 17.436 11.6484 17.2484 12.5552 17.2588C12.6491 17.1728 12.7559 17.1546 12.8888 16.9669C12.5083 16.9226 12.0966 16.7194 11.6718 16.8497C10.9682 17.2796 10.2334 16.6073 9.44377 17.0269C9.26396 17.0764 9.07634 17.0764 8.87568 17.0399C8.35449 16.7454 7.73689 16.9591 7.1714 17.0399C7.06977 16.9956 6.9942 16.98 6.9056 16.9591C6.88736 16.9435 6.88736 16.9278 6.88736 16.9096C6.9082 16.8731 7.00202 16.7689 7.0828 16.7506C7.39551 16.8575 7.6561 16.6907 7.98966 16.6255C8.23723 16.6021 8.62812 16.5943 8.98513 16.7324C9.27439 16.8444 9.69915 16.7168 10.0379 16.6542C10.5643 16.6698 11.0907 16.8914 11.6171 16.662C11.7109 16.6334 11.7683 16.5917 11.8907 16.5812C12.0992 16.5786 12.1435 16.5474 12.3833 16.6308C12.6699 16.7272 12.8627 16.735 13.1259 16.7689C13.3996 16.4692 13.608 16.2555 13.84 15.9402C14.1344 15.5285 14.4472 15.0307 14.6478 14.5121C14.2856 14.4678 13.9025 14.5121 13.5299 14.6138C12.7377 14.4574 11.9429 14.5981 11.148 14.606C10.692 14.4757 10.1839 14.3636 9.77733 14.4939C9.60273 14.533 9.48025 14.6216 9.3708 14.5069C9.36299 14.4626 9.42032 14.3141 9.51153 14.3141C9.51153 14.3219 9.59491 14.3141 9.64182 14.3245C10.5956 13.9857 11.4451 14.6529 12.4145 14.2046C13.1781 14.5408 14.0068 14.1395 14.7364 14.3063C14.8615 14.0952 14.7442 14.3089 14.8615 13.9623C14.6296 13.8737 14.3351 13.8711 14.0667 13.9154C13.5481 14.2072 13.0712 14.0483 12.5109 13.8867C11.9064 13.9362 11.3122 14.2802 10.7285 13.9571C10.4601 13.8476 10.2672 13.8554 9.98841 13.9493C9.93369 13.9597 9.8946 13.9571 9.8946 13.9128C9.94411 13.8685 9.95453 13.8007 10.09 13.7356C10.3923 13.647 10.5904 13.6287 10.9291 13.7251C11.5676 14.103 12.2894 13.5558 12.907 13.7173C13.3918 14.0092 13.9181 13.6861 14.3924 13.6287L14.9449 13.6861C15.1638 12.9095 15.2133 12.2111 15.2081 11.3902C15.1742 11.3485 15.07 11.4007 14.9814 11.4189C14.2465 11.2938 13.5194 11.4033 12.7611 11.3824C12.6595 11.3355 12.5292 11.3199 12.4562 11.2443C12.4771 11.1766 12.55 11.1479 12.5865 11.0984C12.5865 11.0984 12.6152 11.0879 12.636 11.0879C13.1885 11.3746 13.7644 10.9733 14.3377 11.1349C14.6322 11.1713 14.984 11.2209 15.2107 11.0723L15.182 10.8117C14.6478 11.0306 14.1058 10.5824 13.5481 10.8456C13.3266 10.8717 13.0478 10.9993 12.8706 10.83L13.0295 10.6528C13.0764 10.6241 13.139 10.6684 13.2015 10.684C13.8817 10.3687 14.5279 10.7075 15.1794 10.5094V7.9895L14.369 8.81558L12.7663 10.5433L12.7741 10.5381Z" fill="white"/>
<path d="M7.28882 14.8794V15.4996H7.83085L8.08102 15.2442V14.8794H7.28882Z" fill="white"/>
<path d="M7.83081 15.4998H8.08098V15.2444L7.83081 15.4998Z" fill="white"/>
<path d="M7.01526 14.8794H6.22827V15.497H7.01526V14.8794Z" fill="white"/>
<path d="M12.6779 20.7566C12.6466 20.7566 12.6179 20.7826 12.6179 20.8165C12.6179 20.8504 12.6466 20.8765 12.6779 20.8765C12.7091 20.8765 12.7352 20.8478 12.7352 20.8165C12.7352 20.7853 12.7091 20.7566 12.6779 20.7566Z" fill="white"/>
<path d="M13.7413 20.7566C13.7074 20.7566 13.6787 20.7931 13.6787 20.8374C13.6787 20.8817 13.7048 20.9182 13.7413 20.9182C13.7725 20.9182 13.8012 20.8817 13.8012 20.8374C13.8012 20.7931 13.7725 20.7566 13.7413 20.7566Z" fill="white"/>
<path d="M4.07305 20.5506C4.04177 20.5271 3.99747 20.5115 3.95838 20.5115C3.82809 20.5271 3.77076 20.6157 3.76294 20.8112C3.76294 20.8685 3.77076 20.918 3.77076 20.9649C3.78639 21.0144 3.80985 21.0457 3.83591 21.0717C3.86978 21.103 3.90105 21.1213 3.95838 21.1213H3.9662C4.08086 21.1134 4.14601 21.0144 4.14601 20.8138C4.14601 20.7643 4.13819 20.7095 4.13038 20.6678C4.11474 20.6183 4.0991 20.587 4.07305 20.5532" fill="white"/>
<path d="M2.37407 20.5506C2.3428 20.5271 2.3011 20.5115 2.25941 20.5115C2.13693 20.5271 2.07178 20.6157 2.06396 20.8112C2.06396 20.8685 2.07439 20.918 2.08221 20.9649C2.09002 21.0144 2.11348 21.0457 2.14735 21.0717C2.17081 21.103 2.2125 21.1213 2.26202 21.1213H2.26983C2.39492 21.1134 2.45225 21.0144 2.46007 20.8138C2.46007 20.7643 2.45225 20.7095 2.43401 20.6678C2.41577 20.6183 2.39231 20.587 2.37668 20.5532" fill="white"/>
<path d="M14.7809 19.9801V19.3078L15.3516 19.9801H14.7809ZM15.2031 20.8583C14.6558 20.6759 14.1451 21.1893 13.5978 20.9756C13.5509 20.9599 13.504 20.887 13.5275 20.8192C13.5978 20.7046 13.6265 20.6003 13.7646 20.5769C13.8506 20.6733 13.8819 20.8192 14.0382 20.8609C14.2545 20.8713 14.4917 20.8349 14.6506 20.7463C14.6324 20.6733 14.5203 20.6524 14.4343 20.6238C14.3197 20.6551 14.2545 20.728 14.1659 20.7619C14.1242 20.7124 14.1842 20.6524 14.2389 20.6003C14.3119 20.5586 14.3457 20.4857 14.4343 20.4752L15.2291 20.7775C15.25 20.814 15.2291 20.8349 15.2005 20.8583M13.2226 21.4316L13.134 21.3587C13.1105 21.3013 13.0897 21.2179 13.134 21.1606C13.1835 21.2049 13.2226 21.2805 13.2981 21.3065C13.478 21.317 13.6213 21.2336 13.7516 21.1163C13.7881 21.0928 13.8167 21.1085 13.8376 21.1189C13.6942 21.317 13.491 21.4577 13.2252 21.4316M12.2506 21.4238C12.1776 21.3665 12.1437 21.3378 12.1098 21.2805C12.1098 21.2648 12.1281 21.2779 12.1307 21.2466L12.2584 21.3039C12.433 21.3352 12.5529 21.2257 12.6779 21.1241C12.7066 21.1007 12.7327 21.0433 12.7222 20.986L12.5059 20.9599C12.4512 20.9 12.5059 20.7645 12.5372 20.6915C12.5945 20.6264 12.631 20.5795 12.7066 20.5795C12.7405 20.5951 12.7665 20.6368 12.7848 20.6915C12.8708 20.8088 13.0323 20.7515 13.1757 20.7202C13.1965 20.6994 13.22 20.6915 13.22 20.6915C13.2903 20.5612 13.1757 20.3606 13.1209 20.2225C13.1131 20.2146 13.0845 20.2146 13.0558 20.1938L13.0845 20.0765H13.0923L13.22 20.1104C13.22 20.272 13.2773 20.4778 13.2929 20.6629C13.2903 20.7046 13.2643 20.7697 13.2643 20.7775C13.048 20.9209 12.8187 21.0277 12.631 21.2414C12.5059 21.343 12.4304 21.4577 12.248 21.416M11.2864 21.1215C11.2447 20.9834 11.2369 20.9078 11.2551 20.8036C11.2603 20.7853 11.3176 20.6577 11.3333 20.6733C11.3281 20.8114 11.3359 20.9443 11.3906 21.0668C11.6069 21.1814 11.8466 21.059 12.0473 20.9521C12.188 20.8114 11.9691 20.5847 12.0603 20.3866L12.089 20.4023L12.2818 20.5769C12.1698 20.715 12.3183 20.9339 12.0238 21.0772C11.7685 21.2153 11.5939 21.3196 11.289 21.1215M11.672 20.4622C11.7268 20.4622 11.7737 20.4935 11.7737 20.53C11.7737 20.5664 11.7268 20.6003 11.672 20.6003C11.6173 20.6003 11.573 20.5691 11.573 20.53C11.573 20.4909 11.6173 20.4622 11.672 20.4622ZM10.2883 20.8818V20.1573L10.9059 20.8818H10.2883ZM10.085 22.2838H9.81402V21.4759H9.39707V22.2838H9.1443V21.1502H10.085V22.2838ZM8.8368 22.2838H8.56578V21.1606H8.8368V22.2838ZM8.24786 21.9294L7.99508 22.2838H7.63547L7.97945 21.7991V21.4759H7.28627V21.0147H7.56511V21.1528H8.25307V21.932L8.24786 21.9294ZM6.99701 22.2838H6.71036V21.1606H6.99701V22.2838ZM6.40026 22.4792H6.1136V21.1606H6.40026V22.4792ZM6.10318 20.8792H5.47776L6.10318 20.1443V20.8792ZM5.34746 21.2727H5.02172L4.71943 20.5664V21.2727H4.50575V20.3502H4.83931L5.14159 21.0381V20.3502H5.34486V21.2727H5.34746ZM4.37545 20.9964C4.35721 21.0459 4.32594 21.1033 4.28424 21.1424C4.25818 21.1919 4.21128 21.2336 4.16176 21.2492C4.10443 21.2831 4.03929 21.2909 3.96632 21.2987C3.85948 21.2987 3.77088 21.2753 3.69791 21.2362C3.64058 21.1867 3.59107 21.1293 3.5598 21.0564C3.52592 20.9912 3.51028 20.9183 3.51028 20.8375C3.51028 20.7645 3.5181 20.7072 3.53634 20.642C3.5624 20.5847 3.57804 20.5274 3.60931 20.4883C3.6484 20.4414 3.6927 20.4075 3.74742 20.384C3.80475 20.3502 3.88032 20.3345 3.96893 20.3345C4.01844 20.3423 4.07577 20.3502 4.12528 20.3658C4.17479 20.384 4.2217 20.4075 4.2634 20.4466C4.30248 20.4857 4.33636 20.5274 4.35981 20.5925C4.38587 20.6577 4.40151 20.7306 4.40151 20.8114C4.40151 20.8844 4.38587 20.9417 4.37806 20.999M3.43471 21.2727H2.8145V20.3502H3.05164V21.0955H3.43471V21.2753V21.2727ZM2.67639 20.9964C2.66075 21.0459 2.62948 21.1033 2.5956 21.1424C2.56172 21.1919 2.51221 21.2336 2.46531 21.2492C2.41579 21.2831 2.34283 21.2909 2.26725 21.2987C2.16302 21.2987 2.07963 21.2753 2.00666 21.2362C1.94412 21.1867 1.892 21.1293 1.86073 21.0564C1.83728 20.9912 1.82164 20.9183 1.82164 20.8375C1.82164 20.7645 1.82946 20.7072 1.84509 20.642C1.86073 20.5847 1.87637 20.5274 1.91024 20.4883C1.95194 20.4414 1.99363 20.4075 2.05878 20.384C2.10569 20.3502 2.18908 20.3345 2.26986 20.3345C2.31937 20.3423 2.3767 20.3502 2.42622 20.3658C2.48355 20.384 2.52524 20.4075 2.56694 20.4466C2.60863 20.4857 2.6399 20.5274 2.66596 20.5925C2.69202 20.6577 2.70505 20.7306 2.70505 20.8114C2.70505 20.8844 2.69723 20.9417 2.67899 20.999M1.67832 21.2727H1.44899V20.9H1.16234V21.2727H0.925202V20.3502H1.16234V20.7046H1.44899V20.3502H1.67832V21.2727ZM1.4073 19.3078V19.9801H0.8366L1.4073 19.3078ZM14.6845 19.0576V19.9801H10.1554V20.8818L6.23348 20.887V19.9801H1.4959V19.0576L0.698486 19.9723V21.6583H5.30577V22.6017L11.117 22.6095V21.6557H15.4585V19.9827L14.6793 19.0602L14.6845 19.0576Z" fill="white"/>
<path d="M15.521 3.53092L15.5914 3.34069V3.29639L15.521 3.53092Z" fill="white"/>
<path d="M15.5132 3.55905H15.5158L15.5209 3.53076L15.5132 3.55905Z" fill="white"/>
<path d="M9.27967 0.68042H8.96436V0.990525H9.27967V0.68042Z" fill="white"/>
<path d="M8.25038 0.68042H7.93506V0.990525H8.25038V0.68042Z" fill="white"/>
<path d="M6.05618 1.55574L5.62359 0.179809H6.35846V0.349194H6.78584V0.179809H7.36696V0.349194H7.78651V0.179809H8.35721V0.346588H8.76113V0.179809H9.35268V0.349194H9.77223V0.179809H10.5097L10.0928 1.55574H6.05357H6.05618ZM13.2068 1.55574V1.45671H12.9046V1.55574H10.3012L10.7521 0H5.36039L5.85031 1.55574H4.80794V1.45671H4.50565V1.55574H0.612393V1.45671H0.310105V1.55574H0L0.570698 3.52321L0.161568 1.63913H15.5913V3.2965L16.0994 1.55574H13.2094H13.2068Z" fill="white"/>
<path d="M7.21579 0.68042H6.90308V0.990525H7.21579V0.68042Z" fill="white"/>
<path d="M15.3776 2.50718L15.2395 2.2075L15.1822 2.31434V2.50718H15.0519V2.21792L15.1666 2.0329L15.0363 1.76449H15.2161L15.3385 2.0329L15.3959 1.95733V1.76449H15.5262V2.06156L15.4193 2.21531L15.5496 2.50457H15.3776V2.50718ZM14.8877 2.63226H14.7574V1.97557H14.6037V2.15798H14.4812V1.97557H14.4317V1.76449H14.8877V2.63226ZM14.033 2.30392L13.9001 2.50718H13.616V2.2961H13.6812V1.76709H13.8115V2.2961H13.8453L13.8923 2.2075V1.76449H14.033V2.30392ZM13.4675 2.27525L13.345 2.50718H13.1652L13.3294 2.18925V1.97817H13.0036V1.67068H13.1339V1.76709H13.4701V2.27786L13.4675 2.27525ZM12.5945 2.50718H12.1437V2.2961H12.4616V1.97817H12.3131V2.16059H12.1984V1.97817H12.1437V1.76709H12.5945V2.50978V2.50718ZM11.9977 2.13974H11.8674V1.76449H11.9977V2.13974ZM11.4479 2.30392L11.3254 2.50718H11.0153V2.2961H11.2759L11.3176 2.2075V1.97557H11.0153V1.76449H11.4479V2.30392ZM10.8537 2.63226H10.7234V1.76449H10.8537V2.63226ZM8.76118 3.7033L8.45108 3.51046V1.79315L8.76118 1.9443V3.7033ZM7.72924 3.50785L7.41913 3.70069V1.94169L7.72924 1.79055V3.50785ZM5.34742 2.53063H5.21712V1.78794H5.34742V2.53063ZM5.06858 2.2987L4.93829 2.53063H4.7663L4.93829 2.21271V1.9912H4.60212V1.69152H4.73242V1.78794H5.06598V2.2987H5.06858ZM4.44837 2.53063H4.24511V2.30913H4.31808V1.9912H4.2842L4.13827 2.53324H3.98191L4.12003 2.07981H3.99755V1.79055H4.13827V2.05114L4.21123 1.79055H4.44837V2.53324V2.53063ZM3.85161 2.53063H3.71089V2.02769L3.68744 1.9886H3.42424V1.78534H3.77604L3.84901 1.88957V2.52803L3.85161 2.53063ZM3.28092 2.53063H3.15062V1.78794H3.28092V2.53063ZM2.99426 2.53063H2.85615V1.9886H2.67634V2.53063H2.4809V2.30913H2.54865V1.78794H2.99687V2.53063H2.99426ZM2.06916 2.53063H1.93886V1.9886H1.62094V1.78534H2.06916V2.52803V2.53063ZM1.75384 2.53063H1.62355V2.14495H1.75384V2.53063ZM1.46719 2.31955L1.33689 2.53324H1.01897V2.31173H1.27956L1.33689 2.23356V1.9912H1.01897V1.78794H1.4698V2.31695L1.46719 2.31955ZM0.862616 2.2987L0.740137 2.53063H0.560328L0.732319 2.21271V1.9912H0.406578V1.69152H0.536875V1.78794H0.862616V2.2987ZM0.161621 1.6394L0.570752 3.5261L0.57857 3.55997H5.3839L5.84515 1.72801H7.2315V3.81275H0.78965L0.969459 4.01601H15.2734L15.4141 3.82317L15.4219 3.81275H8.94099V1.72801H10.2883L10.7808 3.55997H15.5105L15.521 3.53131L15.5913 3.29677V1.6394H0.161621Z" fill="white"/>
<path d="M28.1024 70.5735V74.73H30.7787V70.9905C30.7787 70.6282 30.5806 70.5709 30.3227 70.5709H28.1024V70.5735ZM30.4087 69.8152C31.1305 69.8152 31.7768 70.3572 31.7768 71.0504V75.5117H27.1174V70.5761H26.2444V69.8152H30.4113H30.4087Z" fill="white"/>
<path d="M34.1194 72.984V70.5735H32.9128V69.8152H35.0966V72.984H34.1194Z" fill="white"/>
<path d="M40.2304 70.5735V75.5117H39.2636V70.5735H36.3293V69.8152H41.1712V70.5735H40.2304Z" fill="white"/>
<path d="M44.749 75.5096H43.7613L45.4317 70.5739H42.2629V68.4866H43.2115V69.8156H46.6852L44.749 75.5096Z" fill="white"/>
<path d="M48.8403 72.984V70.5735H47.6338V69.8152H49.8176V72.984H48.8403Z" fill="white"/>
<path d="M51.2038 72.0459H52.1628V75.5091H51.2038V72.0459ZM55.0189 75.5013V70.5761H51.1934V69.8152H55.9857V75.5013H55.0189Z" fill="white"/>
<path d="M64.3301 75.5096H63.3607V70.9909C63.3607 70.6313 63.1626 70.5739 62.9047 70.5739H59.8479V69.813H62.962C63.749 69.813 64.3301 70.355 64.3301 71.0482V75.5096Z" fill="white"/>
<path d="M66.6727 72.984V70.5735H65.4688V69.8152H67.6499V72.984H66.6727Z" fill="white"/>
<path d="M69.7841 69.8152C70.1542 69.8152 70.4304 70.0054 70.5346 70.3676L71.7516 74.7326H71.8845C72.304 74.7326 72.4083 74.5345 72.4917 74.2401L73.5262 70.5761H72.3874V69.8152H74.6859L73.4428 74.2479C73.2526 74.9228 72.8252 75.5117 71.9236 75.5117H69.1717V74.7326H70.777L69.5704 70.5761H68.7913V69.8152H69.7867H69.7841Z" fill="white"/>
<path d="M79.137 74.3628H77.9878V75.512H79.137V74.3628Z" fill="white"/>
<path d="M81.5343 76.9997V70.7455H80.3877V69.8152H82.7513V76.9997H81.5343Z" fill="white"/>
<path d="M85.047 75.5091V70.7455H83.9082V69.8152H86.29V75.5091H85.047Z" fill="white"/>
<path d="M90.2302 75.5096H88.9664L90.741 70.7459H87.4497V68.4866H88.6537V69.8156H92.3436L90.2302 75.5096Z" fill="white"/>
<path d="M94.452 75.5091V70.7455H93.3132V69.8152H95.6977V75.5091H94.452Z" fill="white"/>
<path d="M102.588 75.5091H101.373V70.7455H98.8767V75.5091H97.6623V70.7455H96.8545V69.8152H101.686C102.181 69.8152 102.588 70.2347 102.588 70.7351V75.5091Z" fill="white"/>
</svg>
