<svg width="215" height="90" viewBox="0 0 215 90" fill="none" xmlns="http://www.w3.org/2000/svg">
<path fill-rule="evenodd" clip-rule="evenodd" d="M210.856 87.0236C210.856 85.8659 211.77 84.9397 212.928 84.9397C214.086 84.9397 215 85.8659 215 87.0236C215 88.1813 214.074 89.0953 212.928 89.0953C211.783 89.0953 210.856 88.1691 210.856 87.0236ZM214.512 87.0236C214.512 86.0852 213.818 85.4272 212.928 85.4272C212.039 85.4272 211.344 86.0852 211.344 87.0236C211.344 87.9619 212.014 88.6078 212.928 88.6078C213.842 88.6078 214.512 87.9497 214.512 87.0236ZM213.927 88.0716H213.403L212.916 87.1576H212.575V88.0716H212.099V85.9146H213.147C213.647 85.9146 213.988 85.9999 213.988 86.5727C213.988 86.9748 213.781 87.1333 213.403 87.1576L213.927 88.0716ZM213.172 86.8408C213.416 86.8408 213.55 86.792 213.55 86.5117C213.55 86.2924 213.269 86.2924 213.062 86.2924H212.599V86.8408H213.172Z" fill="white"/>
<path fill-rule="evenodd" clip-rule="evenodd" d="M206.189 36.9616C191.139 28.7479 156.432 20.388 141.747 19.2913L132.912 20.8877C121.116 19.9737 112.403 19.4009 107.43 19.4009C102.458 19.4009 91.32 19.9859 79.5114 20.8877L73.1136 19.2913C58.4289 20.4002 23.7098 28.7479 8.67182 36.9616C1.61589 40.8125 0.848145 43.5422 0.848145 52.6089V75.7509C0.848145 77.6276 1.09187 80.3695 3.16356 82.4412C5.5521 84.8298 8.64745 84.8298 12.2181 84.8298H202.655C206.238 84.8298 209.333 84.8298 211.722 82.4412C213.793 80.3695 214.037 77.6276 214.037 75.7509V52.6089C214.037 43.53 213.269 40.8125 206.214 36.9616H206.189ZM211.673 75.7509C211.673 77.2133 211.502 79.3215 210.052 80.7839C208.346 82.49 205.958 82.49 202.655 82.49H12.2059C8.89117 82.49 6.50264 82.49 4.80873 80.7839C3.34636 79.3215 3.18794 77.2133 3.18794 75.7509V52.6089C3.18794 43.8347 3.99224 42.1895 9.79297 39.0211C24.5873 30.9415 58.8067 22.7156 73.2963 21.6311L84.3372 20.7902C96.0849 19.8884 102.556 19.3888 107.443 19.3888C112.329 19.3888 118.8 19.8884 130.548 20.7902L141.589 21.6311C156.079 22.7156 190.286 30.9415 205.092 39.0211C210.893 42.1895 211.697 43.8347 211.697 52.6089V75.7509H211.673Z" fill="white"/>
<path fill-rule="evenodd" clip-rule="evenodd" d="M16.9341 77.0427H8.72046V69.9868C8.72046 69.9868 9.59788 69.5481 9.59788 67.781V53.2305C9.59788 52.0118 8.72046 51.3172 8.72046 51.3172V46.0283C13.1929 44.1881 16.9463 42.9817 16.9463 42.9817C19.7857 42.5552 22.2108 42.9939 23.6854 44.5537C24.5994 45.5287 25.0502 47.2226 25.0015 49.5502V59.1774C25.0015 62.7846 23.0029 65.7703 19.871 66.014H16.0567V67.781C16.0567 69.5481 16.9341 69.9868 16.9341 69.9868V77.0427ZM16.0567 49.0383V61.4563H16.9341C18.2502 61.4563 18.6158 59.543 18.6158 58.7387V51.6828C18.6158 49.1846 17.2997 49.0383 16.9341 49.0383H16.0567Z" fill="white"/>
<path d="M16.9341 77.0427H8.72046V69.9868C8.72046 69.9868 9.59788 69.5481 9.59788 67.781V53.2305C9.59788 52.0118 8.72046 51.3172 8.72046 51.3172V46.0283C13.1929 44.1881 16.9463 42.9817 16.9463 42.9817C19.7857 42.5552 22.2108 42.9939 23.6854 44.5537C24.5994 45.5287 25.0502 47.2226 25.0015 49.5502V59.1774C25.0015 62.7846 23.0029 65.7703 19.871 66.014H16.0567V67.781C16.0567 69.5481 16.9341 69.9868 16.9341 69.9868V77.0427ZM16.0567 49.0383V61.4563H16.9341C18.2502 61.4563 18.6158 59.543 18.6158 58.7387V51.6828C18.6158 49.1846 17.2997 49.0383 16.9341 49.0383H16.0567Z" fill="white"/>
<path fill-rule="evenodd" clip-rule="evenodd" d="M120.092 38.509C120.092 28.7111 127.928 26.9563 132.035 26.9563C136.142 26.9563 143.77 29.2961 143.77 38.509V65.8675C143.77 76.2869 136.824 78.5048 132.035 78.5048C126.563 78.5048 120.275 73.2525 120.092 66.9887V38.509ZM130.073 65.0876C130.073 68.2682 134.18 68.256 134.18 65.0876V40.0932C134.18 36.6689 130.073 36.6567 130.073 40.0932V65.0876Z" fill="white"/>
<path d="M120.092 38.509C120.092 28.7111 127.928 26.9563 132.035 26.9563C136.142 26.9563 143.77 29.2961 143.77 38.509V65.8675C143.77 76.2869 136.824 78.5048 132.035 78.5048C126.563 78.5048 120.275 73.2525 120.092 66.9887V38.509ZM130.073 65.0876C130.073 68.2682 134.18 68.256 134.18 65.0876V40.0932C134.18 36.6689 130.073 36.6567 130.073 40.0932V65.0876Z" fill="white"/>
<path fill-rule="evenodd" clip-rule="evenodd" d="M198.512 65.9657H191.907V73.899C194.478 77.5793 197.183 78.3105 200.413 78.1643C203.642 78.018 207.603 74.094 207.603 70.6696V64.0524C207.603 59.9334 205.251 58.7635 203.057 57.4352C200.852 56.1069 198.512 56.704 198.512 53.3162C198.512 50.6717 201.741 49.4896 201.741 55.2294H207.603V47.9541C202.765 43.3964 200.047 43.9083 197.781 44.347C194.247 45.0294 191.919 49.1972 191.919 54.937C191.919 58.7269 193.442 60.5305 194.563 61.8467C195.441 62.8703 197.232 63.9915 198.524 64.4302C199.986 64.9298 201.753 64.8811 201.753 67.8058C201.753 72.3757 198.524 71.7298 198.524 69.9262V65.9535L198.512 65.9657Z" fill="white"/>
<path fill-rule="evenodd" clip-rule="evenodd" d="M192.491 45.5772L193.028 46.3693L194.587 44.7973C196.342 43.0302 195.575 40.8489 193.418 40.8732C191.614 40.8976 191.553 43.4324 192.82 43.798C193.552 44.0052 193.503 44.322 193.186 44.712C192.906 45.0532 192.491 45.5528 192.491 45.5528V45.5772Z" fill="white"/>
<path fill-rule="evenodd" clip-rule="evenodd" d="M25.5255 67.8424L29.6932 38.3269L39.9542 35.585L43.3542 67.8424C43.3542 69.5607 44.1828 69.9872 44.1828 69.9872H44.256V77.0431H35.2624V69.9872C35.2624 69.9872 36.0545 69.5607 36.0545 67.8424V66.1363H32.6667V67.8424C32.6667 69.5607 33.4954 69.9872 33.4954 69.9872V77.0431H24.6968V69.9872C24.6968 69.9872 25.5255 69.5607 25.5255 67.8424ZM32.9835 61.0058H35.9083L34.5312 46.9671L32.9835 61.0058Z" fill="white"/>
<path d="M25.5255 67.8424L29.6932 38.3269L39.9542 35.585L43.3542 67.8424C43.3542 69.5607 44.1828 69.9872 44.1828 69.9872H44.256V77.0431H35.2624V69.9872C35.2624 69.9872 36.0545 69.5607 36.0545 67.8424V66.1363H32.6667V67.8424C32.6667 69.5607 33.4954 69.9872 33.4954 69.9872V77.0431H24.6968V69.9872C24.6968 69.9872 25.5255 69.5607 25.5255 67.8424ZM32.9835 61.0058H35.9083L34.5312 46.9671L32.9835 61.0058Z" fill="white"/>
<path fill-rule="evenodd" clip-rule="evenodd" d="M117.692 39.021C117.692 36.6691 118.825 36.0719 118.825 36.0719V27.3586L106.578 27.0662V35.292C106.578 35.292 107.711 35.8769 107.711 38.2411V62.1508C107.711 67.6347 104.579 67.6347 100.472 65.0878V75.4706C105.359 78.6025 117.679 82.3315 117.679 65.8677V39.0088L117.692 39.021Z" fill="white"/>
<path fill-rule="evenodd" clip-rule="evenodd" d="M169.325 69.9869C169.325 69.9869 168.265 69.4019 168.265 67.0377L168.192 44.9925C168.192 42.6406 169.545 41.7509 169.545 41.7509V33.9638L158.248 31.2463V40.2155C158.248 40.2155 159.162 40.8004 159.162 43.1646V50.9517H155.275V43.1646C155.275 40.8126 156.627 39.923 156.627 39.923V30.8076L145.55 28.8943V39.0334C145.55 39.0334 146.902 39.9108 146.902 42.275V67.0377C146.902 69.3897 145.55 69.9869 145.55 69.9869V77.189H156.408V69.9869C156.408 69.9869 155.275 69.4019 155.275 67.0377V58.9582H159.162V67.0377C159.162 69.3897 158.029 69.9869 158.029 69.9869V77.189H169.325V69.9869Z" fill="white"/>
<path fill-rule="evenodd" clip-rule="evenodd" d="M171.227 69.9866C171.227 69.9866 172.591 69.7916 172.287 68.317V45.37C172.287 43.018 171.227 42.0675 171.227 42.0675V34.061L180.098 36.3643L183.839 56.6303L183.949 49.5621C183.949 47.2102 182.889 46.2596 182.889 46.2596V37.4367L191.066 40.2274V47.2833C191.066 47.2833 189.713 48.1607 189.713 50.5249V77.1278H182.377L178.197 61.1027V67.7686C178.197 70.1206 179.001 69.9744 179.001 69.9744V77.1278H171.227V69.9744V69.9866Z" fill="white"/>
<path fill-rule="evenodd" clip-rule="evenodd" d="M55.3458 39.654V56.2397H56.4791C58.1852 56.2397 58.6605 53.6928 58.6605 52.6082V43.1881C58.6605 39.849 56.9544 39.654 56.4791 39.654H55.3458ZM56.4913 77.0419H45.8647V69.986C45.8647 69.986 46.9981 69.401 46.9981 67.0369V44.3214C46.9981 42.7006 45.8647 41.7745 45.8647 41.7745V34.7063C51.6533 32.2569 56.5035 31.5622 56.5035 31.5622C60.1838 30.9895 63.3157 31.5866 65.229 33.6583C66.4232 34.9501 67.91 36.3271 67.8125 40.5193C67.8125 40.5193 67.8125 54.0949 67.8125 54.3874C67.9221 62.2842 64.3515 64.3559 60.2935 64.6727H55.358V67.0247C55.358 69.3767 56.4913 69.9738 56.4913 69.9738V77.0297V77.0419Z" fill="white"/>
<path d="M55.3458 39.654V56.2397H56.4791C58.1852 56.2397 58.6605 53.6928 58.6605 52.6082V43.1881C58.6605 39.849 56.9544 39.654 56.4791 39.654H55.3458ZM56.4913 77.0419H45.8647V69.986C45.8647 69.986 46.9981 69.401 46.9981 67.0369V44.3214C46.9981 42.7006 45.8647 41.7745 45.8647 41.7745V34.7063C51.6533 32.2569 56.5035 31.5622 56.5035 31.5622C60.1838 30.9895 63.3157 31.5866 65.229 33.6583C66.4232 34.9501 67.91 36.3271 67.8125 40.5193C67.8125 40.5193 67.8125 54.0949 67.8125 54.3874C67.9221 62.2842 64.3515 64.3559 60.2935 64.6727H55.358V67.0247C55.358 69.3767 56.4913 69.9738 56.4913 69.9738V77.0297V77.0419Z" fill="white"/>
<path fill-rule="evenodd" clip-rule="evenodd" d="M67.8247 66.6103L73.2476 29.1249L87.6154 27.7966L92.3316 67.0369C92.3316 69.3888 93.4649 69.986 93.4649 69.986V77.0419H81.1444V69.986C81.1444 69.986 82.2778 69.401 82.2778 67.0369V64.6849H76.672V67.0369C76.672 69.3888 77.8054 69.986 77.8054 69.986V77.0419H66.6548V69.986C66.6548 69.986 67.7881 69.401 67.7881 67.0369V66.5982L67.8247 66.6103ZM77.2813 57.6411H81.705L79.4018 38.3379L77.2692 57.6411H77.2813Z" fill="white"/>
<path d="M67.8247 66.6103L73.2476 29.1249L87.6154 27.7966L92.3316 67.0369C92.3316 69.3888 93.4649 69.986 93.4649 69.986V77.0419H81.1444V69.986C81.1444 69.986 82.2778 69.401 82.2778 67.0369V64.6849H76.672V67.0369C76.672 69.3888 77.8054 69.986 77.8054 69.986V77.0419H66.6548V69.986C66.6548 69.986 67.7881 69.401 67.7881 67.0369M77.2813 57.6411H81.705L79.4018 38.3379L77.2692 57.6411H77.2813Z" fill="white"/>
<path fill-rule="evenodd" clip-rule="evenodd" d="M153.483 11.7477L152.301 11.3943C152.301 11.3943 142.759 8.93264 139.968 8.93264L140.651 5.42295C141.138 3.27814 128.354 0 107.43 0C86.5063 0 73.479 2.81506 73.9665 4.95987L74.8927 8.94482C72.102 8.94482 62.56 11.4065 62.56 11.4065L61.3779 11.7599L62.0726 12.5154L67.3615 17.8409L66.2159 26.8467L66.0941 27.8825L67.1055 27.6388C70.8102 26.7614 76.1479 24.8603 79.5479 24.8603C79.5479 24.8603 81.3027 24.8237 83.0697 24.6775C85.7873 24.4459 81.5586 21.9355 81.5586 21.9355C81.4489 20.985 97.6325 19.547 107.418 19.5957C117.204 19.5592 133.387 20.985 133.278 21.9355C133.278 21.9355 129.037 24.4581 131.767 24.6775C133.521 24.8237 135.289 24.8603 135.289 24.8603C138.701 24.8603 144.026 26.7614 147.731 27.6388L148.742 27.8825L148.62 26.8467L147.475 17.8409L152.764 12.5154L153.458 11.7599L153.483 11.7477ZM135.337 20.8753C134.46 19.6932 118.873 17.9384 107.418 18.0846C95.9751 17.9384 80.3765 19.7054 79.4991 20.8753C79.4991 20.8753 76.3185 6.48317 76.1235 5.7398C75.831 4.5699 89.8088 1.62079 107.418 1.62079C125.028 1.62079 138.762 5.03299 138.469 6.20288C138.286 6.94625 135.337 20.8753 135.337 20.8753Z" fill="white"/>
<path fill-rule="evenodd" clip-rule="evenodd" d="M82.5702 16.221L82.5336 15.8311L83.6669 15.7214L82.7652 6.37441L81.6562 6.48409L81.6196 6.09413L88.4318 5.52137C91.5759 5.21671 92.2462 6.67907 92.3802 8.08051C92.5143 9.51851 92.1487 11.2002 89.0046 11.5049L87.006 11.6999L87.3716 15.4655L88.7243 15.3314L88.7609 15.7214L82.5702 16.2332V16.221ZM86.9573 11.2977L87.5057 11.249C88.1515 11.188 89.1508 10.335 89.029 9.1651L88.8218 7.6418C88.7609 6.97155 87.8103 5.97226 86.9085 6.06975L86.4454 6.1185L86.9451 11.3099L86.9573 11.2977Z" fill="white"/>
<path fill-rule="evenodd" clip-rule="evenodd" d="M94.1231 15.2324L94.1109 14.8424L95.2199 14.7815L94.6958 5.39797L93.5869 5.45891L93.5625 5.06894L99.3145 4.69116L99.3267 5.08113L98.2177 5.14206L98.7417 14.5256L99.8507 14.4647L99.8751 14.8546L94.1231 15.2324Z" fill="white"/>
<path fill-rule="evenodd" clip-rule="evenodd" d="M109.916 4.50901V4.95991L105.249 14.3313H106.102C107.479 14.3191 108.966 13.271 109.478 10.7972H109.965L109.88 14.6847L101.471 14.7822V14.2216L106.065 4.95991H105.566C103.75 4.9721 102.531 6.47102 102.081 8.17712H101.654L101.8 4.59432L109.916 4.49683V4.50901Z" fill="white"/>
<path fill-rule="evenodd" clip-rule="evenodd" d="M121.128 4.92301L121.104 5.3739L115.876 14.4406L116.729 14.4893C118.106 14.5625 119.654 13.6119 120.312 11.1746L120.799 11.199L120.47 15.0865L112.074 14.7331L112.098 14.1725L117.241 5.20329L116.741 5.17892C114.925 5.08143 113.609 6.49505 113.073 8.17678L112.646 8.15241L113.012 4.58179L121.128 4.92301Z" fill="white"/>
<path fill-rule="evenodd" clip-rule="evenodd" d="M121.871 15.2937L121.908 14.9037L122.249 14.9403C122.712 14.989 123.151 14.1603 123.455 13.551L127.294 5.60547L129.5 5.73952L132.12 15.8421L132.924 15.9274L132.888 16.3173L127.428 15.8299L127.465 15.4399L128.513 15.5496L127.782 12.5152L124.832 12.2105L124.089 13.6607C123.565 14.7209 124.126 15.0987 124.503 15.1352L124.893 15.1718L124.857 15.5618L121.883 15.2815L121.871 15.2937ZM126.697 8.21336L124.991 11.7962L127.66 12.0643L126.697 8.21336Z" fill="white"/>
</svg>
