<svg width="171" height="158" viewBox="0 0 171 158" fill="none" xmlns="http://www.w3.org/2000/svg">
<g clip-path="url(#clip0_410_19966)">
<path d="M89.2239 5.02257C89.4219 5.22051 89.6169 5.41551 89.8148 5.61345C90.2255 6.07434 90.6214 6.54705 91.0586 6.98135C91.165 7.08771 91.4073 7.05817 91.5875 7.09067C91.7263 7.66087 92.1843 7.27384 92.4738 7.38611C92.589 7.48361 92.6954 7.6461 92.8224 7.66678C93.0942 7.7111 93.3779 7.68155 93.6556 7.68155C93.6999 7.90609 93.5079 8.24585 93.951 8.27244C93.9215 9.00514 94.2671 9.65511 94.4178 10.3465C94.4651 10.5621 94.6926 10.7394 94.8373 10.9314C94.9348 11.2801 95.0796 11.6257 95.121 11.9803C95.1712 12.4146 95.1328 12.8577 95.1328 13.295V14.1813C95.2303 14.2788 95.3307 14.3792 95.4282 14.4767V15.0676C95.3455 15.1001 95.2657 15.1326 95.183 15.1651C95.2657 15.2301 95.3455 15.2981 95.4282 15.3631V17.4312C95.3957 17.7118 95.4637 18.09 95.3071 18.2525C94.8787 18.6986 95.3219 19.0797 95.316 19.4638C94.5124 19.582 95.0442 20.6958 94.214 20.7283C94.3912 21.7269 93.9894 22.5246 93.6556 23.34V23.6355C93.5581 23.733 93.4576 23.8334 93.3601 23.9309C92.4502 24.5248 92.0218 25.5411 91.292 26.2945C90.6834 26.6845 90.0305 26.9149 89.4987 27.5353C88.9905 28.1292 88.2106 28.5398 87.7467 29.2489C87.5665 29.2814 87.2799 29.2548 87.2267 29.3523C86.7215 30.2859 85.7377 30.8709 85.3832 31.9079C85.135 32.2063 84.8839 32.5017 84.6387 32.8001C84.0005 33.583 83.3623 34.3719 82.7242 35.1578C82.281 35.1843 82.4731 35.5241 82.4287 35.7486C81.7404 36.437 81.049 37.1284 80.3606 37.8167C80.2631 37.9142 80.1627 38.0147 80.0652 38.1122H79.7697C79.5541 38.1801 79.2941 38.192 79.1375 38.322C78.783 38.6174 78.4787 38.9719 78.071 39.3855C78.0148 38.9867 77.9794 38.7208 77.9173 38.2688C77.5864 38.7031 77.3442 39.0133 77.1137 39.3324C76.8124 39.7489 76.5819 40.2571 75.9319 40.1773C75.8138 39.7933 75.6956 39.4121 75.5745 39.0192H75.0279C74.5936 39.4535 74.2627 39.7874 73.8609 40.1862V41.0637C73.4709 41.1848 73.0809 41.3089 72.7028 41.4271C72.7116 41.9264 72.6791 42.4463 72.168 42.5172C71.3821 42.6236 71.5948 43.2795 71.4589 43.5838C71.1162 43.7906 70.8799 43.9324 70.6849 44.0506V45.5544C70.8592 45.3949 70.9626 45.3033 71.063 45.2087C70.868 45.776 71.2137 46.5944 70.3126 46.8278V48.1513C69.8192 48.7422 69.3288 49.3331 68.8354 49.924C68.3597 50.184 67.9048 50.4558 67.9491 51.1058C67.7689 51.1383 67.435 51.159 67.4291 51.2092C67.3877 51.6553 67.1396 51.7055 66.7584 51.7203C66.5634 51.7262 66.3744 51.9626 66.0907 52.1576C66.4807 52.5091 66.9209 52.775 67.1661 53.165C67.4764 53.6554 67.8279 53.9686 68.3952 54.0661C68.5695 54.0957 68.7527 54.1666 68.8915 54.2729C70.1029 55.1799 71.6273 55.5049 72.8446 56.409C73.0011 56.5272 73.3202 56.4238 73.5654 56.4238H73.8609C73.9229 57.0855 74.0854 57.248 74.7472 57.3101H75.0427C75.1579 57.7769 75.4711 57.9482 75.929 57.901H76.2244C76.2983 57.9985 76.3633 58.1078 76.449 58.1935C76.5612 58.3028 76.6912 58.3944 76.8153 58.4919C76.8419 58.935 77.1817 58.743 77.4062 58.7873H77.7016C77.7282 59.2305 78.068 59.0384 78.2925 59.0827L80.0652 59.9691C80.1627 60.0666 80.2631 60.167 80.3606 60.2645C81.1406 59.9159 81.439 60.9529 82.1687 60.8879C82.4671 60.8613 82.798 61.2099 83.1142 61.3901C83.8616 61.8185 84.5234 62.4065 85.3832 62.6251C85.457 62.7226 85.5132 62.8467 85.6077 62.9146C85.912 63.1362 86.4084 63.0476 86.5649 63.5114L86.8604 63.8069H87.1558L87.4513 64.1023C87.6492 64.1998 87.8442 64.3003 88.0422 64.3978C88.1397 64.4953 88.2401 64.5957 88.3376 64.6932C88.3878 64.6932 88.444 64.6755 88.4824 64.6932C88.8428 64.8852 89.2978 65.0064 89.5371 65.3018C89.865 65.7036 90.5091 65.3107 90.6982 65.875C90.7957 65.9725 90.8961 66.0729 90.9936 66.1704C91.2064 66.2354 91.4309 66.2709 91.6229 66.3684C91.8209 66.4688 91.9922 66.6284 92.1754 66.7613C92.202 67.2045 92.5418 67.0124 92.7663 67.0567C93.0617 67.1542 93.3572 67.2547 93.6526 67.3522C93.7915 67.9224 94.2494 67.5354 94.5389 67.6476H95.4253C95.5228 67.7451 95.6232 67.8456 95.7207 67.9431H96.0162C96.155 68.5133 96.613 68.1263 96.9025 68.2385H97.1979L97.4934 68.534H98.6751C98.7726 68.6315 98.8731 68.7319 98.9706 68.8294H99.5615V69.1248C99.6797 69.2223 99.789 69.3937 99.916 69.4055C100.285 69.4439 100.663 69.4203 101.039 69.4203H101.925C101.999 69.5178 102.073 69.6182 102.15 69.7157C102.271 69.6182 102.395 69.5178 102.516 69.4203H103.698L103.993 69.7157C104.091 69.8132 104.191 69.9137 104.289 70.0112H105.47C105.503 70.0939 105.535 70.1737 105.568 70.2564L105.766 70.0112C106.055 70.1235 106.513 69.7364 106.652 70.3066C106.767 70.4041 106.874 70.5666 107.001 70.5873C107.273 70.6316 107.556 70.6021 107.834 70.6021C108.345 70.6109 108.877 70.5105 109.311 70.8975C109.429 70.995 109.539 71.1664 109.666 71.1782C110.035 71.2166 110.413 71.193 110.788 71.193H111.084C111.116 71.2757 111.149 71.3554 111.181 71.4382L111.379 71.193H112.266C112.363 71.2905 112.463 71.3909 112.561 71.4884C112.939 71.6273 113.317 71.7691 113.71 71.9138C113.755 72.0556 113.808 72.2241 113.855 72.3747H114.925C115.022 72.4722 115.122 72.5727 115.22 72.6702H115.811C115.885 72.7677 115.959 72.8681 116.035 72.9656C116.157 72.8681 116.281 72.7677 116.402 72.6702H118.174C118.248 72.7677 118.322 72.8681 118.399 72.9656C118.52 72.8681 118.644 72.7677 118.765 72.6702H119.356C119.398 72.8799 119.223 73.1961 119.578 73.2433C119.687 73.2581 119.823 73.0631 119.947 72.9656H120.538C120.913 73.3645 121.345 73.3645 121.72 72.9656H123.197C123.294 73.0631 123.395 73.1636 123.492 73.2611H123.788C124.163 73.6599 124.594 73.6599 124.97 73.2611H125.265C125.363 73.3586 125.463 73.459 125.56 73.5565H126.151C126.178 73.9997 126.518 73.8076 126.742 73.8519H127.038C127.262 73.8076 127.602 73.9997 127.629 73.5565H128.515V73.8519C128.996 74.2774 129.511 74.2774 129.992 73.8519H130.583C130.958 74.2508 131.39 74.2508 131.765 73.8519H132.356C132.397 74.0617 132.223 74.3778 132.577 74.4251C132.687 74.4399 132.822 74.2449 132.947 74.1474H134.424C134.424 74.1947 134.409 74.2833 134.424 74.2892C135.109 74.5344 135.795 74.5078 136.489 74.3069C136.743 74.2331 137.106 74.106 137.263 74.2183C137.901 74.6762 138.522 74.3512 139.151 74.3985V73.8519H139.742L141.29 74.4428C141.364 74.3926 141.446 74.3512 141.511 74.2892C141.535 74.2656 141.514 74.1976 141.514 74.1474H142.401C142.516 74.2449 142.622 74.4074 142.749 74.4281C143.021 74.4724 143.305 74.4428 143.583 74.4428H143.878C143.905 74.886 144.244 74.694 144.469 74.7383V75.6246C144.354 75.7221 144.247 75.8846 144.12 75.9053C143.848 75.9496 143.565 75.92 143.287 75.92C143.009 75.92 142.726 75.8905 142.454 75.9348C142.327 75.9555 142.221 76.118 142.105 76.2155C141.987 76.313 141.857 76.508 141.757 76.4932C141.278 76.4312 140.808 76.313 140.333 76.2155C139.774 76.3307 139.213 76.443 138.657 76.573C138.61 76.5848 138.592 76.7236 138.56 76.8064V77.1018H137.083C136.985 77.1993 136.885 77.2998 136.787 77.3973C136.575 77.4623 136.362 77.5391 136.143 77.5923C135.966 77.6366 135.783 77.6602 135.606 77.6927C135.508 77.7902 135.408 77.8906 135.31 77.9882C134.826 77.8995 134.631 78.0945 134.719 78.579C134.247 78.579 133.774 78.5583 133.304 78.5938C133.18 78.6027 133.065 78.777 132.947 78.8745H131.765C131.732 78.7918 131.7 78.712 131.667 78.6293L131.469 78.8745H130.878C130.781 78.972 130.681 79.0724 130.583 79.1699C130.019 79.2379 130.441 79.7401 130.178 79.8997C129.723 80.2483 129.265 80.594 128.81 80.9426C128.713 81.0401 128.612 81.1405 128.515 81.238C128.417 81.3355 128.317 81.436 128.219 81.5335H126.488C125.8 81.9441 125.244 82.275 124.674 82.6148V83.0107C124.577 83.1082 124.476 83.2086 124.379 83.3061C124.352 83.7493 124.012 83.5573 123.788 83.6016C123.563 83.6459 123.224 83.4538 123.197 83.897C123.076 83.9945 122.958 84.1747 122.831 84.1806C122.065 84.2072 121.3 84.1925 120.538 84.1925C120.44 84.2899 120.34 84.3904 120.243 84.4879H119.406C119.398 85.0167 119.146 85.1349 118.765 85.0788C118.612 85.2649 118.458 85.451 118.281 85.6667C117.64 85.714 116.866 85.4865 116.402 86.2606C116.106 86.4585 115.811 86.6535 115.515 86.8514C115.418 86.9489 115.317 87.0494 115.22 87.1469H114.629C114.532 87.2444 114.431 87.3448 114.334 87.4423H114.038C113.941 87.5398 113.84 87.6403 113.743 87.7378H113.447C113.35 87.8353 113.249 87.9357 113.152 88.0332C113.054 88.1307 112.954 88.2312 112.856 88.3287H112.561C112.463 88.4262 112.363 88.5266 112.266 88.6241H111.97C111.317 88.633 110.617 88.5089 110.197 89.215C110.1 89.3125 109.999 89.4129 109.902 89.5104C109.804 89.6079 109.704 89.7084 109.607 89.8059C109.509 89.9034 109.409 90.0038 109.311 90.1013V90.3968C108.827 90.3081 108.632 90.5031 108.72 90.9876C108.812 91.7883 107.99 91.9478 107.722 92.4649H106.948C106.874 92.3674 106.744 92.1753 106.735 92.1842C106.413 92.3762 105.922 92.2994 105.766 92.7603C105.568 92.8578 105.373 92.9583 105.175 93.0557C105.077 93.1532 104.977 93.2537 104.879 93.3512C104.879 93.7471 104.566 93.5905 104.368 93.6555C104.227 93.7028 104.117 93.8416 103.993 93.9421H103.107C103.033 93.8446 102.959 93.7441 102.882 93.6466C102.761 93.7441 102.637 93.8446 102.516 93.9421C102.22 94.0396 101.925 94.14 101.63 94.2375C100.864 94.2375 100.099 94.2257 99.337 94.2493C99.2129 94.2523 99.0947 94.4325 98.9706 94.533H98.6751C98.4506 94.5773 98.1109 94.3852 98.0843 94.8284H97.7888C97.5643 94.8727 97.2245 94.6807 97.1979 95.1238C96.9734 95.1682 96.6336 94.9761 96.607 95.4193H95.1298C94.9053 95.4636 94.5655 95.2716 94.5389 95.7147V96.0102H93.4104C93.3985 95.4843 93.1504 95.3632 92.7663 95.4193C92.7338 95.3366 92.7013 95.2568 92.6688 95.1741L92.4708 95.4193H91.5845C91.487 95.3218 91.3866 95.2213 91.2891 95.1238C91.0911 94.9466 90.7514 94.79 90.7277 94.5891C90.6657 94.1105 90.3614 94.2641 90.1073 94.2375C90.0807 93.7943 89.741 93.9864 89.5164 93.9421C88.9255 93.7441 88.3346 93.5491 87.7438 93.3512C87.7113 93.2685 87.6788 93.1887 87.6463 93.106L87.4483 93.3512C86.9372 93.4162 86.6831 93.1532 86.5502 92.6894C86.5236 92.5949 86.364 92.5387 86.2665 92.4649C86.24 92.0217 85.9002 92.2137 85.6757 92.1694C85.3802 92.0719 85.0848 91.9715 84.7893 91.874V90.9876C84.7627 90.5445 84.423 90.7365 84.1984 90.6922C84.1305 90.5947 84.0832 90.4411 83.9916 90.4056C83.6755 90.2815 83.3446 90.1988 83.0167 90.1013C82.8187 90.0038 82.6237 89.9034 82.4258 89.8059C82.3283 89.7084 82.2278 89.6079 82.1303 89.5104C82.0328 89.4129 81.9324 89.3125 81.8349 89.215C81.8083 88.7718 81.4685 88.9639 81.244 88.9195C80.7861 88.9668 80.4729 88.7955 80.3577 88.3287C80.2602 88.2312 80.1597 88.1307 80.0622 88.0332C79.8495 87.9682 79.625 87.9328 79.4329 87.8353C79.235 87.7348 79.0636 87.5753 78.8805 87.4423C78.8361 87.2178 79.0282 86.878 78.585 86.8514L77.4032 85.6697C77.3058 85.5722 77.2053 85.4717 77.1078 85.3742H76.8124C76.7149 85.2767 76.6144 85.1763 76.5169 85.0788H76.2215C75.8463 84.6799 75.4149 84.6799 75.0397 85.0788C74.9274 85.1408 74.8211 85.2176 74.7029 85.2649C74.3838 85.392 74.0382 85.6047 73.8579 85.0788C73.7604 84.9813 73.66 84.8808 73.5625 84.7833C73.3852 84.7538 73.1814 84.7686 73.0336 84.6858C72.2182 84.2397 71.4146 83.77 70.6081 83.3061L70.3126 83.0107H69.7217C69.6892 82.928 69.6567 82.8482 69.6242 82.7655L69.4263 83.0107C69.2018 82.9664 68.862 83.1584 68.8354 82.7152C68.8088 82.2721 68.4691 82.4641 68.2445 82.4198C67.5945 82.0889 66.9682 81.6664 66.1764 81.8289C66.265 81.3444 66.0701 81.1494 65.5855 81.238C65.2221 80.7299 64.5781 80.6855 64.1083 80.3517L63.8129 80.0563L63.5174 79.7608L63.222 79.4654C62.9265 79.3679 62.6045 79.3117 62.3386 79.1581C62.1052 79.0222 61.9427 78.7652 61.73 78.5879C61.6739 78.5406 61.5439 78.582 61.4464 78.582C61.4198 78.1388 61.08 78.3309 60.8555 78.2865C60.8289 77.8434 60.4891 78.0354 60.2646 77.9911C60.1671 77.8936 60.0667 77.7932 59.9692 77.6957V77.1048H59.0828C58.4772 77.0014 57.8745 76.8891 57.6056 76.2184C57.579 75.7753 57.2393 75.9673 57.0147 75.923C56.7902 75.8787 56.4504 76.0707 56.4238 75.6275L56.1284 75.3321H55.833L55.5375 75.0367H55.2421C55.0087 74.1946 54.3114 74.5049 53.7648 74.4458H53.4694L53.174 74.1503H52.5831L52.2876 73.8549H51.9922C51.9656 73.4117 51.6258 73.6038 51.4013 73.5594H49.9241C49.8266 73.462 49.7261 73.3615 49.6286 73.264C49.1234 73.2404 48.6123 73.202 48.4469 73.8549L47.2651 75.0367C47.1676 75.1519 47.0051 75.2582 46.9844 75.3853C46.9401 75.6571 46.9697 75.9407 46.9697 76.2184C46.7717 76.4164 46.5767 76.6114 46.3788 76.8093C45.8145 77.155 45.7613 77.7045 45.7879 78.2865V79.7638C45.3447 79.7904 45.5368 80.1301 45.4924 80.3547V80.9455C45.3949 81.1435 45.2945 81.3385 45.197 81.5364V82.4228C45.0995 82.7182 44.9991 83.0136 44.9016 83.3091C44.8041 83.4066 44.7036 83.507 44.6061 83.6045V83.9L44.3107 84.1954V84.4909C43.7405 84.6297 44.1275 85.0876 44.0152 85.3772V86.559C43.6105 86.8574 43.6105 87.1469 44.0152 87.4453V88.0362H43.51C43.4568 88.178 43.4155 88.2282 43.4273 88.2607C43.5691 88.6684 43.0787 89.2239 43.7198 89.5134V90.3997C43.7641 90.6243 43.5721 90.964 44.0152 90.9906V94.2405C43.9502 94.4532 43.8734 94.6659 43.8202 94.8845C43.7759 95.0618 43.7523 95.245 43.7198 95.4222C43.4243 95.6202 43.1289 95.8152 42.8335 96.0131C42.736 96.1106 42.6355 96.2111 42.538 96.3086C42.408 96.7872 42.278 97.2658 42.1805 97.6263C41.4567 98.1108 40.8156 98.5392 40.1745 98.9676L39.879 99.263C39.7638 99.3605 39.6574 99.523 39.5304 99.5437C39.2586 99.588 38.975 99.5584 38.6973 99.5584C38.4077 99.6707 37.9498 99.2837 37.8109 99.8539C37.7134 99.9514 37.613 100.052 37.5155 100.149H37.22C37.1225 100.052 37.0221 99.9514 36.9246 99.8539H36.6292C36.5317 99.7564 36.4312 99.6559 36.3337 99.5584C35.9408 99.3605 35.5449 99.1655 35.1519 98.9676C35.1253 98.5244 34.7856 98.7164 34.5611 98.6721C34.4222 98.1019 33.9643 98.4889 33.6747 98.3767C33.4147 97.901 33.1429 97.446 32.4929 97.4903H32.1975C32.1 97.3929 31.9996 97.2924 31.9021 97.1949C31.8046 97.0974 31.7041 96.997 31.6066 96.8995C31.58 96.4563 31.2403 96.6483 31.0157 96.604L30.7203 96.0131C30.6228 95.9156 30.5223 95.8152 30.4248 95.7177C30.3274 95.6202 30.2269 95.5197 30.1294 95.4222C29.8931 95.2361 29.6242 95.0766 29.4292 94.852C29.2194 94.6157 29.1338 94.1666 28.8915 94.0721C27.8634 93.6673 27.7777 92.7101 27.4704 91.874C27.3729 91.7765 27.2725 91.676 27.175 91.5785C27.11 91.3658 27.0538 91.1472 26.977 90.9374C26.6993 90.1811 26.2621 89.472 26.2886 88.6241C26.2443 88.3996 26.4364 88.0598 25.9932 88.0332V87.7378C25.9489 87.5132 26.1409 87.1735 25.6978 87.1469V86.8514C25.6534 86.6269 25.8455 86.2871 25.4023 86.2606V85.9651C25.4998 85.8913 25.6003 85.8174 25.6978 85.7406C25.6003 85.6194 25.4998 85.4954 25.4023 85.3742C24.8321 85.2354 25.2191 84.7774 25.1069 84.4879C25.2044 84.3904 25.3048 84.2899 25.4023 84.1925V83.6016C25.9725 83.4627 25.5855 83.0048 25.6978 82.7152C25.7953 82.2218 25.8957 81.7314 25.9932 81.238C26.1705 81.0076 26.5723 80.0297 26.525 79.8642C26.5102 79.811 26.3714 79.7963 26.2886 79.7608C26.2886 79.3708 26.2502 78.9749 26.3005 78.5909C26.3507 78.1861 26.4866 77.7932 26.5841 77.3973C26.6816 77.2998 26.782 77.1993 26.8795 77.1018V75.6246C27.3227 75.598 27.1307 75.2582 27.175 75.0337V74.7383C27.3581 74.6053 27.5945 74.5078 27.7068 74.3306C27.8338 74.1326 27.8309 73.8726 27.4704 73.8519V72.9656C27.8693 72.5904 27.8693 72.159 27.4704 71.7838V70.6021C27.5679 70.5046 27.6684 70.4041 27.7659 70.3066C28.209 70.28 28.017 69.9403 28.0613 69.7157C28.1588 69.2223 28.2592 68.7319 28.3567 68.2385H28.9683C28.7851 67.0686 29.4706 66.0788 29.2431 64.9886C29.3406 64.4953 29.441 64.0048 29.5385 63.5114C29.636 63.3933 29.8103 63.278 29.8192 63.1539C29.8517 62.6842 29.834 62.2115 29.834 61.7388C29.9315 61.4433 30.0319 61.1479 30.1294 60.8524C30.2269 60.7549 30.3274 60.6545 30.4248 60.557V59.3752C30.8237 59 30.8237 58.5687 30.4248 58.1935V57.0117H30.9241C31.0482 56.6335 31.1812 56.2317 31.3112 55.8299V55.239H31.6066L31.9021 54.9436V53.4664C31.9493 53.4664 32.038 53.4723 32.038 53.4664C32.1591 52.5741 32.5343 51.7262 32.4929 50.8074V50.2165L33.0838 48.6684C33.0336 48.5945 32.9922 48.5118 32.9302 48.4468C32.9066 48.4232 32.8386 48.4438 32.7884 48.4438V47.5575C32.8859 47.46 32.9863 47.3596 33.0838 47.2621V46.3757C33.1813 46.2546 33.3616 46.1364 33.3645 46.0123C33.394 45.3476 33.3793 44.6799 33.3793 44.0122V43.4213H33.9702V40.7623H34.5611V38.9897C34.6585 38.6942 34.759 38.3988 34.8565 38.1033C34.8565 37.6306 34.8772 37.1579 34.8417 36.6882C34.8329 36.5641 34.6585 36.4488 34.5611 36.3307V35.4443C35.0042 35.4178 34.8122 35.078 34.8565 34.8535C34.954 34.756 35.0544 34.6555 35.1519 34.558V34.2626C35.1519 33.9287 35.016 33.4944 35.1756 33.2758C35.728 32.5224 35.3085 31.707 35.4326 30.9359C35.4415 30.8797 35.2494 30.7911 35.1519 30.7173V30.1264C35.5951 30.0998 35.4031 29.76 35.4474 29.5355V28.3537C35.5449 28.2355 35.7162 28.1262 35.7281 27.9992C35.7665 27.6269 35.7428 27.2517 35.7428 26.8765V25.3993C35.8403 25.3254 35.9408 25.2516 36.0383 25.1747C35.9408 25.0536 35.8403 24.9295 35.7428 24.8084V23.9221C36.2303 23.8718 36.0885 23.4434 36.0176 23.2662C35.6394 22.303 35.7487 21.3103 35.7458 20.3206C35.7458 19.8331 35.5685 19.455 35.1519 19.195V18.3086C35.1519 17.9334 35.1756 17.5553 35.1372 17.186C35.1253 17.0589 34.954 16.9496 34.8565 16.8314C34.8565 16.3114 34.8447 15.7915 34.8594 15.2715C34.8713 14.8342 34.6733 14.5801 34.2656 14.4679V13.5816C34.2213 13.357 34.4133 13.0173 33.9702 12.9907C33.8727 12.7927 33.7722 12.5977 33.6747 12.3998C33.5772 12.3023 33.4768 12.2018 33.3793 12.1043V11.5135C33.2818 11.416 33.1813 11.3155 33.0838 11.218V10.6271C33.1666 10.5946 33.2463 10.5621 33.3291 10.5296C33.2463 10.4646 33.1666 10.3967 33.0838 10.3317V10.0362C33.0247 9.48967 33.335 8.79242 32.4929 8.55902V7.96813C32.8918 7.59292 32.8918 7.16157 32.4929 6.78636C32.3955 6.68886 32.295 6.58841 32.1975 6.49092C32.1 6.19547 31.9996 5.90003 31.9021 5.60459C31.8046 5.30914 31.7041 5.0137 31.6066 4.71826C32.1768 4.5794 31.7898 4.12146 31.9021 3.83193V3.24104C32.1 3.0431 32.295 2.8481 32.4929 2.65016C32.7175 2.60584 33.0572 2.79788 33.0838 2.35471H33.3793C33.4768 2.25722 33.5772 2.15677 33.6747 2.05927H34.2656C34.6408 2.05927 35.019 2.03564 35.3883 2.07404C35.5153 2.08586 35.6246 2.25722 35.7428 2.35471C35.858 2.45221 35.9644 2.6147 36.0914 2.63539C36.3633 2.6797 36.6469 2.65016 36.9246 2.65016H37.5155C37.5421 3.09332 37.8818 2.90128 38.1064 2.9456C38.2039 3.0431 38.3043 3.14355 38.4018 3.24104C38.5998 3.33854 38.7947 3.43899 38.9927 3.53649C39.0193 3.97965 39.359 3.78761 39.5836 3.83193C40.1774 4.05647 40.721 4.31941 40.9278 5.00779C40.9663 5.14074 41.2085 5.21165 41.3562 5.30914C41.3828 5.75231 41.7226 5.56027 41.9471 5.60459C42.0446 5.70208 42.1451 5.80254 42.2426 5.90003C42.3401 5.99753 42.4405 6.09798 42.538 6.19547C42.6355 6.29297 42.736 6.39342 42.8335 6.49092C43.0314 6.68886 43.2264 6.88386 43.4243 7.0818C43.5218 7.1793 43.6223 7.27975 43.7198 7.37725C43.8173 7.47474 43.9177 7.57519 44.0152 7.67269C44.2132 7.77019 44.4082 7.87064 44.6061 7.96813C44.6327 8.4113 44.9725 8.21926 45.197 8.26358C45.262 8.47629 45.2974 8.70083 45.3949 8.89287C45.4954 9.09082 45.6549 9.26217 45.7879 9.44535C45.8322 9.66988 45.6402 10.0096 46.0833 10.0362C46.1808 10.3317 46.2813 10.6271 46.3788 10.9226C46.4763 11.0201 46.5767 11.1205 46.6742 11.218C46.8722 11.3155 47.0672 11.416 47.2651 11.5135C47.2651 12.3289 47.918 12.8666 48.1514 13.5816C48.1957 13.8061 48.0037 14.1458 48.4469 14.1724V14.4679C48.5444 14.5654 48.6448 14.6658 48.7423 14.7633C48.7748 15.041 48.7778 15.3247 48.8428 15.5965C49.0112 16.3026 49.3657 16.9644 49.3332 17.7178V18.8995C49.3775 19.1241 49.1855 19.4638 49.6286 19.4904V19.7859C49.6286 20.2586 49.608 20.7313 49.6434 21.201C49.6523 21.3251 49.8266 21.4403 49.9241 21.5585V23.0357C49.5193 23.3341 49.5193 23.6237 49.9241 23.9221V24.5129C49.8266 24.6104 49.7261 24.7109 49.6286 24.8084C49.5311 24.8822 49.4307 24.9561 49.3332 25.0329C49.4307 25.1541 49.5311 25.2781 49.6286 25.3993V25.9902C49.1855 26.0168 49.3775 26.3565 49.3332 26.581V27.7628C48.9284 28.0612 48.9284 28.3508 49.3332 28.6492V29.24C49.2505 29.2725 49.1707 29.305 49.088 29.3375L49.3332 29.5355V30.7173C49.2505 30.7527 49.0939 30.7852 49.0939 30.8207C49.0791 31.639 49.0791 32.4574 49.0939 33.2728C49.0939 33.3083 49.2505 33.3408 49.3332 33.3762V33.9671C49.4455 34.2567 49.0584 34.7146 49.6286 34.8535V35.4443C49.5311 35.5182 49.4307 35.5921 49.3332 35.6689C49.4307 35.79 49.5311 35.9141 49.6286 36.0352V36.6261C49.2298 37.0013 49.2298 37.4327 49.6286 37.8079V38.3988H49.0378V39.8494H50.0925C50.7306 39.2585 51.3127 38.6617 52.0217 38.1654C52.6983 37.6927 53.1917 36.9511 53.7648 36.3277C53.8623 36.2302 53.9628 36.1298 54.0603 36.0323C54.1342 35.9348 54.1932 35.8225 54.2819 35.7398C54.4975 35.5359 54.725 35.3439 54.9466 35.1459C55.0441 35.0484 55.1446 34.948 55.2421 34.8505C55.6852 34.8239 55.4932 34.4841 55.5375 34.2596C55.7355 34.038 55.9275 33.8105 56.1313 33.5949C56.2141 33.5062 56.3263 33.4471 56.4238 33.3733C56.6484 33.329 56.9881 33.521 57.0147 33.0778C57.1122 32.9803 57.2127 32.8799 57.3102 32.7824C57.4106 32.5342 57.449 32.1295 57.6174 32.0674C58.4978 31.7424 58.8612 30.8029 59.6737 30.4189C59.7712 30.3214 59.8717 30.2209 59.9692 30.1234C60.1671 29.828 60.3621 29.5325 60.56 29.2371C60.6575 29.1396 60.758 29.0391 60.8555 28.9416V28.6462C60.953 28.5487 61.0534 28.4482 61.1509 28.3508C62.377 27.6387 63.5204 26.8263 64.4008 25.6918C64.6253 25.6474 64.9651 25.8395 64.9917 25.3963C65.1896 25.1984 65.3846 25.0034 65.5826 24.8054C66.0257 24.7788 65.8337 24.4391 65.878 24.2145C65.9755 24.1171 66.076 24.0166 66.1735 23.9191C66.271 23.8216 66.3714 23.7212 66.4689 23.6237C66.5664 23.4257 66.6668 23.2307 66.7643 23.0328C67.4261 22.9707 67.5886 22.8082 67.6507 22.1464V21.5556H67.9461C67.9786 21.6383 68.0111 21.7181 68.0436 21.8008C68.1086 21.7181 68.1766 21.6383 68.2416 21.5556C68.5015 21.0799 68.7734 20.6249 69.4233 20.6692C69.5208 20.5717 69.6213 20.4713 69.7188 20.3738C70.1797 19.9631 70.6524 19.5672 71.0867 19.13C71.193 19.0236 71.1635 18.7814 71.196 18.6011C71.2935 18.5036 71.3939 18.4032 71.4914 18.3057C72.3394 18.542 72.2182 17.375 72.8889 17.313C72.9391 17.3071 72.9421 16.8048 72.9687 16.533C73.0661 16.4355 73.1666 16.3351 73.2641 16.2376C73.3616 16.1401 73.462 16.0396 73.5595 15.9421C74.2479 15.7206 74.372 15.0233 74.7443 14.5358C74.9245 14.3024 75.1342 14.0927 75.3322 13.874C75.4297 13.7765 75.5301 13.6761 75.6276 13.5786C75.6424 13.2093 75.5745 12.8607 75.8994 12.5209C76.1181 12.2934 76.1181 11.8532 76.2185 11.5105C76.316 11.4366 76.4253 11.3716 76.511 11.286C76.6203 11.1737 76.7119 11.0437 76.8094 10.9196C76.9069 10.8221 77.0074 10.7217 77.1049 10.6242C77.2024 10.3287 77.3028 10.0333 77.4003 9.73784C77.8435 9.71125 77.6514 9.37149 77.6957 9.14695C77.7932 8.949 77.8937 8.75401 77.9912 8.55607C78.455 8.39948 78.3753 7.90904 78.5673 7.58701C78.5732 7.57519 78.3841 7.44815 78.2866 7.37429V6.78341C78.5791 6.29297 78.8893 5.20279 78.8214 4.81871C78.8125 4.77144 78.6648 4.75076 78.5821 4.7153C78.5466 4.28691 78.5968 3.88216 78.8775 3.53353C78.975 3.43604 79.0755 3.33559 79.173 3.23809V2.94265C79.2705 2.82447 79.4448 2.70925 79.4536 2.58516C79.4861 2.11541 79.4684 1.6427 79.4684 1.16999C79.5659 1.07249 79.6663 0.972041 79.7638 0.874545C79.9618 0.777048 80.1568 0.676598 80.3547 0.579102H81.2411C81.3386 0.777048 81.439 0.972041 81.5365 1.16999C81.569 1.25271 81.6015 1.33248 81.634 1.41521L81.8319 1.16999V0.874545H82.7183C82.7449 1.31771 83.0846 1.12567 83.3092 1.16999C83.5071 1.26748 83.7021 1.36793 83.9 1.46543C83.9975 1.56293 84.098 1.66338 84.1955 1.76087C84.293 1.76087 84.3934 1.76087 84.4909 1.76087C84.5884 1.85837 84.6889 1.95882 84.7864 2.05632C84.8839 2.15381 84.9843 2.25426 85.0818 2.35176C85.2798 2.35176 85.4748 2.35176 85.6727 2.35176H85.9682V2.6472C85.9947 3.09037 86.3345 2.89833 86.559 2.94265C86.6565 2.94265 86.757 2.94265 86.8545 2.94265C86.952 3.04014 87.0524 3.14059 87.1499 3.23809C87.7408 3.73148 88.3317 4.22191 88.9226 4.7153C89.0201 4.8128 89.1205 4.91325 89.218 5.01075L89.2239 5.02257Z" fill="black"/>
<path d="M78.2925 6.79515V5.61338C78.39 5.31794 78.4904 5.02249 78.5879 4.72705C78.6706 4.75955 78.8184 4.78319 78.8272 4.83046C78.8952 5.21749 78.5879 6.30472 78.2925 6.79515Z" fill="black"/>
<path d="M79.4743 1.18176C79.4743 1.65447 79.495 2.12718 79.4595 2.59694C79.4507 2.72102 79.2763 2.83624 79.1788 2.95442C79.1788 2.48171 79.1582 2.009 79.1936 1.53925C79.2025 1.41516 79.3768 1.29994 79.4743 1.18176Z" fill="black"/>
<path d="M81.8377 0C82.0356 0.295443 82.2306 0.590886 82.4286 0.886329C82.2306 0.886329 82.0356 0.886329 81.8377 0.886329C81.7756 0.777015 81.7225 0.661793 81.6545 0.558387C81.4772 0.292489 81.4329 0.0738608 81.8377 0Z" fill="black"/>
<path d="M81.2469 0.590904H80.3606C80.3901 0.413638 80.4226 0.233418 80.4522 0.0561523C80.6501 0.118195 80.8628 0.153649 81.0401 0.254099C81.1406 0.310233 81.179 0.475682 81.2469 0.590904Z" fill="black"/>
<path d="M81.8377 1.18176L81.6397 1.42698C81.6072 1.34426 81.5747 1.26449 81.5422 1.18176C81.6397 1.18176 81.7402 1.18176 81.8377 1.18176Z" fill="black"/>
<path d="M85.0876 2.06812C85.1851 2.06812 85.2856 2.06812 85.3831 2.06812C85.4806 2.16561 85.581 2.26606 85.6785 2.36356C85.4806 2.36356 85.2856 2.36356 85.0876 2.36356V2.06812Z" fill="black"/>
<path d="M86.5648 2.95438C86.3402 2.91006 86.0005 3.1021 85.9739 2.65894H86.2693C86.3668 2.75643 86.4673 2.85688 86.5648 2.95438Z" fill="black"/>
<path d="M86.2693 2.65897H85.9739V2.36353C86.0714 2.46102 86.1718 2.56147 86.2693 2.65897Z" fill="black"/>
<path d="M138.858 73.8608H139.154V74.4073C138.524 74.3601 137.904 74.685 137.266 74.2271C137.109 74.1148 136.746 74.2419 136.492 74.3157C135.797 74.5166 135.112 74.5432 134.426 74.298C134.412 74.2921 134.426 74.2064 134.426 74.1562C134.426 73.7603 134.731 73.8667 134.944 73.8637C136.249 73.8548 137.555 73.8608 138.858 73.8608Z" fill="black"/>
<path d="M49.93 25.999V29.2488C49.8443 29.3109 49.7586 29.3729 49.6759 29.4379C50.2461 29.887 49.8443 30.3036 49.6346 30.7261H49.3391V28.658C49.7439 28.3596 49.7439 28.07 49.3391 27.7716V26.5898C49.7823 26.5633 49.5902 26.2235 49.6346 25.999H49.93Z" fill="black"/>
<path d="M35.1577 20.6811V19.2039C35.5743 19.4638 35.7486 19.842 35.7516 20.3295C35.7545 21.3163 35.6452 22.3119 36.0234 23.2751C36.0943 23.4553 36.2361 23.8837 35.7486 23.9309H35.4532V22.7492C35.4532 22.179 35.4709 21.6088 35.4384 21.0415C35.4325 20.9174 35.2552 20.7993 35.1577 20.6811Z" fill="black"/>
<path d="M28.3625 68.2474C28.46 67.7156 28.59 67.1867 28.6491 66.649C28.7053 66.135 28.6846 65.612 28.7171 65.095C28.7171 65.0566 28.8707 65.03 28.9534 64.9975H29.2489C29.4793 66.0877 28.7939 67.0774 28.9741 68.2474H28.3625Z" fill="black"/>
<path d="M119.064 86.2694H116.405C116.868 85.4923 117.645 85.7228 118.284 85.6755C118.461 85.4628 118.614 85.2767 118.768 85.0876V85.383C118.866 85.6785 118.966 85.9739 119.064 86.2694Z" fill="black"/>
<path d="M35.1578 34.2714C35.075 34.2389 34.9244 34.2093 34.9214 34.1709C34.8682 33.0601 34.6762 31.9403 35.1548 30.8679C35.1725 30.8265 35.1548 30.7733 35.1548 30.7261C35.2523 30.7999 35.4443 30.8886 35.4355 30.9447C35.3114 31.7158 35.7309 32.5312 35.1784 33.2846C35.0189 33.5032 35.1548 33.9375 35.1548 34.2714H35.1578Z" fill="black"/>
<path d="M49.339 30.7261H49.6345C49.7054 31.1279 49.342 31.4676 49.596 31.9551C49.794 32.3362 49.6345 32.9035 49.6345 33.3851H49.339C49.2563 33.3496 49.0997 33.3171 49.0997 33.2817C49.0849 32.4633 49.0849 31.6449 49.0997 30.8295C49.0997 30.794 49.2563 30.7615 49.339 30.7261Z" fill="black"/>
<path d="M71.4973 18.3175V17.4311H71.9287C72.1768 16.9308 72.5255 16.6354 72.9745 16.5448C72.9479 16.8166 72.945 17.3189 72.8948 17.3248C72.2211 17.3898 72.3452 18.5538 71.4973 18.3175Z" fill="black"/>
<path d="M29.5442 63.5203H29.0508C28.6461 62.758 29.7097 62.2026 29.3758 61.4788C29.5294 61.5674 29.6831 61.656 29.8397 61.7476C29.8397 62.2203 29.8603 62.693 29.8249 63.1628C29.816 63.2869 29.6417 63.4021 29.5442 63.5203Z" fill="black"/>
<path d="M34.8622 16.8402H34.3008C34.2417 16.0603 34.2861 15.2685 34.2713 14.4767C34.679 14.589 34.8799 14.843 34.8651 15.2803C34.8504 15.8003 34.8622 16.3202 34.8622 16.8402Z" fill="black"/>
<path d="M33.6806 41.0666H33.976V43.4301H33.3851C33.3024 43.3651 33.2197 43.3001 33.137 43.2351C33.5831 42.9338 33.1961 42.3724 33.4324 42.1006C33.7308 41.7579 33.651 41.4211 33.6806 41.0666Z" fill="black"/>
<path d="M93.951 8.27246C94.7694 8.55313 94.5803 9.36855 94.8166 9.95058C94.9319 10.2342 94.8373 10.6035 94.8373 10.9314C94.6926 10.7365 94.4651 10.5621 94.4178 10.3465C94.2671 9.65513 93.9215 9.00516 93.951 8.27246Z" fill="black"/>
<path d="M33.976 40.7711C33.976 40.2984 33.9553 39.8257 33.9907 39.356C33.9996 39.2319 34.1739 39.1167 34.2714 38.9985H34.5669V40.7711H33.976Z" fill="black"/>
<path d="M32.4988 8.27241H31.9729C31.8606 7.72584 31.8902 7.1645 31.964 6.60316C31.9699 6.55884 32.1206 6.53225 32.2033 6.49976C32.3008 6.59725 32.4013 6.6977 32.4988 6.7952V8.27241Z" fill="black"/>
<path d="M105.178 70.02C105.178 69.9727 105.166 69.8841 105.178 69.8812C106.129 69.6182 107.063 69.4853 107.834 70.3155H106.652C106.513 69.7453 106.055 70.1323 105.766 70.02H105.175H105.178Z" fill="black"/>
<path d="M33.0896 46.3845C33.0039 45.6282 32.9212 44.8689 32.8267 44.021H33.385C33.385 44.6887 33.3998 45.3564 33.3703 46.0211C33.3644 46.1452 33.1871 46.2634 33.0896 46.3845Z" fill="black"/>
<path d="M31.9079 53.4752C31.9226 52.6066 31.7779 51.7173 32.2594 50.9167C32.2949 50.8576 32.416 50.8487 32.4988 50.8162C32.5401 51.7351 32.1649 52.583 32.0438 53.4752C32.0438 53.4811 31.9551 53.4752 31.9079 53.4752Z" fill="black"/>
<path d="M49.93 25.999H49.6345V24.8172C49.732 24.7197 49.8325 24.6193 49.93 24.5218C50.2077 24.9029 50.3022 25.3313 50.2136 25.7892C50.1959 25.8749 50.0275 25.9311 49.93 25.999Z" fill="black"/>
<path d="M84.2013 90.701C83.8261 91.0083 83.8261 91.0201 83.0195 90.9373V90.1101C83.3445 90.2076 83.6784 90.2903 83.9945 90.4144C84.0861 90.4499 84.1334 90.6005 84.2013 90.701Z" fill="black"/>
<path d="M30.4307 57.0205C30.5666 56.5242 30.6995 56.0278 30.8266 55.564C31.0127 55.6703 31.1634 55.756 31.317 55.8387C31.184 56.2405 31.054 56.6423 30.93 57.0205H30.4307Z" fill="black"/>
<path d="M101.632 94.2463C101.511 94.3438 101.393 94.5241 101.266 94.53C100.501 94.5566 99.7356 94.5418 98.9734 94.5418C99.0945 94.4443 99.2127 94.2641 99.3397 94.2582C100.105 94.2316 100.87 94.2463 101.632 94.2463Z" fill="black"/>
<path d="M120.541 72.9745C120.638 72.877 120.739 72.7765 120.836 72.679C121.126 72.7913 121.584 72.4043 121.723 72.9745C121.347 73.3733 120.916 73.3733 120.541 72.9745Z" fill="black"/>
<path d="M30.4307 59.384C29.9876 59.3575 30.1796 59.0177 30.1353 58.7932C30.1796 58.5686 29.9876 58.2289 30.4307 58.2023C30.8296 58.5775 30.8296 59.0088 30.4307 59.384Z" fill="black"/>
<path d="M68.8383 49.9299C68.8235 50.9167 68.7703 50.9905 67.952 51.1116C67.9077 50.4617 68.3626 50.1899 68.8383 49.9299Z" fill="black"/>
<path d="M32.4987 50.2253C32.4987 49.7526 32.478 49.2799 32.5134 48.8101C32.5223 48.6861 32.6966 48.5708 32.7941 48.4527C32.8414 48.4527 32.9123 48.432 32.9359 48.4556C32.998 48.5176 33.0393 48.6004 33.0896 48.6772L32.4987 50.2253Z" fill="black"/>
<path d="M140.926 73.8607C141.151 73.9051 141.491 73.713 141.517 74.1562C141.517 74.2035 141.538 74.2744 141.514 74.298C141.452 74.36 141.37 74.4014 141.293 74.4516L139.745 73.8607H140.926Z" fill="black"/>
<path d="M111.973 88.6329C111.553 89.339 110.853 89.2149 110.2 89.2238C110.62 88.5177 111.32 88.6418 111.973 88.6329Z" fill="black"/>
<path d="M33.6806 98.3825C32.6938 98.3678 32.6199 98.3146 32.4988 97.4962C33.1488 97.4519 33.4206 97.9069 33.6806 98.3825Z" fill="black"/>
<path d="M44.021 91.8828C44.1185 92.0039 44.2987 92.1221 44.3017 92.2462C44.3312 92.911 44.3164 93.5787 44.3164 94.2464H44.021V91.8828Z" fill="black"/>
<path d="M73.8608 56.4296C74.5226 56.4917 74.6851 56.6542 74.7472 57.316C74.0854 57.2539 73.9229 57.0914 73.8608 56.4296Z" fill="black"/>
<path d="M55.248 75.0425C54.6659 75.0691 54.1164 75.0159 53.7708 74.4516C54.3173 74.5107 55.0146 74.2005 55.248 75.0425Z" fill="black"/>
<path d="M25.9989 81.2469C25.9989 80.8717 25.9753 80.4935 26.0137 80.1242C26.0255 79.9971 26.1968 79.8878 26.2943 79.7697C26.3771 79.8022 26.5159 79.8199 26.5307 79.8731C26.575 80.0385 26.1762 81.0194 25.9989 81.2469Z" fill="black"/>
<path d="M66.77 23.0445C66.8321 22.3827 66.9946 22.2202 67.6563 22.1582C67.5943 22.82 67.4318 22.9825 66.77 23.0445Z" fill="black"/>
<path d="M33.0896 10.0451C32.7026 9.74669 32.4751 9.36852 32.4987 8.86331V8.56787C33.3408 8.80127 33.0305 9.49852 33.0896 10.0451Z" fill="black"/>
<path d="M44.0211 88.0421V88.3375C43.7404 88.6861 43.6902 89.0909 43.7256 89.5193C43.0875 89.2297 43.5749 88.6743 43.4331 88.2666C43.4213 88.2341 43.4627 88.1839 43.5159 88.0421H44.0211Z" fill="black"/>
<path d="M46.3846 76.8152C46.3255 77.3618 46.6357 78.059 45.7937 78.2924C45.7671 77.7104 45.8203 77.1609 46.3846 76.8152Z" fill="black"/>
<path d="M50.2252 23.34C50.1809 23.5645 50.373 23.9043 49.9298 23.9309C49.525 23.6325 49.525 23.343 49.9298 23.0446C50.0273 23.1421 50.1277 23.2425 50.2252 23.34Z" fill="black"/>
<path d="M59.975 77.7015H59.0886V77.1107H59.975V77.7015Z" fill="black"/>
<path d="M49.9299 19.7947V21.5673C49.8324 21.4492 49.6581 21.3339 49.6492 21.2099C49.6167 20.7401 49.6345 20.2674 49.6345 19.7947H49.9299Z" fill="black"/>
<path d="M49.6344 73.5653C49.2858 73.846 48.881 73.8962 48.4526 73.8608C48.6181 73.2079 49.1292 73.2463 49.6344 73.2699V73.5653Z" fill="black"/>
<path d="M106.95 92.4737C106.835 92.5712 106.729 92.7337 106.602 92.7544C106.33 92.7987 106.046 92.7691 105.769 92.7691C105.925 92.3053 106.416 92.385 106.738 92.193C106.749 92.1871 106.876 92.3762 106.95 92.4737Z" fill="black"/>
<path d="M49.6343 36.6349C50.0509 36.7147 49.9711 36.9245 49.8146 37.2052C49.7141 37.3854 49.6905 37.6129 49.6343 37.8167C49.2355 37.4415 49.2355 37.0102 49.6343 36.6349Z" fill="black"/>
<path d="M34.5669 38.1121V36.3395C34.6644 36.4577 34.8387 36.5729 34.8476 36.697C34.8801 37.1667 34.8623 37.6394 34.8623 38.1121H34.5669Z" fill="black"/>
<path d="M77.9971 8.56788V7.38611H78.2925C78.39 7.45997 78.5821 7.58996 78.5732 7.59883C78.3811 7.92086 78.458 8.4113 77.9971 8.56788Z" fill="black"/>
<path d="M134.722 78.8833H132.949C133.068 78.7858 133.183 78.6115 133.307 78.6026C133.777 78.5701 134.249 78.5878 134.722 78.5878V78.8833Z" fill="black"/>
<path d="M49.339 27.7717C49.7437 28.0701 49.7437 28.3596 49.339 28.658C48.9342 28.3596 48.9342 28.0701 49.339 27.7717Z" fill="black"/>
<path d="M76.2244 57.9069H77.4061V58.4977H76.8153C76.6941 58.4003 76.5612 58.3087 76.4489 58.1994C76.3603 58.1137 76.2982 58.0044 76.2244 57.9069Z" fill="black"/>
<path d="M49.6343 38.4076C49.6816 38.8655 49.5103 39.1787 49.0435 39.2939V38.4076H49.6343Z" fill="black"/>
<path d="M34.5669 38.1122H34.8623C34.7648 38.4076 34.6644 38.7031 34.5669 38.9985H34.2714C34.3837 38.709 33.9967 38.251 34.5669 38.1122Z" fill="black"/>
<path d="M100.451 69.1337H101.041V69.4291C100.666 69.4291 100.288 69.4527 99.9187 69.4143C99.7917 69.4025 99.6824 69.2312 99.5642 69.1337H100.451Z" fill="black"/>
<path d="M35.4532 23.9309H35.7487V25.4081C35.6512 25.2899 35.4798 25.1806 35.468 25.0536C35.4296 24.6813 35.4532 24.3061 35.4532 23.9309Z" fill="black"/>
<path d="M109.314 70.9064C109.689 70.9064 110.067 70.8827 110.437 70.9211C110.564 70.933 110.673 71.1043 110.791 71.2018C110.416 71.2018 110.038 71.2254 109.669 71.187C109.541 71.1752 109.432 71.0039 109.314 70.9064Z" fill="black"/>
<path d="M75.0425 57.316H75.9288V57.9069C75.4709 57.9541 75.1577 57.7828 75.0425 57.316Z" fill="black"/>
<path d="M38.1121 100.155H37.8167V99.8598C37.9555 99.2896 38.4134 99.6766 38.703 99.5643C38.6055 99.7623 38.505 99.9573 38.4075 100.155H38.1121Z" fill="black"/>
<path d="M34.8623 18.3174V16.8402C34.9598 16.9584 35.1312 17.0677 35.143 17.1947C35.1814 17.567 35.1577 17.9422 35.1577 18.3174H34.8623Z" fill="black"/>
<path d="M35.4531 28.3625V27.1808C35.5506 27.0833 35.6511 26.9828 35.7486 26.8853C35.7486 27.2605 35.7722 27.6387 35.7338 28.008C35.722 28.135 35.5506 28.2444 35.4531 28.3625Z" fill="black"/>
<path d="M128.813 73.8608H129.995C129.513 74.2862 128.999 74.2862 128.518 73.8608H128.813Z" fill="black"/>
<path d="M27.1808 74.7471C27.2931 74.4576 26.9061 73.9996 27.4763 73.8608C27.8397 73.8785 27.8426 74.1385 27.7126 74.3394C27.6004 74.5167 27.3611 74.6142 27.1808 74.7471Z" fill="black"/>
<path d="M49.93 19.7947H49.6345V19.2038C49.8443 19.2451 50.1604 19.0708 50.2077 19.4254C50.2225 19.5347 50.0275 19.6706 49.93 19.7947Z" fill="black"/>
<path d="M66.1793 81.8377C65.6947 81.9263 65.4997 81.7314 65.5884 81.2468C66.0729 81.1582 66.2679 81.3532 66.1793 81.8377Z" fill="black"/>
<path d="M118.177 72.679C118.298 72.5815 118.422 72.481 118.544 72.3835C118.617 72.481 118.691 72.5815 118.768 72.679C118.647 72.7765 118.523 72.8769 118.402 72.9744C118.328 72.8769 118.254 72.7765 118.177 72.679Z" fill="black"/>
<path d="M131.177 73.8608H131.768C131.392 74.2596 130.961 74.2596 130.586 73.8608H131.177Z" fill="black"/>
<path d="M132.358 73.8607C132.583 73.9051 132.923 73.713 132.949 74.1562C132.825 74.2537 132.689 74.4487 132.58 74.4339C132.223 74.3866 132.397 74.0705 132.358 73.8607Z" fill="black"/>
<path d="M106.655 70.3154H107.837V70.6109C107.559 70.6109 107.275 70.6404 107.004 70.5961C106.877 70.5754 106.77 70.4129 106.655 70.3154Z" fill="black"/>
<path d="M78.8833 87.4512C78.6735 87.4098 78.3574 87.5841 78.3101 87.2296C78.2953 87.1203 78.4903 86.9844 78.5878 86.8603C79.031 86.8869 78.839 87.2266 78.8833 87.4512Z" fill="black"/>
<path d="M115.814 72.679C115.935 72.5815 116.059 72.481 116.18 72.3835C116.254 72.481 116.328 72.5815 116.405 72.679C116.283 72.7765 116.159 72.8769 116.038 72.9744C115.964 72.8769 115.891 72.7765 115.814 72.679Z" fill="black"/>
<path d="M109.019 90.9965H108.723C108.635 90.5119 108.83 90.3169 109.314 90.4056C109.27 90.6301 109.462 90.9699 109.019 90.9965Z" fill="black"/>
<path d="M27.4763 72.9744V71.7927C27.8752 72.1679 27.8752 72.5992 27.4763 72.9744Z" fill="black"/>
<path d="M119.359 72.679C119.583 72.7233 119.923 72.5313 119.95 72.9744C119.826 73.0719 119.69 73.2669 119.581 73.2521C119.223 73.2049 119.397 72.8888 119.359 72.679Z" fill="black"/>
<path d="M35.7485 2.36353H36.9303V2.65897C36.6526 2.65897 36.369 2.68851 36.0972 2.6442C35.9701 2.62352 35.8638 2.46102 35.7485 2.36353Z" fill="black"/>
<path d="M142.699 74.1562H143.585V74.4516C143.308 74.4516 143.024 74.4812 142.752 74.4369C142.625 74.4162 142.519 74.2537 142.404 74.1562H142.699Z" fill="black"/>
<path d="M76.2243 85.0876H75.0425C75.4177 84.6887 75.849 84.6887 76.2243 85.0876Z" fill="black"/>
<path d="M135.313 77.9969C135.268 78.2215 135.461 78.5612 135.017 78.5878H134.722C134.633 78.1033 134.828 77.9083 135.313 77.9969Z" fill="black"/>
<path d="M101.042 69.4291V69.1337C101.319 69.1337 101.603 69.1041 101.875 69.1484C102.002 69.1691 102.108 69.3316 102.223 69.4291H101.042Z" fill="black"/>
<path d="M47.2709 75.0425V76.2243H46.9755C46.9755 75.9466 46.9459 75.663 46.9902 75.3912C47.0109 75.2641 47.1734 75.1578 47.2709 75.0425Z" fill="black"/>
<path d="M143.29 75.9289C143.175 76.0264 143.068 76.1889 142.941 76.2096C142.669 76.2539 142.386 76.2243 142.108 76.2243C142.223 76.1268 142.33 75.9643 142.457 75.9437C142.729 75.8994 143.012 75.9289 143.29 75.9289Z" fill="black"/>
<path d="M90.1102 94.2463C89.9861 94.3438 89.8502 94.5388 89.7409 94.5241C89.3834 94.4768 89.5577 94.1607 89.5193 93.9509C89.7439 93.9952 90.0836 93.8032 90.1102 94.2463Z" fill="black"/>
<path d="M123.791 73.2699H124.972C124.597 73.6687 124.166 73.6687 123.791 73.2699Z" fill="black"/>
<path d="M44.3164 84.4967C44.2041 84.7862 44.5911 85.2442 44.0209 85.383C44.1332 85.0935 43.7462 84.6356 44.3164 84.4967Z" fill="black"/>
<path d="M93.6555 67.361C93.9451 67.4733 94.403 67.0863 94.5418 67.6565C94.2523 67.5442 93.7944 67.9312 93.6555 67.361Z" fill="black"/>
<path d="M100.451 69.1337H99.5642V68.8383C99.8537 68.9505 100.312 68.5635 100.451 69.1337Z" fill="black"/>
<path d="M143.585 74.4516V74.1562H144.472V74.4516H143.585Z" fill="black"/>
<path d="M49.339 33.976C49.9093 34.1148 49.5222 34.5727 49.6345 34.8623C49.0643 34.7234 49.4513 34.2655 49.339 33.976Z" fill="black"/>
<path d="M44.0211 86.5648V87.4511C43.6163 87.1528 43.6163 86.8632 44.0211 86.5648Z" fill="black"/>
<path d="M31.9077 3.24994C31.8191 2.76542 32.0141 2.57042 32.4986 2.65906C32.3007 2.857 32.1057 3.052 31.9077 3.24994Z" fill="black"/>
<path d="M84.7921 91.8828C84.3873 91.5844 84.3873 91.2949 84.7921 90.9965V91.8828Z" fill="black"/>
<path d="M25.4082 83.6104V82.7241H25.7036C25.5914 83.0136 25.9784 83.4715 25.4082 83.6104Z" fill="black"/>
<path d="M96.019 67.9519C96.3086 68.0642 96.7665 67.6771 96.9054 68.2473C96.6158 68.1351 96.1579 68.5221 96.019 67.9519Z" fill="black"/>
<path d="M31.6125 4.72715C31.7248 4.43762 31.3377 3.97968 31.9079 3.84082C31.7957 4.13035 32.1827 4.58829 31.6125 4.72715Z" fill="black"/>
<path d="M49.3391 17.7266C49.9093 17.8654 49.5223 18.3234 49.6346 18.6129H49.3391V17.7266Z" fill="black"/>
<path d="M45.4983 80.9514C45.5958 81.0755 45.7908 81.2114 45.776 81.3207C45.7288 81.6782 45.4126 81.5039 45.2029 81.5423C45.3004 81.3444 45.4008 81.1494 45.4983 80.9514Z" fill="black"/>
<path d="M96.0189 95.4281C95.88 95.9983 95.4221 95.6113 95.1326 95.7235V95.4281H96.0189Z" fill="black"/>
<path d="M103.11 93.9509H102.519C102.64 93.8534 102.764 93.753 102.885 93.6555C102.959 93.753 103.033 93.8534 103.11 93.9509Z" fill="black"/>
<path d="M86.2694 92.4737C86.0448 92.4294 85.7051 92.6214 85.6785 92.1783C85.903 92.2226 86.2428 92.0305 86.2694 92.4737Z" fill="black"/>
<path d="M43.7256 90.4056C44.1688 90.4322 43.9767 90.7719 44.0211 90.9965C43.5779 90.9699 43.7699 90.6301 43.7256 90.4056Z" fill="black"/>
<path d="M81.8377 89.2238C81.6132 89.1795 81.2734 89.3715 81.2468 88.9284C81.4714 88.9727 81.8111 88.7807 81.8377 89.2238Z" fill="black"/>
<path d="M26.2945 88.6329C25.8513 88.6063 26.0434 88.2666 25.9991 88.0421C26.4422 88.0686 26.2502 88.4084 26.2945 88.6329Z" fill="black"/>
<path d="M98.678 94.5418C98.6515 94.9849 98.3117 94.7929 98.0872 94.8372C98.1137 94.3941 98.4535 94.5861 98.678 94.5418Z" fill="black"/>
<path d="M97.7916 94.8373C97.765 95.2804 97.4252 95.0884 97.2007 95.1327C97.2273 94.6895 97.567 94.8816 97.7916 94.8373Z" fill="black"/>
<path d="M35.1577 30.1352C35.2021 29.9107 35.01 29.5709 35.4532 29.5443C35.4089 29.7688 35.6009 30.1086 35.1577 30.1352Z" fill="black"/>
<path d="M97.2007 95.4281H96.6099C96.6365 94.9849 96.9762 95.177 97.2007 95.1327V95.4281Z" fill="black"/>
<path d="M95.1326 95.4281V95.7236H94.5417C94.5683 95.2804 94.9081 95.4724 95.1326 95.4281Z" fill="black"/>
<path d="M31.6124 96.9053C31.3878 96.861 31.0481 97.0531 31.0215 96.6099C31.246 96.6542 31.5858 96.4622 31.6124 96.9053Z" fill="black"/>
<path d="M35.1578 98.9735C34.9332 98.9291 34.5935 99.1212 34.5669 98.678C34.7914 98.7223 35.1312 98.5303 35.1578 98.9735Z" fill="black"/>
<path d="M56.4297 33.0896H57.0206C56.994 33.5328 56.6542 33.3407 56.4297 33.385V33.0896Z" fill="black"/>
<path d="M55.2478 34.8623C55.2921 34.6378 55.1001 34.298 55.5433 34.2714C55.499 34.496 55.691 34.8357 55.2478 34.8623Z" fill="black"/>
<path d="M25.7036 87.7466V87.1557C26.1468 87.1823 25.9547 87.5221 25.9991 87.7466H25.7036Z" fill="black"/>
<path d="M49.6343 25.999C49.59 26.2235 49.7821 26.5633 49.3389 26.5898C49.3832 26.3653 49.1912 26.0256 49.6343 25.999Z" fill="black"/>
<path d="M25.7034 86.8603C25.2603 86.8337 25.4523 86.4939 25.408 86.2694C25.8512 86.296 25.6591 86.6358 25.7034 86.8603Z" fill="black"/>
<path d="M82.7239 35.1577C82.6796 35.3823 82.8717 35.722 82.4285 35.7486C82.4728 35.5241 82.2808 35.1843 82.7239 35.1577Z" fill="black"/>
<path d="M64.4065 25.7036C64.4331 25.2604 64.7728 25.4524 64.9974 25.4081C64.9708 25.8513 64.631 25.6592 64.4065 25.7036Z" fill="black"/>
<path d="M49.6346 35.4532V36.0441C49.5371 35.9229 49.4366 35.7989 49.3391 35.6777C49.4366 35.6039 49.5371 35.53 49.6346 35.4532Z" fill="black"/>
<path d="M25.4082 85.9739V85.3831C25.5057 85.5042 25.6061 85.6283 25.7036 85.7494C25.6061 85.8233 25.5057 85.8971 25.4082 85.9739Z" fill="black"/>
<path d="M123.791 83.6104C123.764 84.0535 123.424 83.8615 123.2 83.9058C123.226 83.4627 123.566 83.6547 123.791 83.6104Z" fill="black"/>
<path d="M82.7241 0.886383C82.9487 0.9307 83.2884 0.738662 83.315 1.18183C83.0905 1.13751 82.7507 1.32955 82.7241 0.886383Z" fill="black"/>
<path d="M33.6804 2.06815C33.8016 1.97065 33.9256 1.8702 34.0468 1.77271C34.1206 1.8702 34.1945 1.97065 34.2713 2.06815H33.6804Z" fill="black"/>
<path d="M32.4988 2.65897V2.36353H33.0897C33.0631 2.80669 32.7233 2.61465 32.4988 2.65897Z" fill="black"/>
<path d="M37.5212 2.65894H38.1121V2.95438C37.8876 2.91006 37.5478 3.1021 37.5212 2.65894Z" fill="black"/>
<path d="M35.7485 25.4081V24.8172C35.846 24.9383 35.9465 25.0624 36.044 25.1835C35.9465 25.2574 35.846 25.3313 35.7485 25.4081Z" fill="black"/>
<path d="M38.9985 3.54532C39.2231 3.58964 39.5628 3.3976 39.5894 3.84076C39.3649 3.79645 39.0251 3.98848 38.9985 3.54532Z" fill="black"/>
<path d="M65.5884 24.8172C65.6327 24.5927 65.4407 24.2529 65.8839 24.2263C65.8395 24.4509 66.0316 24.7906 65.5884 24.8172Z" fill="black"/>
<path d="M68.2473 82.7241V82.4286C68.4719 82.4729 68.8116 82.2809 68.8382 82.7241H68.2473Z" fill="black"/>
<path d="M41.3621 5.31802C41.5866 5.36234 41.9264 5.1703 41.9529 5.61347C41.7284 5.56915 41.3887 5.76119 41.3621 5.31802Z" fill="black"/>
<path d="M45.7938 79.7697C45.7494 79.9942 45.9415 80.3339 45.4983 80.3605C45.5426 80.136 45.3506 79.7962 45.7938 79.7697Z" fill="black"/>
<path d="M31.317 55.2479C31.2372 55.1799 31.1545 55.1149 31.0747 55.047C31.1574 55.0145 31.2372 54.9701 31.3258 54.9554C31.4204 54.9406 31.5179 54.9524 31.6124 54.9524V55.2479H31.317Z" fill="black"/>
<path d="M78.2923 7.38605H77.9969C78.0412 7.16152 77.8491 6.82176 78.2923 6.79517V7.38605Z" fill="black"/>
<path d="M76.8152 58.4977H77.4061V58.7932C77.1815 58.7489 76.8418 58.9409 76.8152 58.4977Z" fill="black"/>
<path d="M77.406 58.7932V58.4977C77.6305 58.542 77.9703 58.35 77.9969 58.7932H77.406Z" fill="black"/>
<path d="M77.7014 58.7932H78.2923V59.0886C78.0678 59.0443 77.728 59.2363 77.7014 58.7932Z" fill="black"/>
<path d="M44.6118 7.97696C44.8364 8.02128 45.1761 7.82924 45.2027 8.2724C44.9782 8.22809 44.6384 8.42012 44.6118 7.97696Z" fill="black"/>
<path d="M60.8614 78.2924C60.6369 78.2481 60.2971 78.4401 60.2705 77.997C60.495 78.0413 60.8348 77.8493 60.8614 78.2924Z" fill="black"/>
<path d="M77.406 9.74958C77.4504 9.52504 77.2583 9.18528 77.7015 9.15869C77.6572 9.38323 77.8492 9.72299 77.406 9.74958Z" fill="black"/>
<path d="M45.7937 9.45422C46.2369 9.48081 46.0449 9.82057 46.0892 10.0451C45.646 10.0185 45.838 9.67876 45.7937 9.45422Z" fill="black"/>
<path d="M57.6114 76.2243C57.3869 76.18 57.0471 76.372 57.0205 75.9289C57.245 75.9732 57.5848 75.7811 57.6114 76.2243Z" fill="black"/>
<path d="M34.2713 13.5904C33.8281 13.5638 34.0202 13.224 33.9759 12.9995C34.419 13.0261 34.227 13.3659 34.2713 13.5904Z" fill="black"/>
<path d="M48.1573 13.5903C48.6004 13.6169 48.4084 13.9567 48.4527 14.1812C48.0095 14.1546 48.2016 13.8149 48.1573 13.5903Z" fill="black"/>
<path d="M92.1782 66.7701C92.4028 66.8144 92.7425 66.6224 92.7691 67.0656C92.5446 67.0212 92.2048 67.2133 92.1782 66.7701Z" fill="black"/>
<path d="M26.8853 75.6334C26.9296 75.4089 26.7376 75.0691 27.1807 75.0425C27.1364 75.2671 27.3284 75.6068 26.8853 75.6334Z" fill="black"/>
<path d="M73.2698 16.2494C73.1723 16.3469 73.0719 16.4474 72.9744 16.5449C73.0187 16.3203 72.8267 15.9806 73.2698 15.954V16.2494Z" fill="black"/>
<path d="M143.881 74.4517H144.472V74.7471C144.247 74.7028 143.907 74.8948 143.881 74.4517Z" fill="black"/>
<path d="M49.6343 19.2038V19.4992C49.1912 19.4726 49.3832 19.1329 49.3389 18.9083C49.4364 19.0058 49.5368 19.1063 49.6343 19.2038Z" fill="black"/>
<path d="M101.928 69.4291H102.519C102.398 69.5266 102.274 69.6271 102.153 69.7246C102.079 69.6271 102.005 69.5266 101.928 69.4291Z" fill="black"/>
<path d="M103.7 69.4291C103.925 69.4734 104.265 69.2814 104.291 69.7246H103.996L103.7 69.4291Z" fill="black"/>
<path d="M27.7715 70.3154C27.8158 70.0909 27.6238 69.7511 28.067 69.7245C28.0226 69.9491 28.2147 70.2888 27.7715 70.3154Z" fill="black"/>
<path d="M127.041 73.5653H127.631C127.605 74.0085 127.265 73.8164 127.041 73.8608V73.5653Z" fill="black"/>
<path d="M126.154 73.5653H126.745V73.8608C126.521 73.8164 126.181 74.0085 126.154 73.5653Z" fill="black"/>
<path d="M51.9979 73.8608C51.7733 73.8165 51.4336 74.0085 51.407 73.5653C51.6315 73.6097 51.9713 73.4176 51.9979 73.8608Z" fill="black"/>
<path d="M49.6345 73.5653V73.2699C49.732 73.3674 49.8325 73.4678 49.93 73.5653H49.6345Z" fill="black"/>
<path d="M111.087 71.2018H111.382L111.184 71.447C111.152 71.3643 111.119 71.2845 111.087 71.2018Z" fill="black"/>
<path d="M105.473 70.02H105.769L105.571 70.2652C105.538 70.1825 105.506 70.1027 105.473 70.02Z" fill="black"/>
<path d="M103.996 69.7245H104.291V70.02C104.194 69.9225 104.093 69.822 103.996 69.7245Z" fill="black"/>
<path d="M126.745 73.8608V73.5653H127.041V73.8608H126.745Z" fill="black"/>
<path d="M98.9734 68.5428V68.8382C98.8759 68.7407 98.7755 68.6403 98.678 68.5428H98.9734Z" fill="black"/>
<path d="M128.813 73.8608H128.518V73.5653C128.615 73.6628 128.716 73.7633 128.813 73.8608Z" fill="black"/>
<path d="M73.2698 16.2494V15.954H73.5652C73.4677 16.0515 73.3673 16.1519 73.2698 16.2494Z" fill="black"/>
<path d="M67.9519 21.5674H68.2473C68.1823 21.6501 68.1144 21.7299 68.0494 21.8126C68.0169 21.7299 67.9844 21.6501 67.9519 21.5674Z" fill="black"/>
<path d="M97.4961 68.2474V68.5428L97.2007 68.2474H97.4961Z" fill="black"/>
<path d="M95.4281 15.0676V15.3631C95.3454 15.2981 95.2656 15.2301 95.1829 15.1651C95.2656 15.1326 95.3454 15.1001 95.4281 15.0676Z" fill="black"/>
<path d="M95.4282 67.6565L95.7237 67.9519C95.6262 67.8544 95.5257 67.754 95.4282 67.6565Z" fill="black"/>
<path d="M88.042 64.4066L88.3374 64.7021C88.2399 64.6046 88.1395 64.5041 88.042 64.4066Z" fill="black"/>
<path d="M87.1558 63.8157C87.2533 63.9132 87.3537 64.0136 87.4512 64.1111L87.1558 63.8157Z" fill="black"/>
<path d="M137.085 77.4061H136.79C136.888 77.3086 136.988 77.2082 137.085 77.1107V77.4061Z" fill="black"/>
<path d="M33.0896 10.6359V10.3405C33.1723 10.4055 33.2521 10.4734 33.3348 10.5384C33.2521 10.5709 33.1723 10.6034 33.0896 10.6359Z" fill="black"/>
<path d="M86.5649 63.5203C86.6624 63.6178 86.7629 63.7182 86.8604 63.8157L86.5649 63.5203Z" fill="black"/>
<path d="M137.086 77.4061V77.1107H137.381C137.284 77.2082 137.183 77.3086 137.086 77.4061Z" fill="black"/>
<path d="M131.768 78.8833H131.472L131.67 78.6381C131.703 78.7208 131.735 78.8006 131.768 78.8833Z" fill="black"/>
<path d="M31.6123 55.2478V54.9524H31.9077L31.6123 55.2478Z" fill="black"/>
<path d="M128.222 81.5423L128.024 81.7875C127.992 81.7048 127.959 81.625 127.927 81.5423H128.222Z" fill="black"/>
<path d="M69.7246 83.0195H69.4292L69.6271 82.7743C69.6596 82.857 69.6921 82.9368 69.7246 83.0195Z" fill="black"/>
<path d="M36.9304 2.65897V2.36353C37.0279 2.46102 37.1284 2.56147 37.2259 2.65897H36.9304Z" fill="black"/>
<path d="M70.6109 83.315C70.5134 83.2175 70.4129 83.117 70.3154 83.0195L70.6109 83.315Z" fill="black"/>
<path d="M85.0877 2.06812V2.36356C84.9902 2.26606 84.8897 2.16561 84.7922 2.06812C84.8897 2.06812 84.9902 2.06812 85.0877 2.06812Z" fill="black"/>
<path d="M73.5654 85.0876V84.7922C73.6629 84.8897 73.7634 84.9901 73.8609 85.0876H73.5654Z" fill="black"/>
<path d="M76.8152 85.383L76.5198 85.0876C76.6173 85.1851 76.7177 85.2855 76.8152 85.383Z" fill="black"/>
<path d="M77.406 85.6785L77.1106 85.3831C77.2081 85.4806 77.3085 85.581 77.406 85.6785Z" fill="black"/>
<path d="M37.8167 99.8597V100.155H37.5212C37.6187 100.058 37.7192 99.9572 37.8167 99.8597Z" fill="black"/>
<path d="M36.9304 100.155V99.8597C37.0279 99.9572 37.1284 100.058 37.2259 100.155H36.9304Z" fill="black"/>
<path d="M32.2034 97.4962H31.908V97.2008C32.0055 97.2983 32.1059 97.3988 32.2034 97.4962Z" fill="black"/>
<path d="M94.5417 95.7236H94.8372C94.7397 95.8211 94.6392 95.9215 94.5417 96.019V95.7236Z" fill="black"/>
<path d="M92.4736 95.4281L92.6716 95.1829C92.7041 95.2656 92.7366 95.3454 92.7691 95.4281H92.4736Z" fill="black"/>
<path d="M91.5874 95.4281H91.292V95.1327C91.3895 95.2302 91.4899 95.3306 91.5874 95.4281Z" fill="black"/>
<path d="M49.339 29.2488V29.5443L49.0938 29.3463C49.1765 29.3138 49.2562 29.2813 49.339 29.2488Z" fill="black"/>
<path d="M80.3606 88.3375L80.0652 88.0421C80.1627 88.1395 80.2631 88.24 80.3606 88.3375Z" fill="black"/>
<path d="M82.4287 89.8147L82.1333 89.5193C82.2308 89.6168 82.3312 89.7172 82.4287 89.8147Z" fill="black"/>
<path d="M87.7466 93.36H87.4512L87.6491 93.1148C87.6816 93.1975 87.7141 93.2773 87.7466 93.36Z" fill="black"/>
<path d="M9.45408 147.426C9.45408 148.407 9.48067 149.391 9.44522 150.372C9.42453 150.924 9.30045 151.471 9.23545 151.943C8.58548 152.416 7.95027 152.469 7.27076 152.46C5.17016 152.434 3.0666 152.452 0.927592 152.452V150.974C1.23485 150.974 1.5687 151.016 1.88778 150.963C2.14777 150.918 2.39299 150.762 2.63525 150.658V147.134H1.18463C0.779871 146.785 0.372159 146.439 0.0117188 146.129V144.362C0.375114 143.981 0.708964 143.63 1.031 143.293H2.3664C3.14342 143.302 3.63385 143.801 4.13906 144.327C4.13906 145.225 4.12724 146.141 4.15088 147.057C4.15383 147.184 4.33405 147.305 4.4345 147.429V150.948H7.36234C7.46279 150.72 7.66074 150.475 7.6696 150.221C7.70801 149.29 7.68438 148.36 7.68438 147.429C7.68438 146.752 7.67256 146.073 7.68733 145.396C7.70506 144.693 7.61051 143.981 7.74346 143.293H9.45408V147.429V147.426Z" fill="black"/>
<path d="M15.0675 152.449H14.3259C13.9862 152.106 13.6435 151.757 13.2948 151.403C13.2948 150.93 13.2948 150.44 13.2948 149.952C13.9803 149.222 14.6332 148.431 15.9066 148.637C15.9243 148.25 15.942 147.887 15.9568 147.568C15.3777 147.107 14.7721 147.119 14.1516 147.128C12.9787 147.145 11.8058 147.134 10.6329 147.134C10.6329 146.484 10.5502 145.816 10.9283 145.225C11.5901 144.194 13.0467 143.402 14.4737 143.293C15.0852 143.299 15.617 143.798 16.2641 143.588C16.7988 144.223 17.372 143.367 17.9274 143.639C18.0219 144.099 18.5862 144.472 18.2258 145.001C17.2804 145.001 16.267 145.246 15.4664 144.938C14.518 144.575 13.8355 145.024 13.0555 145.19C12.8901 145.225 12.7926 145.597 12.571 145.973H17.0617C17.4931 146.555 17.8181 147.063 17.7265 147.727C17.7265 148.513 17.6822 149.302 17.7383 150.085C17.821 151.261 17.3986 152.073 16.2493 152.455H15.0675V152.449Z" fill="black"/>
<path d="M114.927 147.426C114.927 148.407 114.954 149.391 114.918 150.372C114.898 150.921 114.774 151.468 114.709 151.943C114.059 152.416 113.424 152.469 112.744 152.46C110.643 152.434 108.54 152.452 106.401 152.452V150.998H108.1V147.547C107.751 146.956 107.169 147.169 106.658 147.134H106.215C104.873 144.563 105.352 144.46 106.953 143.293H108.726C109.018 143.656 109.311 144.023 109.612 144.395V147.429C109.624 148.519 109.5 149.624 109.908 150.679C109.943 150.762 109.976 150.918 110.011 150.918C110.933 150.948 111.858 150.963 112.782 150.968C112.912 150.968 113.039 150.898 113.158 150.865V139.157H114.635C114.791 139.49 115.007 139.783 114.945 140.205C114.88 140.634 114.93 141.08 114.93 141.52V147.429L114.927 147.426Z" fill="black"/>
<path d="M93.0646 147.426V152.449H91.292V148.017C91.292 147.624 91.3068 147.231 91.289 146.838C91.2388 145.775 90.2668 144.817 89.1914 144.77C88.8487 144.755 88.503 144.785 88.1603 144.764C87.463 144.72 86.751 144.85 86.3906 145.432C85.9592 146.123 85.4363 146.891 85.6933 147.781C85.9504 148.682 86.3285 149.547 86.6417 150.389C87.4837 150.36 87.3774 149.648 87.7201 149.32C87.4276 149.027 87.1026 148.782 86.881 148.466C86.2783 147.597 86.5619 146.764 87.593 146.244C88.6212 145.727 89.2948 145.834 90.4057 146.69V148.017C90.3879 148.392 90.4263 148.723 90.1161 149.081C89.153 150.183 88.2696 151.356 87.398 152.449H85.6786C85.4806 151.855 85.3063 151.252 85.0847 150.667C84.612 149.429 84.0359 148.218 84.2013 146.835C84.1452 145.748 84.8897 145.018 85.3831 144.176C85.5958 144.111 85.8617 144.099 86.0154 143.964C86.2754 143.736 86.5354 143.65 86.8722 143.559C88.5591 143.098 89.6316 143.136 91.2949 143.881C92.586 144.711 93.171 145.896 93.0676 147.426H93.0646Z" fill="black"/>
<path d="M96.6098 147.131H95.4281C95.2242 146.877 95.0233 146.623 94.8165 146.371C94.0749 145.482 94.0631 144.95 94.784 144.085C95.0292 143.792 95.2951 143.514 95.496 143.29H97.2007C97.3869 143.429 97.5848 143.556 97.7591 143.706C98.4564 144.297 98.7725 145.036 98.6838 145.964C98.6366 146.448 98.675 146.939 98.675 147.429V150.679C98.7725 150.776 98.8729 150.877 98.9704 150.974H101.629C102.282 150.809 102.244 150.298 102.22 149.793V147.429C102.22 146.753 102.208 146.073 102.223 145.396C102.241 144.693 102.146 143.981 102.279 143.293H103.695V151.27C103.491 152.02 103.024 152.425 102.241 152.446C101.313 152.472 100.383 152.452 99.452 152.452H95.4665V151.016C95.8831 150.995 96.3469 150.968 96.8964 150.942V147.429C96.7989 147.332 96.6985 147.231 96.601 147.134L96.6098 147.131Z" fill="black"/>
<path d="M123.2 147.426C123.2 148.309 123.153 149.199 123.212 150.076C123.288 151.252 122.872 152.065 121.723 152.449H119.823C119.019 151.807 118.603 151.004 118.798 149.926C119.451 149.219 120.109 148.442 121.38 148.631C121.398 148.253 121.418 147.89 121.433 147.568C120.857 147.113 120.251 147.116 119.631 147.128C118.458 147.145 117.285 147.134 116.112 147.134C116.112 146.481 115.958 145.751 116.425 145.237C117.072 144.522 117.699 143.813 118.765 143.532C119.474 143.343 120.148 143.358 120.839 143.296C121.016 143.869 121.51 143.435 121.796 143.6C122.127 143.789 122.393 144.105 122.757 143.624C122.83 143.526 123.126 143.594 123.398 143.579C123.551 144.017 123.714 144.469 123.953 145.151C122.727 144.876 121.726 145.296 120.665 144.814C119.947 144.489 119.117 144.915 118.411 145.293C118.275 145.367 118.213 145.58 118.024 145.878C119.604 146.037 121.049 145.896 122.491 145.97C122.875 146.38 123.191 146.829 123.203 147.429L123.2 147.426Z" fill="black"/>
<path d="M103.7 151.267V150.971L103.946 151.169C103.863 151.202 103.783 151.234 103.7 151.267Z" fill="black"/>
<path d="M103.7 147.131C103.798 147.228 103.898 147.329 103.996 147.426H103.7V147.131Z" fill="black"/>
<path d="M52.5888 153.335C52.9788 153.335 53.3718 153.297 53.7558 153.347C54.0631 153.385 54.3585 153.533 54.6569 153.63C55.0972 154.319 55.3187 155.054 55.2567 155.888C55.2065 156.567 55.2478 157.253 55.2478 158H53.4959V156.644H52.4825C52.2166 156.351 51.9861 156.1 51.7173 155.808V154.05C51.9802 153.834 52.2845 153.586 52.5918 153.335H52.5888Z" fill="black"/>
<path d="M119.064 86.2694C118.966 85.9739 118.866 85.6785 118.768 85.383C119.938 85.383 121.108 85.386 122.278 85.383C122.934 85.383 123.602 85.4658 124.21 85.0994C124.305 85.0433 124.476 85.1201 124.769 85.1526C124.529 85.386 124.358 85.6755 124.228 85.6578C123.07 85.5071 121.985 86.0832 120.836 85.9769C120.245 86.0744 119.654 86.1748 119.064 86.2723V86.2694Z" fill="black"/>
<path d="M145.063 75.0425H144.767C144.832 74.9598 144.9 74.88 144.965 74.7973C144.998 74.88 145.03 74.9598 145.063 75.0425Z" fill="black"/>
<path d="M92.4736 95.4281H92.7691L92.5711 95.6733C92.5386 95.5906 92.5061 95.5108 92.4736 95.4281Z" fill="black"/>
<path d="M134.722 78.5879H135.018C134.92 78.6854 134.82 78.7858 134.722 78.8833V78.5879Z" fill="black"/>
<path d="M98.9734 68.5428H98.678C98.743 68.46 98.8109 68.3803 98.8759 68.2975C98.9084 68.3803 98.9409 68.46 98.9734 68.5428Z" fill="black"/>
<path d="M140.926 73.8608H140.631C140.696 73.778 140.764 73.6983 140.829 73.6155C140.861 73.6983 140.894 73.778 140.926 73.8608Z" fill="black"/>
<path d="M142.699 74.1562H142.404C142.469 74.0735 142.537 73.9937 142.602 73.911C142.634 73.9937 142.667 74.0735 142.699 74.1562Z" fill="black"/>
<path d="M131.177 73.8608H130.586C130.707 73.7633 130.831 73.6628 130.952 73.5653C131.026 73.6628 131.1 73.7633 131.177 73.8608Z" fill="black"/>
<path d="M35.1577 20.6811C35.2552 20.8022 35.4325 20.9174 35.4384 21.0415C35.4679 21.6087 35.4531 22.179 35.4531 22.7492C35.2611 22.6221 35.072 22.4951 34.8622 22.3533C34.8622 21.8628 34.8475 21.3842 34.8741 20.9056C34.88 20.8258 35.0572 20.7549 35.1577 20.6781V20.6811Z" fill="black"/>
<path d="M35.1578 19.7947V20.0901C35.0751 20.0251 34.9953 19.9572 34.9126 19.8922C34.9953 19.8597 35.0751 19.8272 35.1578 19.7947Z" fill="black"/>
<path d="M34.5668 36.6349V36.9304L34.3215 36.7324C34.4043 36.6999 34.484 36.6674 34.5668 36.6349Z" fill="black"/>
<path d="M168.993 152.449H167.942C167.569 151.562 167.188 150.661 166.775 149.674C166.512 149.843 166.325 149.964 166.139 150.082C165.466 149.816 164.671 149.76 164.266 148.989V147.426C165.025 146.569 165.117 146.54 167.011 146.54C167.95 147.083 168.001 148.091 168.402 148.903L168.698 149.199V149.494C168.757 150.005 168.459 150.643 169.289 150.957V149.494C169.504 148.233 168.869 147.042 168.984 145.828C168.266 144.835 167.28 144.637 166.125 144.803C165.643 145.163 165.117 145.556 164.494 146.026C164.074 145.887 163.587 145.724 163.146 145.577C163.276 145.263 163.303 144.968 163.457 144.862C164.52 144.141 165.475 143.163 166.928 143.287C167.318 143.319 167.714 143.293 168.107 143.293C168.656 143.272 169.041 143.636 169.478 143.881C170.213 144.291 170.763 145.166 170.763 145.987C170.766 147.846 170.763 149.704 170.763 151.565C170.544 151.849 170.329 152.135 170.086 152.452H168.99L168.993 152.449Z" fill="black"/>
<path d="M161.903 152.449C161.51 152.449 161.114 152.478 160.724 152.443C160.171 152.392 159.625 152.295 159.199 152.233C157.967 150.703 158.455 149.019 158.357 147.426V140.737C158.576 140.53 158.925 140.341 159.055 140.052C159.391 139.316 160.089 138.625 159.539 137.697C159.708 136.873 158.928 136.672 158.517 136.574C157.917 136.433 157.099 136.155 156.614 136.959C157.057 137.594 158.077 137.31 158.352 138.285V139.6C156.818 141.08 156.171 141.018 154.517 139.242C154.517 138.947 154.543 138.648 154.511 138.359C154.401 137.378 154.747 136.592 155.486 135.957C155.583 135.871 155.628 135.724 155.698 135.605C155.896 135.407 156.091 135.212 156.289 135.015C156.735 134.935 157.211 135.183 157.642 134.752C157.79 134.604 158.287 134.71 158.585 134.817C159.211 135.038 159.814 135.337 160.426 135.605C160.632 135.96 160.842 136.314 161.049 136.672C161.141 136.829 161.294 136.988 161.303 137.151C161.359 138.575 161.457 140.022 160.331 141.154C160.036 141.452 160.174 141.783 160.13 142.105V148.534C160.547 148.596 160.919 148.602 161.256 148.711C161.587 148.818 161.885 149.027 162.198 149.193C162.387 149.45 162.576 149.71 162.789 150.002V151.341C162.482 151.725 162.192 152.085 161.903 152.443V152.449Z" fill="black"/>
<path d="M145.949 147.131C145.461 146.832 144.906 146.711 144.637 146.032C144.439 145.535 144.463 145.083 144.513 144.643C144.537 144.427 144.817 144.194 144.767 143.884C144.959 143.704 145.834 143.355 146.244 143.293H147.722C147.819 143.39 147.92 143.491 148.017 143.588C148.233 144.073 148.847 144.398 148.608 145.066V150.383C148.519 150.868 148.714 151.063 149.199 150.974H151.267C151.559 150.88 151.855 150.788 152.153 150.694V143.373H153.926V147.134C153.926 148.289 153.89 149.447 153.938 150.599C153.973 151.527 153.654 152.162 152.744 152.452H145.653C145.06 152.082 145.529 151.524 145.264 150.974H147.131C147.131 150.242 147.131 149.609 147.131 148.98C147.131 148.363 147.128 147.745 147.125 147.134H145.949V147.131Z" fill="black"/>
<path d="M16.2493 152.449C16.1282 152.546 16.0041 152.647 15.883 152.744C15.8091 152.647 15.7353 152.546 15.6584 152.449H16.2493Z" fill="black"/>
<path d="M20.681 147.722C20.9025 147.414 21.1271 147.107 21.4196 146.705C20.8523 146.493 20.4032 146.321 19.8596 146.114V144.906C20.096 144.611 20.3885 144.247 20.6839 143.881C22.0223 143.381 23.399 143.163 24.829 143.287C25.1185 143.311 25.4139 143.29 25.7064 143.29C25.9103 143.444 26.0935 143.633 26.318 143.745C27.4702 144.327 28.1882 145.163 28.0759 146.54C28.0434 146.93 28.07 147.326 28.07 147.722V152.449H26.7641C26.253 151.932 26.2855 151.276 26.2944 150.62C26.3062 149.556 26.2973 148.49 26.2973 147.426C26.3151 146.717 26.3682 146.002 25.9073 145.423C25.5499 145.266 25.213 145.131 24.8881 144.974C24.8053 144.936 24.7462 144.841 24.6783 144.77C23.6364 144.766 22.6949 144.944 21.8539 145.305C22.3088 145.432 22.7106 145.518 23.0918 145.659C23.4108 145.778 23.6708 145.984 23.6413 146.395C23.6236 146.64 23.6383 146.885 23.6383 147.131C23.0179 146.995 22.8495 147.589 22.4566 147.863C22.4566 149.314 22.4566 150.773 22.4566 152.233C22.4566 152.274 22.4211 152.316 22.362 152.449H20.6869V147.722H20.681Z" fill="black"/>
<path d="M10.0452 141.517C10.4588 139.65 11.6671 138.205 14.4768 138.267C14.4798 138.672 14.7929 138.572 15.0027 138.557C15.7709 138.498 16.3676 138.814 16.8847 139.346C17.1565 139.626 17.4372 139.901 17.6617 140.126C17.7917 140.634 17.9069 141.077 18.0221 141.52V142.067C16.9733 141.996 15.9393 142.374 14.8698 141.851C14.4414 141.641 13.8268 141.816 13.295 141.816C12.7042 141.851 12.1251 141.76 11.5312 142.076C11.1619 142.271 10.6065 142.111 10.0452 142.111V141.52V141.517ZM15.9806 140.601C15.9599 140.622 15.9422 140.64 15.9215 140.66C15.9895 140.74 16.0574 140.82 16.1283 140.903C16.1608 140.87 16.1904 140.841 16.2229 140.808C16.1431 140.74 16.0633 140.672 15.9156 140.593C14.8136 139.384 13.3778 139.352 12.1339 140.593C13.4339 140.593 14.6925 140.593 15.9806 140.604V140.601Z" fill="black"/>
<path d="M134.427 147.131C134.06 146.693 133.694 146.256 133.269 145.748V144.746C133.724 144.291 134.17 143.851 134.713 143.311H136.22C136.675 143.769 137.118 144.212 137.682 144.779V146.478C138.433 146.25 138.566 145.591 138.861 145.063C139.718 144.788 139.739 143.748 140.59 143.29C140.728 143.29 141.015 143.263 141.296 143.296C142.353 143.42 142.959 144.055 142.992 145.101C143.015 145.875 142.998 146.652 142.998 147.426V152.416H141.225V144.941C140.226 145.831 139.759 146.909 139.003 147.748C138.702 148.082 138.51 148.516 138.27 148.906C137.795 149.202 137.674 149.657 137.677 150.18C137.682 150.903 137.677 151.627 137.677 152.401H135.904V147.432L135.608 147.137H134.427V147.131Z" fill="black"/>
<path d="M144.472 138.563H144.767V139.154C144.67 139.449 144.569 139.745 144.472 140.04C144.147 140.315 143.783 140.56 143.503 140.876C142.932 141.514 142.191 141.709 141.396 141.816C140.985 141.869 140.604 141.804 140.167 142.052C139.727 142.303 139.056 142.2 138.563 141.813C138.448 141.346 138.134 141.174 137.676 141.222C137.505 140.903 137.31 140.598 137.171 140.267C136.935 139.694 137.159 138.917 137.644 138.566C137.939 138.353 138.256 138.17 138.563 137.972C138.758 137.972 138.953 137.969 139.148 137.972C140.554 138.001 141.101 138.539 141.225 140.005C141.234 140.093 141.275 140.179 141.322 140.338C142.664 140.3 142.929 139.163 143.432 138.273C143.777 138.371 144.126 138.465 144.472 138.563Z" fill="black"/>
<path d="M126.45 152.153C126.157 151.911 125.797 151.719 125.587 151.418C124.836 150.333 125.41 148.986 126.745 148.608H128.337C129.064 149.122 129.386 149.869 129.513 150.782C130.403 150.395 130.683 149.716 130.928 149.007C131.008 148.974 131.091 148.903 131.174 148.909C132.406 148.962 132.769 149.533 132.045 150.478C131.174 151.618 130.104 152.54 128.503 152.455C127.918 152.425 127.333 152.449 126.745 152.449C126.648 152.351 126.547 152.251 126.45 152.153Z" fill="black"/>
<path d="M132.358 143.881C132.225 145.571 131.118 146.829 129.513 147.137C129.159 147.205 128.813 147.405 128.464 147.405C128.116 147.405 127.77 147.207 127.416 147.14C127.179 147.095 126.931 147.131 126.636 147.131C125.912 146.495 125.155 145.848 125.28 144.581C125.726 144.188 126.234 143.739 126.745 143.29C128.532 143.429 129.126 143.928 129.507 145.609C130.305 145.287 130.636 144.551 131.041 143.881H132.358Z" fill="black"/>
<path d="M126.45 152.153C126.547 152.251 126.648 152.351 126.745 152.449L126.45 152.153Z" fill="black"/>
<path d="M91.3067 140.35C91.5342 140.335 91.7794 140.335 92.0453 140.335C92.5062 139.756 93.23 139.375 93.4752 138.595H94.7959V139.573C94.2138 140.226 93.6407 140.873 93.0646 141.52C92.8843 141.553 92.7012 141.573 92.5269 141.621C92.3112 141.677 92.0985 141.751 91.8828 141.816C91.348 141.816 90.8103 141.777 90.2785 141.825C89.4513 141.898 88.7245 141.656 88.042 141.225C87.85 140.965 87.658 140.702 87.4541 140.424V139.012C88.042 138.356 88.7068 137.812 89.6404 137.996C90.1131 138.087 90.5444 138.371 90.9965 138.569C90.9994 139.174 91.4987 139.7 91.3067 140.356C91.3037 140.35 91.283 140.33 91.2653 140.312C91.1855 140.38 91.1058 140.448 91.0231 140.519L91.1176 140.613C91.1855 140.533 91.2535 140.454 91.3067 140.359V140.35Z" fill="black"/>
<path d="M77.9971 152.449C77.6544 152.449 77.3117 152.449 76.9689 152.449C76.7296 151.89 76.1417 151.613 75.9054 151.01C75.5095 149.991 75.6335 149.476 76.6321 148.9C76.7533 148.829 76.8508 148.714 76.9867 148.596C77.6957 148.694 78.4905 148.386 79.1759 148.903C79.5482 149.398 79.7865 149.981 79.8909 150.652C80.857 150.215 81.1229 149.902 81.3149 148.98C81.3533 148.954 81.3917 148.906 81.4301 148.906C81.8172 148.9 82.2042 148.903 82.5735 148.903C82.6267 148.956 82.6887 148.989 82.6887 149.024C82.6946 149.411 82.6946 149.796 82.6946 150.159C82.0476 150.806 81.3947 151.456 80.724 152.13C80.34 152.227 79.9027 152.387 79.4536 152.437C78.972 152.493 78.4816 152.449 77.9941 152.449H77.9971Z" fill="black"/>
<path d="M79.4742 143.881C79.6101 144.463 79.749 145.045 79.879 145.603C80.7978 145.435 81.0548 144.687 81.3266 143.949H83.0461C82.6768 145.396 81.7344 146.315 80.6589 147.131C80.3812 147.131 80.0976 147.101 79.8258 147.145C79.6988 147.166 79.5924 147.329 79.4772 147.426H77.7045C77.5036 147.275 77.3234 147.075 77.0959 146.98C76.4016 146.687 75.8905 146.286 75.8639 145.453C75.858 145.302 75.6748 145.157 75.5862 145.03C75.6925 144.891 75.7664 144.823 75.8048 144.743C76.0943 144.141 76.3543 143.509 77.2052 143.585C77.867 142.894 78.3722 143.547 78.9336 143.774C79.102 143.842 79.294 143.848 79.4742 143.881Z" fill="black"/>
<path d="M67.6563 147.131H66.77V145.653C66.8675 145.358 66.968 145.063 67.0655 144.767C67.163 144.67 67.2634 144.569 67.3609 144.472C67.4584 144.374 67.5589 144.274 67.6563 144.176C67.7538 144.079 67.8543 143.978 67.9518 143.881C69.0272 143.639 70.0494 143.101 71.2017 143.29C71.2283 143.733 71.568 143.541 71.7926 143.585H73.5652C74.3659 143.825 74.1472 144.436 74.1177 145.063C73.4027 145.063 72.7202 145.089 72.0437 145.048C71.7837 145.033 71.5414 144.8 71.2785 144.776C70.2119 144.681 69.2074 144.794 68.5545 145.905H72.7793C73.0777 146.2 73.32 146.442 73.5652 146.682V151.556C72.6877 152.301 71.7098 152.703 70.3774 152.316C70.1913 152.103 69.8722 151.737 69.4497 151.255V149.66C69.9372 148.809 70.8826 148.782 71.7364 148.522C71.8044 148.061 71.9314 147.583 71.311 147.125H67.6534L67.6563 147.131Z" fill="black"/>
<path d="M63.8156 152.449C63.8156 151.367 63.7211 150.277 63.8422 149.208C63.9663 148.12 63.3636 147.151 63.532 146.135C62.2853 144.554 60.7696 144.484 59.0088 145.249C59.3042 145.402 59.5376 145.591 59.7947 145.642C60.8317 145.837 60.8346 145.822 60.811 146.927C60.3885 147.258 60.0192 147.544 59.6794 147.81V152.369H57.9068V147.426C58.0043 147.228 58.1047 147.033 58.2022 146.835C58.282 146.767 58.3647 146.702 58.4445 146.634C58.3618 146.602 58.282 146.558 58.1934 146.543C58.0988 146.528 58.0013 146.54 57.9068 146.54C57.6202 146.401 57.3336 146.265 57.0559 146.129V144.826C57.4341 144.504 57.7532 144.04 58.1756 143.907C59.2363 143.577 60.2881 143.101 61.4521 143.287H62.6339C62.6605 143.73 63.0002 143.538 63.2248 143.582C63.5202 143.68 63.8156 143.78 64.1111 143.878C64.2086 143.975 64.309 144.076 64.4065 144.173C64.6045 144.469 64.7995 144.764 64.9974 145.06C65.0949 145.157 65.1954 145.258 65.2929 145.355V152.446H63.8156V152.449Z" fill="black"/>
<path d="M65.293 147.426H65.5884C65.4909 147.524 65.3905 147.624 65.293 147.722V147.426Z" fill="black"/>
<path d="M49.6344 152.449H48.2931C48.2695 152.422 48.2311 152.387 48.2074 152.345C48.1838 152.307 48.1602 152.26 48.1602 152.218C48.1602 150.555 48.1602 148.894 48.1602 147.128H46.3314C45.9975 146.682 45.7759 146.386 45.5366 146.064V144.321C46.1866 143.488 46.9813 143.219 47.9563 143.275C48.686 143.316 49.0553 143.919 49.6374 144.176V146.956C50.7394 145.615 51.7173 144.421 52.7218 143.198C53.4131 143.37 54.0395 143.523 54.719 143.692C54.8017 144.274 54.9376 144.82 54.9435 145.37C54.9701 147.63 54.9553 149.89 54.9553 152.153C54.8785 152.251 54.8047 152.431 54.7219 152.437C54.2404 152.463 53.7558 152.449 53.1827 152.449V145.024C52.447 146.02 51.93 146.723 51.41 147.426C50.9166 148.07 50.3819 148.688 49.9505 149.37C49.7437 149.698 49.6787 150.15 49.6492 150.552C49.6019 151.181 49.6374 151.816 49.6374 152.449H49.6344Z" fill="black"/>
<path d="M43.7257 151.858C43.0609 152.206 42.4168 152.487 41.6073 152.478C40.3901 152.46 39.551 151.586 39.5894 150.466C39.5954 150.319 39.5894 150.171 39.5894 149.988C40.2453 149.175 40.9662 148.437 42.21 148.629V147.524C41.8437 147.228 41.3119 147.6 40.8776 147.172C40.656 146.95 40.0297 147.134 39.5865 147.134H36.6321C36.6321 147.039 36.6409 146.942 36.6321 146.847C36.5523 145.978 36.7177 145.252 37.5982 144.817C37.8197 144.708 37.9438 144.398 38.1122 144.179C39.099 143.698 40.1094 143.03 41.2232 143.334C42.1687 143.591 43.0845 143.547 44.0211 143.588C44.4672 143.949 44.7242 144.38 44.544 145.066H43.4302C42.857 145.036 42.21 145.16 41.7344 144.933C41.1907 144.673 40.6944 144.8 40.1921 144.791C39.6692 144.782 39.1847 145.337 39.0636 145.952H43.4332C43.6311 146.445 43.8261 146.936 44.024 147.429C44.024 148.212 44.0625 148.998 44.0122 149.778C43.9679 150.475 43.8261 151.166 43.7286 151.861L43.7257 151.858Z" fill="black"/>
<path d="M32.2033 145.063C31.5297 144.823 31.1781 145.417 30.732 145.733C30.2918 145.556 29.9136 145.402 29.4675 145.225C29.568 144.935 29.5857 144.61 29.7571 144.433C30.5784 143.576 31.5888 143.157 32.7972 143.29C33.9996 143.104 34.7501 143.825 35.4 144.575C35.5271 145.077 35.6866 145.515 35.7398 145.967C35.7959 146.448 35.7516 146.939 35.7516 147.426V152.369H33.9789V145.742C33.6687 145.503 33.3792 145.284 33.0926 145.063C32.7942 144.658 32.5047 144.658 32.2063 145.063H32.2033Z" fill="black"/>
<path d="M31.9079 101.928H168.403C168.899 101.94 169.392 101.952 169.88 101.966V127.041C169.762 127.138 169.652 127.309 169.525 127.321C169.153 127.36 168.778 127.336 168.403 127.336H0.590886C0.366349 127.292 0.0265899 127.484 0 127.041V102.223C0.0265899 101.78 0.366349 101.972 0.590886 101.928H31.9079ZM114.286 122.579V107.571H110.779V116.605C108.463 113.438 106.454 110.354 104.223 107.541H100.796V122.582H104.303V113.412C106.631 116.656 108.753 119.604 110.889 122.579H114.286ZM76.8329 122.952C77.5036 122.898 78.2067 122.952 78.8419 122.771C80.4994 122.308 81.4507 121.471 82.6384 120.222C84.0831 118.703 84.1895 116.795 84.4731 114.927C84.5381 114.502 84.2013 114.023 84.2279 113.58C84.2604 113.028 84.0742 112.558 83.8999 112.082C83.442 110.844 82.857 109.601 81.7698 108.862C80.5732 108.049 79.3678 107.039 77.7281 107.246C77.1225 106.841 76.5198 106.85 75.9023 107.237C75.7959 107.302 75.6098 107.267 75.465 107.243C74.8623 107.137 74.3719 107.405 73.8726 107.677C72.7381 108.295 71.577 108.806 70.865 110.038C70.4514 110.756 70.0082 111.432 69.698 112.215C69.4557 112.827 69.4291 113.409 69.438 114.023C69.4469 114.632 68.7526 115.238 69.435 115.843C69.3996 116.75 69.5414 117.566 69.9846 118.422C70.6316 119.672 71.9315 121.318 73.0601 122.033C74.236 122.777 75.4828 123.02 76.8359 122.952H76.8329ZM137.771 122.559H140.879C141.062 117.867 140.994 108.776 140.779 107.597H137.369V113.019C137.216 113.172 137.112 113.367 137.006 113.367C135.594 113.388 134.181 113.382 132.713 113.382C132.391 113.181 132.341 112.833 132.347 112.41C132.37 110.8 132.356 109.193 132.356 107.574H128.866V122.579H132.376V116.446H137.357V122.142C137.546 122.334 137.685 122.473 137.771 122.562V122.559ZM90.2963 122.57C90.3879 122.479 90.5799 122.378 90.5858 122.269C90.6567 120.626 90.7069 118.981 90.766 117.152C91.9212 119.093 92.9848 120.884 93.9686 122.541H98.4535C97.0176 120.485 95.6379 118.511 94.2139 116.476C94.4827 116.346 94.7693 116.275 94.9672 116.1C95.4399 115.687 96.0249 115.501 96.3794 114.812C96.7931 114.003 97.0028 113.169 97.1594 112.336C97.2746 111.728 97.1121 111.01 96.8847 110.41C96.1372 108.419 94.5802 107.417 93.0114 107.535C92.3762 107.583 91.7351 107.544 91.094 107.544H87.1912V122.573H90.2933L90.2963 122.57ZM6.54406 107.571V122.538H10.0923V116.145C11.7232 118.446 13.1915 120.514 14.6422 122.562H19.3072C17.3573 119.959 15.4871 117.459 13.5933 114.933V114.301C15.2951 112.073 16.9673 109.887 18.7163 107.597H14.264C12.8754 109.577 11.5282 111.503 10.0569 113.604V107.571H6.54406ZM59.1329 122.57C59.7268 122.381 59.6884 121.983 59.6854 121.575C59.6766 119.864 59.6825 118.157 59.6825 116.248C61.2808 118.505 62.7521 120.579 64.1466 122.553H68.6344C68.4748 122.219 68.398 121.956 68.2414 121.746C66.4776 119.374 64.702 117.007 62.9205 114.629C64.6754 112.298 66.4333 109.961 68.2326 107.574H63.8984C62.3887 109.329 61.2867 111.367 59.6766 113.353V107.6H56.1726V122.57H59.1359H59.1329ZM34.3128 122.606C34.1266 120.742 33.323 119.179 32.7853 117.539C32.2328 115.852 31.5947 114.195 31.0245 112.514C30.469 110.874 29.955 109.219 29.4232 107.577H25.3992C24.9708 108.835 24.5277 110.076 24.1288 111.335C23.5202 113.243 22.6812 115.069 22.1376 117.004C21.7446 118.402 21.1921 119.758 20.6692 121.117C20.4801 121.604 20.2172 122.048 20.4801 122.573H23.9457C24.2736 121.69 24.6015 120.804 24.9147 119.965H29.7393C30.0791 120.863 30.4188 121.755 30.7409 122.606H34.3128ZM157.56 122.6C157.45 122.11 157.385 121.749 157.288 121.395C157.034 120.473 156.62 119.604 156.31 118.703C155.27 115.687 154.337 112.638 153.323 109.612C153.081 108.883 152.694 108.203 152.419 107.594H148.702C148.543 107.754 148.38 107.84 148.345 107.964C147.857 109.722 147.19 111.415 146.584 113.134C145.692 115.666 144.924 118.239 143.884 120.721C144.014 121.362 143.192 121.929 143.695 122.562H147.154C147.473 121.69 147.787 120.839 148.103 119.979H152.93C153.515 120.795 153.353 121.906 154.038 122.603H157.563L157.56 122.6ZM42.6029 117.891C42.2631 118.422 42.4227 119.279 41.4123 119.383C40.9395 119.43 40.4905 119.962 40.0325 119.359C39.4151 119.424 38.966 119.084 38.5228 118.733C38.2687 118.532 38.0294 118.313 37.6867 118.024C37.1017 119.167 36.2125 120.044 36.3543 121.35C37.344 122.024 38.2776 122.503 39.4505 122.665C40.8893 122.866 40.8509 122.836 42.467 122.665C43.6813 122.535 44.3726 121.861 45.0728 121.096C45.708 120.399 46.163 119.587 46.098 118.573C46.0625 118.035 46.0596 117.489 46.098 116.951C46.163 116.08 45.8498 115.403 45.2353 114.794C44.5499 114.118 43.761 113.716 42.8452 113.427C41.9825 113.155 41.0075 112.98 40.5377 112.109C40.1921 111.293 40.7711 110.921 41.0932 110.632C42.4049 110.168 43.2824 110.892 44.2692 111.361C44.6858 110.472 45.0994 109.609 45.4923 108.735C45.5485 108.611 45.5012 108.442 45.5012 108.244C44.9812 108.017 44.4583 107.73 43.8999 107.556C43.371 107.391 42.8097 107.305 42.2572 107.258C41.6722 107.207 41.0784 107.231 40.4875 107.252C39.5657 107.284 38.5021 108.147 37.7665 108.856C37.0456 109.55 36.9038 110.434 36.7088 111.231C36.4459 112.316 36.6615 113.429 37.1815 114.529C37.6099 115.436 38.4608 115.539 39.093 116.035C39.2201 116.136 39.483 116.041 39.6426 116.121C40.653 116.623 41.8909 116.756 42.6059 117.897L42.6029 117.891ZM126.423 107.592H116.995C116.995 108.177 116.99 108.711 116.995 109.246C117.001 109.763 117.022 110.283 117.037 110.847H119.947C119.947 112.862 119.935 114.824 119.95 116.783C119.965 118.727 119.888 120.671 120 122.556H123.492C123.492 120.544 123.492 118.582 123.492 116.623C123.495 114.679 123.477 112.732 123.507 110.741H126.42V107.594L126.423 107.592ZM160.154 122.559H163.927C164.104 118 164.039 108.794 163.832 107.594H160.157V122.559H160.154ZM52.5386 122.579V107.568H49.0967V122.579H52.5386Z" fill="black"/>
<path d="M15.9805 140.601C16.0602 140.669 16.14 140.737 16.2227 140.808L16.1282 140.903C16.0602 140.823 15.9923 140.743 15.9214 140.66C15.9421 140.64 15.9598 140.622 15.9805 140.601Z" fill="black"/>
<path d="M91.3214 140.362C91.2534 140.442 91.1855 140.522 91.1146 140.604L91.02 140.51C91.0998 140.442 91.1796 140.374 91.2623 140.303C91.283 140.324 91.3007 140.341 91.3214 140.362Z" fill="black"/>
<path d="M71.2017 143.29C71.4262 143.334 71.766 143.142 71.7925 143.585C71.568 143.541 71.2283 143.733 71.2017 143.29Z" fill="black"/>
<path d="M67.6565 143.881H67.9519C67.8544 143.978 67.754 144.079 67.6565 144.176V143.881Z" fill="black"/>
<path d="M58.2022 146.835C58.1047 146.738 58.0042 146.637 57.9067 146.54C58.0042 146.54 58.1017 146.528 58.1933 146.543C58.279 146.557 58.3588 146.602 58.4444 146.634C58.3647 146.702 58.282 146.767 58.2022 146.835Z" fill="black"/>
<path d="M65.293 145.949L65.5382 146.147C65.4555 146.179 65.3757 146.212 65.293 146.244V145.949Z" fill="black"/>
<path d="M61.4521 143.29C61.5496 143.192 61.6501 143.092 61.7476 142.994V143.29H61.4521Z" fill="black"/>
<path d="M33.0897 145.063H32.2034C32.5018 144.658 32.7913 144.658 33.0897 145.063Z" fill="black"/>
<path d="M80.6708 114.815C80.532 117.32 79.4713 118.697 77.1521 119.332C76.4844 119.516 75.8285 119.12 75.1874 118.792C73.6718 118.021 73.0248 116.735 73.0011 115.158C72.9775 113.524 73.5979 112.156 75.1726 111.373C75.7547 111.084 76.3308 110.679 76.9837 110.812C77.6396 110.948 78.3339 111.172 78.8686 111.556C79.5098 112.017 80.1213 112.599 80.3577 113.418C80.5113 113.949 80.6029 114.499 80.6738 114.809L80.6708 114.815Z" fill="black"/>
<path d="M93.36 111.536V113.273C92.7248 114.124 91.8119 114.331 90.7483 114.339V110.561C91.7794 110.289 92.6155 110.676 93.36 111.536Z" fill="black"/>
<path d="M28.72 116.951H25.9133C26.3801 115.359 26.8233 113.843 27.3137 112.174C27.9962 113.766 28.4187 115.297 28.723 116.951H28.72Z" fill="black"/>
<path d="M150.599 112.065C150.951 113.876 151.751 115.297 151.887 116.957H149.293C148.912 116.263 149.444 115.642 149.598 115.004C149.813 114.085 150.2 113.205 150.602 112.065H150.599Z" fill="black"/>
</g>
<defs>
<clipPath id="clip0_410_19966">
<rect width="170.766" height="158" fill="white"/>
</clipPath>
</defs>
</svg>
