<svg width="262" height="145" viewBox="0 0 262 145" fill="none" xmlns="http://www.w3.org/2000/svg">
<path d="M60.596 144.412V118.341C60.596 117.82 60.5809 117.298 60.599 116.777C60.6392 115.649 61.0044 115.227 62.0917 115.214C64.4413 115.183 66.7919 115.205 69.1898 115.205C72.6981 120.385 76.2206 125.588 79.924 131.056V128.319C79.924 124.582 79.912 120.844 79.9291 117.108C79.9371 115.406 80.1302 115.223 81.8703 115.209C84.1224 115.189 86.3744 115.204 88.8045 115.204V144.412H79.924C79.5569 143.784 79.2199 143.135 78.8166 142.532C76.6822 139.339 74.5408 136.152 72.3813 132.977C71.5344 131.731 70.6342 130.522 69.4775 128.903V144.413H60.597L60.596 144.412Z" fill="black"/>
<path d="M194.847 144.412V115.261H203.042C206.578 120.479 210.127 125.713 213.951 131.356C214.365 128.338 214.12 125.786 214.165 123.25C214.212 120.65 214.175 118.049 214.175 115.326H222.534V144.413H213.653C213.653 144.153 213.758 143.82 213.636 143.644C212.748 142.357 211.79 141.118 210.9 139.83C208.382 136.181 205.885 132.517 203.206 128.603V144.413H194.847V144.412Z" fill="black"/>
<path d="M129.028 144.412V115.204C134.892 115.204 140.612 115.157 146.33 115.244C147.452 115.261 148.552 115.826 149.734 115.826C150.092 115.826 150.509 116.101 150.797 116.361C151.567 117.06 152.284 117.821 153.021 118.557C153.758 119.293 153.839 120.302 154.209 121.189C154.608 122.147 154.559 122.782 154.248 123.721C153.158 127.009 153.226 127.031 150.505 128.951C151.362 129.499 152.267 129.958 153.029 130.589C154.903 132.137 155.66 133.578 155.751 135.685C155.893 138.957 154.317 141.162 152.028 142.999C151.277 143.601 150.142 143.937 149.029 143.916C148.807 143.912 148.58 144.238 148.356 144.412H129.028ZM137.954 138.154C139.75 138.154 141.315 138.09 142.872 138.173C144.226 138.244 145.263 137.762 146.263 136.892C147.189 136.088 146.563 135.108 146.814 134.313C146.16 133.641 145.558 133.022 145.056 132.506H137.954V138.153V138.154ZM137.908 126.548H144.046C144.32 126.274 144.597 125.926 144.941 125.668C145.826 125.005 146.013 124.11 145.606 123.19C145.223 122.325 144.575 121.559 143.522 121.478C142.572 121.405 141.612 121.453 140.656 121.466C139.735 121.478 138.814 121.514 137.908 121.54V126.548Z" fill="black"/>
<path d="M230.369 144.412V115.259H239.231V126.582C242.636 122.553 245.71 118.917 248.743 115.33H260.517C258.674 117.411 257.089 119.262 255.436 121.052C253.744 122.884 251.986 124.655 250.214 126.497C253.351 131.022 255.801 136.01 259.025 140.531C259.782 141.591 260.276 142.888 261.19 143.891C261.292 144.339 261.118 144.429 260.668 144.426C257.012 144.402 253.355 144.413 249.698 144.413C249.621 143.846 249.726 143.318 249.37 142.721C248.008 140.44 246.777 138.078 245.526 135.731C245.019 134.78 244.587 133.789 244.161 132.902C242.499 134.562 240.979 136.079 239.251 137.805V144.414H230.37L230.369 144.412Z" fill="black"/>
<path d="M95.5945 144.412V115.203C100.749 115.203 105.783 114.983 110.786 115.28C114.199 115.482 117.473 116.726 119.596 119.67C121.014 121.638 122.204 123.81 122.232 126.372C122.241 127.209 122.361 127.969 122.695 128.784C122.999 129.527 122.994 130.577 122.715 131.343C121.903 133.564 122.36 136.051 120.966 138.169C118.665 141.664 117.176 143.255 112.727 143.91C112.567 143.933 112.449 144.239 112.311 144.413H95.5955L95.5945 144.412ZM110.507 137.607C110.988 137.127 111.337 136.735 111.73 136.394C112.962 135.326 113.517 134.018 113.374 132.37C113.283 131.335 113.321 130.284 113.366 129.244C113.424 127.889 113.314 126.581 112.851 125.283C112.22 123.518 110.393 122.049 108.5 121.992C107.21 121.953 105.917 121.985 104.477 121.985V137.608H110.508L110.507 137.607Z" fill="black"/>
<path d="M159.326 144.412C159.807 142.026 160.866 139.841 161.732 137.592C163.173 133.849 164.629 130.1 166.006 126.343C167.135 123.261 168.509 120.239 169.307 117.018C169.694 115.455 170.315 115.21 172.128 115.205C174.041 115.2 175.955 115.199 177.868 115.205C179.781 115.211 180.287 115.44 180.703 117.272C181.121 119.105 182.007 120.736 182.593 122.49C183.535 125.305 184.602 128.08 185.709 130.836C187.205 134.559 188.31 138.432 190.094 142.047C190.444 142.757 190.485 143.619 190.669 144.412H181.266C180.87 142.86 180.473 141.307 180.067 139.718C176.921 139.718 173.828 139.734 170.735 139.707C169.939 139.7 169.408 140.004 169.266 140.762C169.04 141.97 168.904 143.195 168.73 144.413H159.327L159.326 144.412ZM178.132 133.413C177.108 129.973 176.149 126.751 175.124 123.31C173.626 124.761 173.876 126.7 173.205 128.26C172.515 129.866 172.051 131.582 171.832 133.414H178.132V133.413Z" fill="black"/>
<path d="M25.5959 144.412C26.0767 142.026 27.1359 139.841 28.0019 137.592C29.4433 133.849 30.8987 130.1 32.2757 126.343C33.4052 123.261 34.7792 120.239 35.5768 117.018C35.9641 115.455 36.5847 115.21 38.3982 115.205C40.3113 115.2 42.2243 115.199 44.1374 115.205C46.0505 115.211 46.5565 115.44 46.9729 117.272C47.3903 119.105 48.2764 120.736 48.8628 122.49C49.8043 125.305 50.8715 128.08 51.9789 130.836C53.4746 134.559 54.58 138.432 56.3633 142.047C56.7133 142.757 56.7546 143.619 56.9386 144.412H47.5361C47.1398 142.86 46.7425 141.307 46.3372 139.718C43.1909 139.718 40.098 139.734 37.0051 139.707C36.2085 139.7 35.6774 140.004 35.5356 140.762C35.3103 141.97 35.1735 143.195 34.9995 144.413H25.597L25.5959 144.412ZM38.0009 133.368H44.3788C43.379 130.009 42.4094 126.753 41.3452 123.176C39.8948 124.852 40.1704 126.796 39.409 128.367C38.6858 129.861 38.4736 131.602 38.0009 133.368Z" fill="black"/>
<path d="M0 144.412V115.253H8.78895V136.725C8.93681 136.891 8.98509 136.966 9.05248 137.015C9.11585 137.061 9.19832 137.106 9.27276 137.106C13.7839 137.11 18.2951 137.11 22.9842 137.11V144.412H0Z" fill="black"/>
<path d="M131.64 101.121H129.551V100.078C127.739 100.078 126.106 100.058 124.474 100.101C124.247 100.107 124.028 100.426 123.806 100.6C120.143 100.517 116.707 99.431 113.313 98.1988C109.958 96.9808 106.875 95.2427 103.778 93.4684C99.4634 90.996 95.7941 87.7935 92.5383 84.1544C90.081 81.4085 88.0181 78.3216 86.1442 75.0989C84.1768 71.7163 82.9899 68.052 81.633 64.4441C81.2056 63.3085 81.1472 62.0271 80.9823 60.805C80.8736 60.0014 81.3323 59.6282 82.0977 59.3717C83.3902 58.9392 84.6586 58.4071 85.8847 57.8087C86.5153 57.5009 86.9026 56.9135 86.7215 56.1058C86.5244 55.2267 86.4349 54.3174 86.1613 53.4655C86.0517 53.1225 85.6191 52.7342 85.2631 52.6457C84.2251 52.3862 83.1569 52.2293 82.0917 52.1036C80.758 51.9467 79.9503 51.1692 79.9322 49.8445C79.907 48.035 79.9261 46.2245 79.9261 44.3919C81.6924 44.2199 83.2655 43.5852 84.9875 43.7129C85.932 43.7834 87.1068 42.5432 87.2255 41.5846C87.2989 40.9932 87.2395 40.3847 87.2395 39.8516C85.5045 38.8015 83.8388 37.7926 82.1068 36.7435C81.5918 35.4561 82.319 34.2129 82.6781 32.9827C82.9195 32.1549 83.5421 31.469 83.6517 30.5034C83.702 30.0598 84.3106 29.1847 85.1876 29.9461C85.3566 30.093 85.6342 30.1664 85.8666 30.1785C86.8644 30.2288 87.8028 30.2771 88.8086 30.6381C90.2953 31.1712 90.8897 30.6844 91.7235 29.0982C91.985 28.6003 92.2275 28.0914 92.497 27.5482C91.0878 25.8826 89.6757 24.2149 88.179 22.4467C89.217 20.9842 90.2218 19.4845 91.3172 18.0532C92.1741 16.9327 92.7233 16.8583 94.1607 17.5513C95.5427 18.2171 96.8945 18.9464 98.1256 19.579C99.0389 18.6657 100.008 17.6981 101.089 16.6169C100.529 14.8818 98.9695 13.0311 99.2482 10.8374C100.733 9.27329 102.164 7.89732 103.955 7.21637C105.445 8.70299 106.852 10.1091 108.399 11.6531C109.867 10.9953 111.255 10.3737 112.836 9.66456V6.19545C113.839 6.02748 113.28 5.25802 113.337 4.77622C113.488 3.51592 113.505 3.64366 114.89 3.01702C115.738 2.6338 116.76 2.85106 117.403 2.33909C118.342 1.59176 118.913 2.2878 119.627 2.54529C119.706 2.94058 119.368 3.54408 120.149 3.58834C120.072 4.76214 121.088 5.50947 121.346 6.56258C121.375 6.68026 121.929 6.6692 122.238 6.71848C123.384 6.61287 124.531 6.50726 125.644 6.40366C126.126 4.17675 126.557 2.18218 126.995 0.162476C127.55 0.25803 128.138 0.42198 128.73 0.44612C129.86 0.492388 130.993 0.45819 132.125 0.460202C134.63 0.465231 134.588 0.469254 134.796 2.96371C134.878 3.93635 135.197 4.88888 135.436 5.9802C136.354 6.63198 137.501 6.9639 138.874 6.59879C139.751 5.11116 140.672 3.57928 141.559 2.02729C142.009 1.24073 142.395 0.418963 143.376 1.48514C145.112 1.22061 146.473 2.56239 148.174 2.59457C148.705 3.25742 147.888 4.36383 148.878 4.8939C148.704 5.60402 148.45 6.30609 148.376 7.02727C148.288 7.88323 148.355 8.75529 148.355 9.6716C149.737 10.5467 151.028 11.6239 152.816 11.3936C153.83 10.3817 154.847 9.42819 155.789 8.40526C156.555 7.57243 157.399 7.48593 158.282 8.04618C159.749 8.97758 161.165 9.98743 162.594 10.9591C162.118 12.2485 161.852 13.3751 161.301 14.3407C160.752 15.3033 160.201 16.1954 160.4 17.4406C161.153 18.1558 161.969 18.9303 162.878 19.7923C164.364 19.0771 165.956 18.3006 167.555 17.5432C168.752 16.9759 169.122 17.0383 169.706 17.8701C170.75 19.3567 171.789 20.8464 172.973 22.5392C171.657 24.0892 170.243 25.7558 168.711 27.5603C168.907 27.9596 169.178 28.542 169.475 29.1103C170.377 30.8313 170.999 31.1612 172.842 30.4672C173.943 30.0528 174.885 30.0558 175.808 30.5929C176.062 30.2388 176.311 29.8928 176.531 29.5871C177.728 30.0809 176.435 31.3452 177.554 31.7737C178.658 32.1972 177.89 33.2342 178.137 33.9463C178.401 34.7037 178.735 35.437 179.083 36.2889C177.522 37.512 176.06 39.0831 173.969 39.76V42.4567C174.81 43.4404 175.931 43.8507 177.268 43.7572C177.702 43.727 178.166 43.6576 178.568 43.7723C179.338 43.9916 180.128 44.24 180.812 44.6423C181.655 45.1392 181.212 46.0585 181.244 46.7858C181.307 48.2603 181.263 49.7399 181.263 51.3402C179.865 52.1096 178.278 52.4476 176.674 52.5874C175.681 52.6739 175.038 52.859 174.97 54.0026C174.943 54.4602 174.563 54.8907 174.493 55.3554C174.406 55.9388 174.472 56.5453 174.472 57.3299C176.385 58.1989 178.294 59.068 180.163 59.9169C180.204 61.0826 180 61.9969 179.778 62.9847C178.806 67.2906 176.977 71.2224 174.976 75.0929C174.156 76.678 173.284 78.2884 172.149 79.6473C170.09 82.1115 168.281 84.78 165.921 87.0059C161.316 91.3481 156.031 94.6351 150.332 97.2976C149.025 97.9081 147.615 98.2994 146.252 98.7902C144.961 99.2549 143.523 99.1765 142.315 100.035C141.91 100.323 141.128 100.082 140.518 100.082C140.116 98.9642 139.012 99.4511 138.586 99.6291C136.763 100.395 134.906 99.9288 133.076 100.08C132.593 100.12 132.11 100.141 131.638 100.169V101.124L131.64 101.121ZM164.028 84.4028C162.451 84.612 160.86 84.1836 159.257 84.8705C158.573 85.1642 157.429 85.3302 156.562 84.5909C156.3 84.3666 155.755 84.4642 155.338 84.432C153.84 84.3133 152.369 84.3686 150.839 84.0166C149.019 83.5982 147.14 83.2954 145.286 82.9575C144.241 82.7673 143.191 82.5038 142.134 82.3298C141.091 82.1578 139.92 82.1105 139.073 81.5815C138.071 80.9548 136.901 81.7676 135.945 80.8412C135.558 80.466 134.503 80.7798 133.612 80.7798C133.824 81.7424 134.109 82.1628 134.923 82.3751C136.88 82.885 138.934 83.2381 140.762 83.9935C145.061 85.7698 149.401 87.4626 153.63 89.4129C155.293 90.1793 157.078 90.7416 158.737 89.429C160.548 87.9957 162.27 86.4507 164.024 84.946C164.067 84.9088 164.029 84.779 164.332 83.9532C164.232 84.0347 164.13 84.1172 164.029 84.1997C164.106 84.2771 164.184 84.3546 164.262 84.432C164.343 84.3294 164.432 84.2308 164.494 84.1182C164.504 84.0991 164.394 84.0136 164.03 84.4048L164.028 84.4028ZM101.962 37.8721C101.732 39.8314 101.412 41.484 101.382 43.1416C101.358 44.4563 101.82 45.7769 101.828 47.0966C101.836 48.4595 102.187 49.753 102.617 50.959C104.506 56.2627 107.322 60.9338 112.131 64.1937C115.101 66.2073 118.15 68.0319 121.645 68.9603C123.919 69.5638 126.224 70.0587 128.605 70.6229V98.4523H132.727V70.4288C133.619 70.2126 134.348 70.4902 135.081 69.8957C135.568 69.5014 136.582 69.8334 137.296 69.6242C139.071 69.1041 140.811 68.4594 142.549 67.8288C145.71 66.6831 148.351 64.8173 150.901 62.7996C153.757 60.5375 155.711 57.5492 157.269 54.244C158.834 50.9227 159.413 47.4104 159.847 43.8377C160.086 41.8793 159.56 40.0075 159.176 38.1195C158.068 37.7775 157.081 38.3398 156.036 38.4816C152.141 39.0097 149.25 40.2841 146.378 41.6671C145.025 42.3189 143.943 43.374 142.73 44.2299C141.613 45.0195 140.741 45.9016 139.959 47.0322C138.56 49.0579 137.619 51.2506 136.677 53.5067C135.163 57.1368 134.091 60.797 134.25 64.7569C134.267 65.1764 134.252 65.5978 134.252 65.4831C133.374 66.4518 132.8 67.0854 132.248 67.694C130.156 67.9112 128.164 67.8167 126.905 65.6712C127.12 62.7543 126.816 59.8565 125.902 57.0201C124.935 54.0257 123.893 51.0585 122.222 48.377C120.982 46.3854 119.513 44.6252 117.448 43.3197C115.585 42.1418 113.728 41.0405 111.677 40.2096C108.606 38.9644 105.407 38.379 101.963 37.8701L101.962 37.8721ZM130.614 51.9487C132.61 50.097 134.357 48.4856 136.092 46.8622C137.813 45.2529 138.846 43.1728 139.747 41.0736C140.518 39.2772 141.019 37.3159 141.003 35.3515C140.983 32.8148 141.278 30.2831 140.596 27.7243C140.135 25.9942 139.654 24.3044 138.991 22.6408C137.234 18.2393 134.048 14.9844 130.526 11.6712C128.597 13.8991 126.309 15.5638 124.771 17.9808C123.68 19.6957 122.751 21.4539 121.946 23.3338C121.102 25.3042 120.473 27.3793 120.259 29.3829C119.886 32.8781 119.899 36.4508 121.159 39.9029C122.158 42.6377 123.301 45.2307 125.478 47.2444C127.095 48.7391 128.724 50.2207 130.613 51.9507L130.614 51.9487ZM86.1925 67.8801C86.1925 68.3307 86.1251 68.6133 86.2025 68.8477C87.151 71.7052 88.6185 74.3043 90.3274 76.7625C90.5296 77.0532 91.2538 77.1357 91.6974 77.0653C92.145 76.9939 92.5272 76.5785 92.9647 76.3733C96.469 74.7308 100.172 73.7943 104.018 73.5006C105.746 73.3689 107.662 73.0289 109.184 73.6012C110.806 74.2107 112.449 73.6897 114.055 74.428C115.424 75.0577 117.179 74.8132 118.746 75.0627C119.947 75.2538 121.112 75.6612 122.31 75.8794C123.137 76.0303 124.051 75.8573 124.818 76.1309C125.692 76.4427 126.476 76.8561 127.461 76.4467C127.461 75.807 127.61 75.1542 127.415 74.6252C127.248 74.1695 126.748 73.6344 126.297 73.5218C125.097 73.222 123.837 73.1737 122.616 72.9454C121.418 72.7221 120.246 72.353 119.047 72.1327C116.726 71.7052 114.501 70.9327 112.226 70.3413C109.957 69.7509 107.711 69.076 105.449 68.4574C102.352 67.6095 99.2864 66.6046 96.0104 66.6932C94.6213 66.7304 93.2273 66.7475 91.8392 66.6881C89.8899 66.6047 88.1056 67.2001 86.1915 67.8821L86.1925 67.8801ZM133.729 74.948C133.729 75.8694 133.603 76.5825 133.776 77.2142C133.881 77.5984 134.413 78.0701 134.811 78.1345C136.462 78.397 138.138 78.4906 139.796 78.7068C140.516 78.8003 141.208 79.1132 141.929 79.1956C142.7 79.2831 143.642 78.9442 144.236 79.2761C145.224 79.8283 146.195 79.6282 147.178 79.7489C148.155 79.8685 149.125 80.2638 150.088 80.2286C155.832 80.0194 161.595 80.7668 167.335 79.7981C168.497 79.602 169.183 79.1544 169.773 78.2974C171.021 76.4849 172.056 74.5386 173.307 72.7221C173.69 72.1669 174.651 71.2606 173.62 70.3353C172.609 70.6944 171.64 71.0917 170.637 71.3773C169.775 71.6227 168.604 71.4558 168.055 71.9788C167.199 72.7945 166.101 72.0925 165.233 72.883C164.696 73.3729 163.545 72.9183 162.612 73.4041C161.643 73.91 160.31 73.6696 159.235 74.0408C158.004 74.4652 156.66 74.2097 155.568 74.6211C154.544 75.0064 153.6 74.9178 152.622 75.0516C151.646 75.1854 150.683 75.5193 149.711 75.5405C146.673 75.6058 143.633 75.5646 140.595 75.5646C140.16 75.5646 139.624 75.7306 139.309 75.5374C137.527 74.4441 135.653 75.3866 133.73 74.949L133.729 74.948ZM127.461 98.5549V87.0411C127.461 86.6076 127.627 86.0554 127.42 85.7698C127.131 85.3674 126.744 84.5084 126.048 85.114C125.486 85.6018 124.92 85.4931 124.362 85.4579C121.907 85.3051 119.622 86.2224 117.261 86.6056C114.72 87.018 109.793 89.8142 107.412 91.6961C107.198 91.8651 107.141 92.2322 107.012 92.5038C113.487 95.8029 120.195 97.7874 127.461 98.5559V98.5549ZM94.8456 82.1387C96.0617 85.3634 99.4433 86.2324 101.128 88.6977C109.259 83.6263 117.957 81.0886 127.404 81.2606V78.6937C126.935 78.6937 126.443 78.8396 126.118 78.6686C124.84 77.9947 123.412 78.4574 122.163 78.1063C120.739 77.706 119.345 77.5944 117.924 77.6678C114.864 77.8257 111.785 77.2534 108.73 78.1274C107.223 78.559 105.57 78.4533 104.004 78.7189C103.059 78.8788 102.174 79.3646 101.233 79.5668C99.0731 80.0315 97.1631 81.0876 94.8466 82.1387H94.8456ZM149.876 94.617C145.238 89.5929 140.098 86.6448 133.729 85.5193C133.729 89.427 133.713 93.3054 133.741 97.1829C133.748 98.1425 134.706 98.9401 135.428 98.4613C136.664 97.6436 138.031 98.4241 139.125 97.9292C140.275 97.4092 141.487 97.362 142.635 96.9636C144.899 96.1781 147.193 95.48 149.877 94.617H149.876Z" fill="black"/>
<path d="M119.626 2.54353C118.912 2.28603 118.34 1.59 117.402 2.33733C116.758 2.8503 115.736 2.63204 114.888 3.01526C113.503 3.64189 113.486 3.51415 113.335 4.77446C113.278 5.25625 113.837 6.02571 112.834 6.19369C112.66 6.0579 112.344 5.93016 112.336 5.78532C112.287 4.93841 112.312 4.08647 112.312 3.20939C114.49 1.67449 116.966 1.35564 119.626 0.854736V2.54151V2.54353Z" fill="black"/>
<path d="M131.64 101.121V100.167C132.112 100.137 132.595 100.116 133.078 100.077C134.907 99.9261 136.765 100.392 138.588 99.6264C139.014 99.4473 140.118 98.9605 140.52 100.079C139.511 99.9905 138.694 100.973 137.633 100.601C136.571 100.229 135.756 101.174 134.744 101.132C133.711 101.089 132.675 101.122 131.64 101.122V101.121Z" fill="black"/>
<path d="M123.805 100.6C124.028 100.426 124.247 100.107 124.474 100.101C126.105 100.058 127.739 100.078 129.55 100.078V101.121H128.254C127.476 101.121 126.691 101.188 125.923 101.101C125.207 101.019 124.51 100.773 123.804 100.599L123.805 100.6Z" fill="black"/>
<path d="M122.237 6.71572C121.927 6.66744 121.374 6.6775 121.345 6.55981C121.086 5.50671 120.069 4.76038 120.148 3.58557C120.496 3.90844 120.932 4.17801 121.173 4.56726C121.591 5.24419 121.889 5.99454 122.237 6.71471V6.71572Z" fill="black"/>
<path d="M120.147 3.58638C119.366 3.54213 119.704 2.93863 119.625 2.54333C120.407 2.58759 120.069 3.19109 120.147 3.58638Z" fill="black"/>
<path d="M164.332 83.9512C164.392 84.0116 164.504 84.0971 164.493 84.1162C164.432 84.2298 164.341 84.3274 164.261 84.43C164.183 84.3526 164.106 84.2751 164.027 84.1977C164.129 84.1152 164.231 84.0327 164.331 83.9512H164.332Z" fill="black"/>
</svg>
