<svg width="229" height="115" viewBox="0 0 229 115" fill="none" xmlns="http://www.w3.org/2000/svg">
<g clip-path="url(#clip0_412_20294)">
<path d="M229 115H0V0.691162H229V115ZM150.758 56.7025C148.621 57.578 146.464 57.8456 144.27 56.9013C144.27 53.4109 144.262 49.9281 144.27 46.4453C144.274 44.9314 144.021 43.3677 145.161 42.0411C143.2 41.7506 138.753 41.7774 137.396 42.0641C137.404 42.1864 137.362 42.3699 137.427 42.4273C138.421 43.2645 138.581 44.3503 138.562 45.5813C138.509 48.9379 138.49 52.2945 138.57 55.6473C138.608 57.2454 138.218 58.6752 137.408 60.0477H150.719C150.869 59.2563 151.002 58.5528 151.136 57.8494C151.947 57.7538 151.171 56.8019 151.805 56.6107C151.729 56.5152 151.637 56.3317 151.572 56.3393C151.27 56.3814 150.804 56.1023 150.754 56.7063L150.758 56.7025ZM37.9895 41.8423C35.8983 41.8423 34.0136 41.8385 32.1288 41.8423C30.9131 41.8462 30.4926 41.9876 30.2441 43.1231C29.5865 46.1356 27.9273 48.8232 27.4647 51.8893C27.4494 51.9887 27.1894 52.0843 27.0327 52.1148C26.9448 52.1301 26.7383 52.004 26.7422 51.9505C26.8033 50.7844 25.9126 50.0045 25.5532 49.0067C25.1747 47.963 24.4789 47.0149 24.2113 45.9521C23.9284 44.832 23.1256 43.9565 22.9344 42.8631C22.793 42.0488 22.4259 41.8271 21.6843 41.8385C20.0939 41.8615 18.5035 41.8385 16.9169 41.8538C16.6226 41.8538 16.3091 41.9188 16.0491 42.0488C15.9153 42.1176 15.77 42.5037 15.8197 42.5496C16.9169 43.6239 17.0622 44.8243 16.4314 46.1968C16.3091 46.4606 16.4123 46.8238 16.4123 47.1411C16.4123 47.4584 16.5461 47.9095 16.3894 48.0701C15.7394 48.7315 16.1638 49.5114 16.0338 50.2224C15.9038 50.9297 15.7394 51.637 15.6592 52.3519C15.5024 53.7549 15.3992 55.1656 15.2616 56.5725C15.2463 56.7445 15.1469 56.9051 15.0934 57.0733C14.7799 58.0597 14.4664 59.046 14.1491 60.0438H19.6428C18.32 59.0995 17.9874 57.7921 18.3965 56.6452C18.7558 55.632 18.5188 54.6801 18.7138 53.732C18.9087 52.7724 19.2108 51.8396 19.0846 50.838C18.9852 50.0581 19.1572 49.3546 19.6695 48.827C19.9792 49.5687 20.3042 50.3218 20.61 51.0826C21.4167 53.0974 22.078 55.1733 23.1064 57.0963C23.8214 58.4229 24.7504 59.478 26.3522 59.7762C26.8377 59.868 27.2736 60.2197 27.7591 60.4682C27.9196 60.0285 28.0955 59.5889 28.2408 59.1416C29.2615 56.0105 30.2746 52.8718 31.3069 49.7446C31.3489 49.6222 31.5707 49.4808 31.7045 49.4884C31.8268 49.4961 32.0409 49.6834 32.0447 49.7981C32.0715 50.75 31.8 51.809 32.1365 52.6233C32.4499 53.3803 32.3238 54.0723 32.4423 54.7833C32.5608 55.4944 32.7329 56.1979 32.8093 56.9128C32.8705 57.4786 32.9125 58.075 32.794 58.6217C32.6832 59.1378 32.3505 59.6042 32.0944 60.1394C33.5166 60.1394 34.7896 60.1623 36.0627 60.1318C37.2784 60.105 38.5095 60.2617 40.1228 59.9406C38.9835 59.2028 38.7427 58.2776 38.605 57.448C38.4559 56.5572 38.3336 55.655 38.1998 54.7528C38.0545 53.7932 38.0392 52.8298 37.8404 51.8587C37.5155 50.2377 37.5308 48.548 37.4046 46.8849C37.3893 46.6938 37.4849 46.4338 37.3893 46.3268C36.7241 45.5545 37.1408 44.6446 37.0147 43.8074C36.9382 43.3066 37.1752 42.9893 37.5155 42.6719C37.676 42.5228 37.7487 42.2782 37.9857 41.85L37.9895 41.8423ZM102.996 60.0591C103.019 59.8641 103.092 59.6768 103.039 59.6348C102.366 59.0498 102.251 58.3311 102.262 57.4633C102.312 53.7205 102.266 49.9739 102.293 46.2274C102.305 44.7861 101.899 43.2569 103.203 42.0106C100.339 41.6932 96.5355 41.7582 95.358 42.1367C95.4383 42.7599 96.2526 42.9396 96.2106 43.708C96.115 45.4666 96.18 47.2328 96.18 48.9876H90.8354C90.8354 47.8178 90.9004 46.7358 90.8201 45.6616C90.7207 44.3541 91.0571 43.253 91.9747 42.3164C92.0244 42.2667 91.9441 42.087 91.9135 41.9073H84.4165C84.3897 42.0947 84.3171 42.2935 84.3592 42.3202C85.2346 42.9128 85.1161 43.8112 85.1161 44.6829C85.1123 48.4294 85.1276 52.1722 85.1085 55.9188C85.1008 57.3027 85.4678 58.7708 84.0839 60.0515H91.8982C91.6421 59.0804 90.8086 58.3693 90.8354 57.2951C90.8698 55.8347 90.8316 54.3743 90.8469 52.9139C90.8583 52.0881 91.1412 51.767 91.9173 51.7555C93.3051 51.7326 94.6928 51.7478 96.1876 51.7478C96.1876 53.7205 96.1341 55.6129 96.2106 57.4977C96.245 58.3732 96.0538 59.069 95.4345 59.6692C95.3886 59.7151 95.4727 59.8947 95.5033 60.0591H103.004H102.996ZM117.933 58.1055C117.933 58.5184 117.967 58.7593 117.925 58.9887C117.761 59.9368 117.818 60.1165 118.487 60.1241C120.441 60.1471 122.398 60.1318 124.44 60.1318C123.595 58.6905 123.22 57.3027 123.251 55.7506C123.316 52.3901 123.32 49.022 123.251 45.6616C123.224 44.3579 123.496 43.2569 124.409 42.3164C124.459 42.2667 124.379 42.087 124.348 41.9073H116.851C116.824 42.0947 116.748 42.2514 116.794 42.3279C117.111 42.8287 117.7 43.1536 117.57 43.9259C117.47 44.5146 117.975 45.0116 117.956 45.6692C117.887 48.0166 117.967 50.3639 117.91 52.7112C117.887 53.6097 117.73 54.5234 117.497 55.3912C117.184 56.5458 116.312 57.0733 115.005 57.081C114.813 57.081 114.619 57.0504 114.435 57.0848C113.529 57.2683 112.975 56.7101 112.615 56.064C112.34 55.5671 112.164 54.986 112.179 54.336C112.237 51.3541 112.206 48.3721 112.202 45.3901C112.202 44.3503 112.099 43.2951 112.917 42.4426C113.078 42.2743 112.948 42.3202 112.478 42.1253C111.094 41.5518 109.672 41.9379 108.268 41.8576C107.42 41.8079 106.544 41.7277 105.501 41.9953C106.567 43.2378 106.495 44.5873 106.483 45.9406C106.464 49.0488 106.319 52.1684 106.521 55.265C106.724 58.4305 108.532 60.1662 111.713 60.4873C114.045 60.7243 116.048 59.7915 117.929 58.1017L117.933 58.1055ZM203.428 52.4933C204.085 53.6976 204.429 54.5616 204.976 55.2727C205.71 56.2284 206.173 57.3333 206.865 58.3043C207.687 59.4589 208.684 60.2503 210.237 60.1471C211.437 60.0668 212.649 60.1394 213.857 60.1279C214.201 60.1279 214.545 60.0706 215.21 60.0094C212.458 57.2645 210.848 54.0684 208.768 51.1935C211.567 49.8401 212.358 48.6435 212.205 46.0171C212.152 45.0728 211.682 44.2088 211.078 43.6506C209.613 42.2935 207.648 42.0106 205.744 41.9035C205.236 41.8768 204.705 41.9226 204.154 41.8959C201.765 41.7697 199.368 41.8423 196.447 41.8423C198.091 43.3945 197.678 45.0422 197.693 46.6097C197.724 49.4655 197.708 52.3213 197.697 55.1733C197.689 56.8095 197.98 58.4917 196.745 60.0553H204.437C204.097 59.3786 203.527 58.7325 203.47 58.0406C203.328 56.3546 203.424 54.6495 203.424 52.4895L203.428 52.4933ZM179.603 59.7839C179.675 59.8986 179.752 60.0171 179.824 60.1318C184.19 60.1318 188.552 60.1279 192.918 60.1394C193.446 60.1394 193.652 59.8106 193.889 59.436C194.608 58.2967 195.353 57.1727 196.202 55.8729C195.441 56.0985 194.761 55.6665 194.153 56.2399C193.125 57.2148 191.771 57.2951 190.471 57.4556C189.844 57.5321 189.195 57.5321 188.571 57.4518C187.933 57.3677 187.31 57.1383 186.637 56.9586C186.637 55.5671 186.622 54.1793 186.645 52.7915C186.656 52.1148 186.989 51.767 187.65 51.7708C188.124 51.7708 188.583 51.6523 189.072 52.0307C189.493 52.3519 190.158 52.3557 190.754 52.5124V49.0602H186.721V44.9008C187.184 44.9008 187.562 44.897 187.941 44.9008C189.271 44.9199 190.67 44.5949 191.89 45.9445V41.9303H180.019C180.184 42.2591 180.233 42.5305 180.394 42.6452C180.86 42.9893 180.921 43.4251 180.921 43.9641C180.902 48.655 180.902 53.3459 180.921 58.0367C180.921 58.5834 180.853 59.0307 180.375 59.3366C180.122 59.4971 179.862 59.6386 179.603 59.7915V59.7839ZM153.61 41.915C154.837 43.4136 154.565 45.0308 154.569 46.6059C154.581 50.0963 154.558 53.5905 154.581 57.081C154.585 57.9603 154.52 58.7784 153.908 59.478C153.812 59.5889 153.839 59.8068 153.782 60.1318C157.964 60.1318 162.078 60.1356 166.195 60.1203C166.394 60.1203 166.707 59.9903 166.769 59.8412C167.185 58.809 167.56 57.7538 167.915 56.6987C167.942 56.6146 167.743 56.3584 167.629 56.3431C167.48 56.3202 167.3 56.4464 167.147 56.5343C165.664 57.3868 164.05 57.6353 162.384 57.4365C161.76 57.3639 161.122 57.0848 160.579 56.756C159.979 56.3928 160.319 55.7047 160.315 55.1733C160.281 52.0002 160.346 48.8232 160.277 45.6501C160.246 44.3464 160.522 43.2416 161.435 42.3049C161.485 42.2552 161.401 42.0794 161.367 41.9112H153.61V41.915ZM81.2663 60.0935C81.1746 58.7861 82.3903 57.7233 81.9736 56.3431C79.6071 57.6544 77.2483 57.7959 74.8092 56.8592C74.8092 52.9177 74.8245 48.9838 74.7977 45.0461C74.7901 44.1706 74.8704 43.3563 75.3636 42.607C75.4744 42.4349 75.463 42.1788 75.505 41.9647C75.2871 41.9723 75.0654 41.9609 74.8551 41.9953C74.6334 42.0335 74.3313 42.2476 74.2166 42.1673C73.2915 41.5174 72.2631 41.9112 71.292 41.8615C70.3057 41.8079 69.3002 41.7697 68.1954 41.915C68.5394 42.6452 68.937 43.2072 69.0517 43.8227C69.1893 44.5605 69.0861 45.3404 69.0861 46.1012V56.9586C69.0861 57.5283 69.2314 58.1553 69.0441 58.6599C68.8567 59.1684 68.3483 59.5621 67.9048 60.0974H81.2701L81.2663 60.0935ZM127.387 41.85C127.72 42.6911 128.087 43.3257 128.209 44.0062C128.339 44.744 128.24 45.5239 128.24 46.2885C128.24 49.844 128.206 53.3994 128.259 56.9548C128.278 58.1514 127.999 59.1684 127.005 60.0362H135.221C134.277 59.2066 133.936 58.312 133.948 57.1766C133.994 53.0515 133.986 48.9226 133.948 44.7976C133.94 44.0329 134.139 43.3716 134.437 42.7064C134.544 42.4655 134.655 42.2285 134.831 41.8423C132.235 41.85 129.853 41.8347 127.387 41.8538V41.85ZM169.938 42.3088C171.299 43.5245 170.978 44.9199 170.982 46.2503C170.993 49.2285 170.993 52.2028 170.982 55.1809C170.974 56.8134 171.264 58.4955 170.102 59.9635C172.595 60.2579 176.269 60.2082 177.886 59.7686C176.361 59.1339 176.716 57.9947 176.712 56.9663C176.697 52.975 176.739 48.9838 176.682 44.9964C176.666 44.0062 176.915 43.1536 177.473 42.3126H169.93L169.938 42.3088ZM110.685 68.1907C110.685 70.0755 110.746 71.9679 110.658 73.8488C110.62 74.6822 111.006 74.6593 111.56 74.6134C111.74 74.5981 111.923 74.5828 112.137 74.5637V65.1323C111.939 65.1094 111.82 65.0864 111.698 65.0864C110.801 65.0915 110.189 65.5554 109.863 66.478C109.178 68.4163 108.494 70.3546 107.817 72.2737C107.771 72.2164 107.672 72.1437 107.638 72.0443C107.026 70.3278 106.422 68.6113 105.826 66.8947C105.631 66.3404 105.627 65.549 105.241 65.2737C104.812 64.9679 104.048 65.117 103.432 65.0902C103.325 65.0864 103.214 65.1744 103.054 65.2432C103.054 67.9422 103.042 70.6642 103.061 73.3862C103.069 74.4376 103.329 74.5981 104.583 74.4337C104.583 73.3595 104.56 72.2814 104.591 71.2071C104.617 70.2016 104.468 69.1771 104.77 67.8046C105.554 70.1252 106.231 72.0635 106.858 74.0247C106.953 74.3305 106.885 74.6822 107.343 74.6058C107.749 74.537 108.165 74.8581 108.463 74.0591C109.19 72.1285 109.794 70.1672 110.692 68.1907H110.685ZM53.4728 48.6932C54.9218 48.7315 55.0021 48.7812 55.3347 49.7866C55.3729 49.9013 55.3041 50.0504 55.3461 50.1613C55.7743 51.3502 56.214 52.5316 56.7339 53.9499C57.315 53.3803 57.7011 52.9903 58.0987 52.6157C58.8022 51.9543 58.9971 51.9581 59.8038 52.5813C59.9873 52.7227 60.1861 52.8451 60.1861 52.8412C62.0747 51.052 63.8639 49.3584 65.6377 47.6572C65.6874 47.6075 65.611 47.4278 65.5804 47.2405H53.4728V48.6894V48.6932ZM148.085 71.0465C148.085 70.0373 148.112 69.0853 148.074 68.1334C148.055 67.6364 147.443 67.2311 147.049 67.4949C146.556 67.8237 146.227 67.709 145.719 67.5255C144.343 67.0247 143.081 67.6058 142.362 68.9286C141.984 69.6244 141.865 71.0886 141.965 72.0749C142.06 73.0345 142.596 73.7418 143.31 74.1547C143.968 74.537 144.828 75.1104 145.635 74.2388C145.692 74.1738 145.883 74.212 146.006 74.2349C146.178 74.2655 146.415 74.277 146.499 74.3917C146.575 74.4949 146.556 74.7816 146.461 74.881C145.994 75.3742 145.535 75.7145 144.744 75.8253C143.811 75.9591 143.616 75.1334 142.985 74.9919C142.76 74.9384 142.607 74.342 142.305 74.8734C142.175 75.1028 142.018 75.4392 142.095 75.6457C142.607 77.0105 144.293 77.7483 145.704 77.1557C146.717 76.7314 147.562 76.2497 147.791 74.8428C148.005 73.5468 148.028 72.2737 148.089 71.0465H148.085ZM81.2931 67.1165C80.8229 67.4108 80.5744 67.4949 80.4406 67.667C80.0965 68.1066 79.8786 68.0607 79.4695 67.6861C78.9534 67.2159 77.5083 67.2503 77.0419 67.6173C75.31 68.9706 74.9468 70.2934 75.5471 72.4114C75.8109 73.3442 76.4187 73.7991 77.1795 74.2502C77.8829 74.667 78.4946 74.8428 79.1828 74.2694C79.2707 74.1967 79.6492 74.2847 79.6645 74.3496C79.7256 74.6364 79.8289 75.0569 79.6836 75.2175C79.3739 75.5615 78.9152 75.7795 78.5176 76.0471C78.1773 75.5424 77.3783 76.0929 77.0648 75.3704C76.8851 74.9613 75.872 74.8084 75.6847 75.0951C75.4362 75.4774 75.5126 75.8712 75.8567 76.2573C76.736 77.2513 77.8676 77.4195 79.0604 77.259C79.89 77.1481 80.3756 76.4179 80.9758 75.9018C81.4651 75.4813 81.2778 74.9728 81.2816 74.5026C81.3007 72.1667 81.2893 69.827 81.2893 67.1203L81.2931 67.1165ZM87.0735 65.0864V74.5217H88.5989V70.8019C89.4706 70.8019 90.2887 70.7522 91.0992 70.8133C92.2614 70.9013 93.0375 70.2972 93.825 69.5632C94.5132 68.9248 94.3105 68.1601 94.2455 67.4643C94.1003 65.9198 93.5345 65.2279 91.8791 65.1094C90.3116 64.9947 88.7289 65.0864 87.0735 65.0864ZM154.955 70.8019C155.835 70.8019 156.534 70.7483 157.226 70.8133C159.975 71.0695 160.923 69.6205 160.682 67.3726C160.633 66.8909 160.786 66.4015 160.285 66.0001C159.757 65.5796 159.252 65.1132 158.561 65.0979C156.863 65.0635 155.166 65.0864 153.426 65.0864V73.023C153.426 73.2754 153.399 73.5353 153.43 73.7838C153.503 74.3458 154.103 74.7855 154.642 74.5943C155.093 74.4337 155.296 74.2502 155.02 73.5659C154.715 72.8051 154.952 71.8303 154.952 70.8019H154.955ZM133.202 71.5244C133.202 70.8057 133.114 70.2208 133.221 69.6702C133.409 68.7451 132.877 68.1754 132.25 67.797C131.275 67.2082 130.132 67.1547 129.07 67.5332C128.523 67.7281 128.045 68.1793 127.613 68.5921C127.284 68.9095 127.475 69.5135 127.888 69.8805C128.32 70.2666 128.592 69.9417 128.802 69.6473C129.062 69.2803 129.054 68.6686 129.8 68.8751C130.266 69.005 130.782 68.9439 131.249 69.0662C131.428 69.1121 131.604 69.4217 131.646 69.6358C131.665 69.7352 131.383 69.9723 131.203 70.022C130.507 70.2055 129.83 70.4081 129.081 70.454C127.881 70.5266 127.085 71.6659 127.078 72.8319C127.078 73.4703 127.594 73.6424 127.862 74.04C128.229 74.5828 128.756 74.6784 129.341 74.602C129.934 74.5255 130.549 74.7931 131.123 74.2694C131.39 74.0247 131.88 74.3152 132.285 74.5676C132.77 74.8696 133.653 74.2923 133.447 73.9406C132.946 73.0957 133.371 72.2164 133.202 71.5206V71.5244ZM56.4548 74.6975C56.3019 73.7838 56.1451 73.2066 56.1184 72.6216C56.0725 71.6085 56.0305 70.5878 56.1299 69.5823C56.2216 68.6686 55.7017 68.2022 55.0938 67.7549C54.398 67.2388 53.5722 67.3917 52.7809 67.3688C51.5881 67.3344 50.8923 68.0072 50.4679 69.0203C50.3991 69.1885 50.4756 69.4867 50.5941 69.655C50.9879 70.2246 51.3893 70.1558 51.9054 69.4676C52.6815 68.4392 52.9185 68.4354 54.0042 68.8368C54.4401 68.9974 54.6045 69.0891 54.5968 69.5441C54.5853 69.9837 54.1954 69.9073 54.0463 70.064C53.4958 70.6528 52.8573 70.3507 52.2648 70.4043C50.9688 70.5228 49.7989 71.7041 50.0053 72.7363C50.2271 73.8412 51.1714 74.5599 52.3412 74.6173C53.0982 74.6555 53.7825 74.4873 54.4439 74.17C54.6083 74.0897 54.8224 73.6424 54.9409 74.0667C55.2161 75.076 55.9081 74.3955 56.4625 74.6937L56.4548 74.6975ZM101.525 74.4185C101.525 73.0116 101.601 71.4977 101.494 69.999C101.437 69.2 101.349 68.2175 100.534 67.7778C99.5519 67.2464 98.4279 67.1241 97.3575 67.5599C96.8681 67.7587 96.4056 68.1104 96.05 68.5042C95.8512 68.726 95.7939 69.1962 95.8742 69.502C95.9353 69.7276 96.3176 69.8843 96.5814 70.0181C96.6158 70.0334 96.8185 69.7085 96.9408 69.5441C97.778 68.4125 98.7605 68.3131 99.7775 69.2688C99.896 69.3797 99.9954 69.5938 99.9725 69.7429C99.9572 69.8576 99.7354 70.0373 99.6131 70.0296C98.8714 70.0028 98.2674 70.4769 97.4875 70.4731C96.2221 70.4693 95.3389 71.5856 95.4154 72.7478C95.488 73.8374 96.2297 74.6211 97.3384 74.5943C98.0456 74.5752 98.8179 74.9307 99.4678 74.2197C100.202 73.413 100.622 75.3398 101.525 74.4261V74.4185ZM171.804 67.644V76.8079H173.279C173.226 75.9018 173.478 75.0607 172.958 74.2923C173.153 74.2655 173.302 74.1929 173.386 74.2388C174.613 74.881 175.676 74.839 176.678 73.7303C177.217 73.1377 177.588 72.5987 177.485 71.7729C177.423 71.2759 177.423 70.756 177.485 70.259C177.649 68.9095 176.819 68.336 175.81 67.709C175.256 67.365 174.755 67.3229 174.239 67.4032C173.864 67.4605 173.551 67.9575 173.176 67.9996C172.775 68.0493 172.343 67.797 171.804 67.644ZM74.0446 74.5599C74.0446 72.9848 74.0561 71.5282 74.0446 70.0717C74.0255 67.8925 72.6951 66.9826 70.5389 67.6173C70.2254 67.709 69.8393 67.6784 69.5143 67.5943C68.7344 67.3917 68.3406 67.579 68.333 68.3284C68.3062 70.4043 68.3253 72.484 68.3253 74.5714H69.759C70.1566 72.679 69.3079 70.6757 70.4012 68.8942C70.665 68.8942 70.9212 68.8865 71.1735 68.8942C72.286 68.9362 72.5077 69.1274 72.5192 70.1634C72.5383 71.6124 72.523 73.0613 72.523 74.5561H74.0484L74.0446 74.5599ZM140.455 74.6058C140.455 72.8128 140.47 71.1727 140.451 69.5326C140.432 67.9002 138.344 66.6959 137.014 67.6211C136.521 67.9652 136.333 68.1525 135.898 67.6134C135.615 67.2617 134.846 67.5179 134.739 67.9461C134.693 68.1257 134.732 68.3245 134.732 68.5119C134.732 70.1558 134.716 71.7997 134.735 73.4436C134.747 74.3802 134.911 74.4873 136.257 74.5255C136.257 73.1492 136.242 71.7691 136.265 70.3928C136.276 69.5632 136.922 68.9439 137.782 68.8942C138.142 68.8712 138.509 68.8942 138.929 68.8942C138.929 70.4693 138.914 71.9144 138.933 73.3633C138.948 74.3764 139.052 74.4529 140.455 74.6058ZM187.78 74.6822C187.78 72.8548 187.753 71.1612 187.791 69.4676C187.814 68.4966 187.264 68.1372 186.492 67.709C185.681 67.2579 184.982 67.1738 184.282 67.667C183.896 67.9384 183.731 68.164 183.303 67.7014C182.879 67.2426 182.187 67.4643 182.061 68.0225C182.019 68.2022 182.053 68.401 182.053 68.5921C182.053 70.1749 182.038 71.7576 182.057 73.3404C182.068 74.4032 182.29 74.5599 183.578 74.4682C183.578 73.1492 183.552 71.8264 183.586 70.5037C183.621 69.1427 183.877 68.9056 185.157 68.898C185.513 68.898 185.872 68.898 186.251 68.898C186.251 70.519 186.258 71.9717 186.247 73.4283C186.247 73.8182 186.224 74.2197 186.629 74.4032C186.939 74.5408 187.294 74.5714 187.78 74.6861V74.6822ZM60.4728 72.5643C60.1135 71.4632 59.9147 70.5419 59.5132 69.7123C59.1806 69.028 59.2494 68.1487 58.504 67.6517C58.2402 67.4758 58.0299 67.1929 57.7164 67.4835C57.422 67.7587 57.1009 67.9384 57.4182 68.5463C58.1752 69.999 58.6645 71.5741 59.1577 73.1416C59.2647 73.4742 59.4865 73.7877 59.5209 74.1241C59.6585 75.3857 59.4941 75.5615 58.1675 75.7489C57.7508 75.8062 57.4641 76.2841 57.6285 76.6511C57.9381 77.3469 59.0468 77.5151 59.6738 76.9417C60.4002 76.2726 60.7328 75.378 61.0654 74.4796C61.7535 72.614 62.4684 70.756 63.1566 68.8865C63.2598 68.6113 63.3248 68.3092 63.3439 68.0187C63.386 67.4567 62.8469 67.0935 62.3882 67.3994C62.1473 67.5561 61.9256 67.839 61.8376 68.1104C61.3789 69.5059 60.9698 70.9127 60.4652 72.5643H60.4728ZM120.605 67.0973C120.605 67.9766 120.495 68.5042 120.628 68.963C120.942 70.0296 121.351 71.0695 121.76 72.1055C121.974 72.6522 122.28 73.1607 122.505 73.6997C122.574 73.8603 122.509 74.0744 122.517 74.2655C122.559 75.4239 122.41 75.5921 121.194 75.7527C120.72 75.8139 120.418 76.2229 120.617 76.6091C120.816 76.9952 121.072 77.2972 121.611 77.2934C122.46 77.2896 123.171 76.567 123.687 75.5118C124.566 73.7074 124.86 71.6926 125.839 69.9302C126.118 69.4294 126.229 68.8101 126.309 68.2328C126.351 67.9461 126.585 67.4146 125.942 67.3802C125.598 67.3611 125.388 67.365 125.136 67.8428C124.383 69.2688 124.065 70.8286 123.442 72.4267C122.983 71.1956 122.421 70.0831 122.177 68.9056C121.997 68.0302 121.496 67.6899 120.605 67.1012V67.0973ZM39.3123 65.182H31.67C31.8306 66.4054 31.9568 66.5736 32.7596 66.6042C33.3828 66.6271 34.0059 66.608 34.7438 66.608V74.5714H36.2615V66.543H39.3085V65.1782L39.3123 65.182ZM189.217 71.0733C189.248 71.0771 189.275 71.0809 189.305 71.0848C189.305 71.5282 189.282 71.9717 189.313 72.4114C189.328 72.6407 189.37 72.9198 189.512 73.0804C190.345 74.0285 191.152 74.904 192.681 74.6478C193.901 74.4414 194.608 73.673 195.392 72.9122C195.258 72.2164 195.763 71.6162 195.747 70.9892C195.732 70.3813 195.342 69.7811 195.124 69.1771C194.642 67.8505 193.641 67.3573 192.295 67.365C190.926 67.3726 189.982 68.0187 189.523 69.2726C189.317 69.8346 189.313 70.4693 189.217 71.0695V71.0733ZM115.632 73.088V65.0673C115.039 65.1017 114.573 65.1323 114.171 65.1552V74.6096C115.861 74.6096 117.497 74.6096 119.13 74.6096C119.313 74.6096 119.562 74.6555 119.673 74.5599C119.894 74.3688 120.181 74.0897 120.181 73.8488C120.181 73.608 119.91 73.2715 119.673 73.1492C119.42 73.023 119.065 73.088 118.751 73.088C117.75 73.0842 116.748 73.088 115.628 73.088H115.632ZM45.3527 74.6746V67.7893H44.4199C44.3511 67.8734 44.2784 67.9231 44.2784 67.969C44.2708 68.6648 44.2746 69.3644 44.2746 70.0602C44.2746 70.6298 44.309 71.2033 44.267 71.7729C44.2058 72.591 43.3074 73.4512 42.5504 73.4665C41.9884 73.478 41.3538 72.7746 41.2276 71.9526C41.1779 71.6429 41.22 71.318 41.22 71.0007V67.7855H40.0769C40.0769 69.5135 40.0387 71.2109 40.096 72.9045C40.1228 73.6309 40.5089 74.2732 41.2773 74.4567C42.1643 74.6708 43.0742 74.9346 43.8655 74.0935C44.3587 73.5697 44.1523 74.2961 44.2861 74.3726C44.5728 74.5331 44.9322 74.5676 45.3527 74.6784V74.6746ZM47.3904 65.117V74.6211C47.9256 74.5905 48.3958 74.5637 48.7896 74.5408V65.117H47.3904ZM165.327 65.1208V74.6249C165.866 74.5905 166.333 74.5599 166.723 74.5331V65.117H165.327V65.1208ZM62.6558 42.9472C61.4668 44.1362 60.3658 45.2334 59.2724 46.3229H65.6454C65.6454 46.1089 65.6989 45.9292 65.6377 45.868C64.6667 44.897 63.6804 43.9412 62.6558 42.9434V42.9472ZM47.5165 46.4147C46.4996 45.3978 45.6624 44.5796 44.8442 43.7424C44.3817 43.2683 43.9993 43.3448 43.3953 43.6162C42.3096 44.1056 41.7438 45.0958 40.895 45.803C40.6618 45.998 40.9027 46.4109 41.2506 46.4109C43.2539 46.4185 45.261 46.4147 47.5165 46.4147ZM53.4422 51.3655C53.3123 51.3923 53.1823 51.4229 53.0523 51.4496C53.0523 53.7626 53.037 56.0793 53.0676 58.3923C53.0752 58.8434 52.7809 59.5315 53.3352 59.6845C53.6181 59.7648 54.096 59.1875 54.4745 58.8969C55.3691 58.205 55.6405 57.4518 54.9906 56.3737C54.6733 55.8461 54.7612 55.0968 54.5624 54.4775C54.2298 53.4262 53.8169 52.4016 53.4384 51.3617L53.4422 51.3655ZM54.4592 42.6758C55.4111 43.6239 56.2331 44.4688 57.0818 45.2869C57.6017 45.7877 57.9878 45.7801 58.5078 45.3481C59.2112 44.7631 59.9414 44.2088 60.6181 43.5971C60.8437 43.3945 60.9469 43.0542 61.1648 42.6758H54.4592ZM49.9404 46.2809H56.428C56.4204 46.235 56.4166 46.193 56.4089 46.1471C55.6061 45.3442 54.8147 44.5338 53.9966 43.75C53.4117 43.1881 53.0523 43.1995 52.4444 43.7883C51.6301 44.5758 50.8349 45.3863 49.9404 46.2809ZM45.303 42.6796C46.2511 43.6277 47.0731 44.4688 47.9218 45.2869C48.4417 45.7877 48.8546 45.8107 49.3401 45.3481C50.2118 44.5146 51.0567 43.6468 52.0201 42.6796H45.2992H45.303ZM163.733 74.5752C163.733 72.4534 163.745 70.496 163.729 68.5386C163.722 67.5943 163.561 67.4911 162.269 67.4376V74.5714H163.733V74.5752ZM180.528 74.5714V68.9553C180.528 68.6418 180.635 68.2634 180.501 68.0263C180.344 67.7473 179.996 67.4682 179.69 67.4146C179.499 67.3802 179.22 67.7473 179.014 67.969C178.953 68.0378 179.002 68.2137 179.002 68.3398V74.5752H180.528V74.5714ZM51.4466 51.2126C51.0605 51.4458 50.7279 51.5337 50.5979 51.744C50.1086 52.5469 49.6727 53.3879 49.2369 54.2252C48.7246 55.2115 48.7284 55.2192 49.4166 55.9264C49.8142 56.3355 50.208 56.7522 50.6361 57.1307C50.8311 57.3027 51.1102 57.3868 51.4466 57.5627V51.2126ZM168.76 67.4032V74.5752H169.781V67.4032H168.76ZM40.6924 47.2672C41.3232 48.4753 42.3057 49.1176 43.1239 50.0466C43.877 49.2934 44.5116 48.6856 45.108 48.0433C45.2801 47.8598 45.3451 47.5731 45.4903 47.2672H40.6924ZM44.4466 51.3617C45.1654 52.069 45.7732 52.6768 46.4002 53.2656C46.4652 53.3268 46.6411 53.2732 46.9469 53.2732V49.3011C45.7847 49.7981 45.2839 50.6544 44.4466 51.3617ZM51.007 47.1755C50.2118 47.1755 49.7721 47.1258 49.3478 47.187C48.824 47.2634 48.457 47.5425 48.4685 48.158C48.4838 48.8538 48.457 49.5496 48.4876 50.2454C48.4914 50.3715 48.6787 50.5703 48.7973 50.5856C48.9349 50.6009 49.1528 50.4862 49.2254 50.3639C49.7836 49.4005 50.3188 48.4218 51.007 47.1793V47.1755ZM179.063 65.117V66.6195C179.603 66.5927 180.069 66.5698 180.463 66.5468V65.1132H179.063V65.117ZM162.269 65.117V66.6195C162.804 66.5927 163.27 66.5698 163.672 66.5506V65.117H162.269ZM169.846 65.8931C169.819 65.4993 169.995 65.0941 169.357 65.0673C168.699 65.0367 168.642 65.3579 168.695 65.8549C168.73 66.1913 168.542 66.6003 169.181 66.6271C169.835 66.6539 169.907 66.3404 169.842 65.8931H169.846Z" fill="black"/>
<path d="M203.474 50.8876V44.4993C204.525 44.7708 205.542 44.9466 206.131 45.8947C206.436 46.3879 206.826 46.9614 206.807 47.4889C206.788 48.0892 206.425 48.72 206.081 49.2552C205.779 49.7254 205.343 50.146 204.877 50.4556C204.51 50.6965 204.005 50.7347 203.474 50.8876Z" fill="black"/>
<path d="M146.564 71.123C146.694 71.7538 146.445 72.3769 145.799 72.916C145.103 73.4933 144.778 73.6194 144.098 73.0727C143.345 72.4649 143.043 71.6123 143.127 70.6375C143.207 69.7085 143.804 69.0853 144.461 68.5386C144.798 68.2595 145.815 68.9094 146.201 69.372C146.617 69.8728 146.549 70.3966 146.568 71.1192L146.564 71.123Z" fill="black"/>
<path d="M76.7132 71.0198C76.7132 70.7025 76.6827 70.3814 76.7209 70.0717C76.7897 69.4791 77.604 68.6381 78.1889 68.5157C78.8771 68.3704 79.2364 68.8674 79.5729 69.2918C80.563 70.5343 80.2801 72.4152 78.9574 73.2907C78.7089 73.4551 78.2081 73.478 77.9557 73.3366C77.0841 72.8472 76.7171 72.0673 76.7132 71.0198Z" fill="black"/>
<path d="M88.5452 66.2295C89.501 66.2295 90.2617 66.1912 91.0225 66.2371C92.0318 66.2983 92.7085 66.9176 92.7467 67.7281C92.8041 69.0012 92.5938 69.2191 91.2978 69.2841C90.8199 69.307 90.3879 69.2688 89.8909 69.5785C89.2372 69.9799 88.5911 69.4446 88.5567 68.6189C88.5261 67.8696 88.549 67.1164 88.549 66.2295H88.5452Z" fill="black"/>
<path d="M154.955 66.2295C155.957 66.2295 156.783 66.1874 157.597 66.2448C158.056 66.2792 158.561 66.3939 158.947 66.6309C159.512 66.975 159.516 68.2175 159.038 68.8215C158.511 69.4867 156.179 70.0105 155.452 69.544C155.196 69.3797 155.009 68.9515 154.978 68.6265C154.91 67.881 154.955 67.1241 154.955 66.2295Z" fill="black"/>
<path d="M131.585 71.2644C131.749 71.9181 131.769 72.4839 131.168 73.0765C130.603 73.627 130.006 73.4512 129.417 73.4512C128.943 73.4512 128.657 73.1033 128.622 72.5986C128.584 72.0711 128.905 71.6505 129.444 71.5664C130.144 71.4594 130.843 71.3676 131.585 71.2644Z" fill="black"/>
<path d="M54.463 71.058C54.681 72.0252 54.5892 72.6025 53.989 73.1492C53.4691 73.6232 52.93 73.4244 52.3986 73.4589C51.8978 73.4894 51.634 73.153 51.5231 72.6828C51.3931 72.117 51.8328 72.0749 52.1654 71.8188C52.5898 71.4938 53.0026 71.662 53.4002 71.555C53.7328 71.4632 54.0349 71.2644 54.463 71.0618V71.058Z" fill="black"/>
<path d="M96.9445 73.4168C96.9445 73.0344 96.9483 72.7821 96.9445 72.5298C96.9292 71.9181 97.3039 71.6582 97.8353 71.5664C98.4814 71.4517 99.1313 71.36 99.7888 71.2606C100.175 73.1377 99.7353 73.5047 96.9407 73.4206L96.9445 73.4168Z" fill="black"/>
<path d="M176.33 70.6069C176.33 71.2415 176.368 71.5626 176.322 71.8685C176.154 73.0268 175.512 73.5124 174.353 73.478C173.684 73.4588 173.554 73.0192 173.226 72.549C172.622 71.6964 172.981 70.8592 172.943 70.0334C172.927 69.7199 173.405 69.3491 173.704 69.0547C174.575 68.1869 175.951 68.5883 176.284 69.8155C176.38 70.1672 176.33 70.5533 176.33 70.6069Z" fill="black"/>
<path d="M194.268 71.0465C194.317 71.9908 193.809 72.6637 193.151 73.2333C192.681 73.6424 192.073 73.6233 191.63 73.2754C190.831 72.656 190.303 71.815 190.46 70.7445C190.594 69.8346 190.938 69.1044 191.924 68.703C192.559 68.4469 192.93 68.4774 193.377 68.9439C193.95 69.5403 194.329 70.1902 194.264 71.0427L194.268 71.0465Z" fill="black"/>
</g>
<defs>
<clipPath id="clip0_412_20294">
<rect width="229" height="114.309" fill="white" transform="translate(0 0.691162)"/>
</clipPath>
</defs>
</svg>
